<?xml version="1.0" encoding="UTF-8" standalone="no"?>
<!DOCTYPE svg PUBLIC "-//W3C//DTD SVG 1.1//EN"
 "http://www.w3.org/Graphics/SVG/1.1/DTD/svg11.dtd">
<!-- Generated by graphviz version 2.42.3 (20191010.1750)
 -->
<!-- Title: G Pages: 1 -->
<svg width="148pt" height="188pt"
 viewBox="0.00 0.00 148.42 188.00" xmlns="http://www.w3.org/2000/svg" xmlns:xlink="http://www.w3.org/1999/xlink">
<g id="graph0" class="graph" transform="scale(1 1) rotate(0) translate(4 184)">
<title>G</title>
<polygon fill="white" stroke="transparent" points="-4,4 -4,-184 144.42,-184 144.42,4 -4,4"/>
<!-- BootstrapClassLoader -->
<g id="node1" class="node">
<title>BootstrapClassLoader</title>
<polygon fill="none" stroke="black" points="140.63,-180 -0.21,-180 -0.21,-144 140.63,-144 140.63,-180"/>
<text text-anchor="middle" x="70.21" y="-157.8" font-family="Times,serif" font-size="14.00">BootstrapClassLoader</text>
</g>
<!-- ExtClassLoader -->
<g id="node2" class="node">
<title>ExtClassLoader</title>
<polygon fill="none" stroke="black" points="123.13,-108 17.29,-108 17.29,-72 123.13,-72 123.13,-108"/>
<text text-anchor="middle" x="70.21" y="-85.8" font-family="Times,serif" font-size="14.00">ExtClassLoader</text>
</g>
<!-- BootstrapClassLoader&#45;&gt;ExtClassLoader -->
<g id="edge1" class="edge">
<title>BootstrapClassLoader&#45;&gt;ExtClassLoader</title>
<path fill="none" stroke="black" d="M70.21,-133.67C70.21,-125.05 70.21,-115.79 70.21,-108.1"/>
<polygon fill="black" stroke="black" points="66.71,-133.7 70.21,-143.7 73.71,-133.7 66.71,-133.7"/>
</g>
<!-- AppClassLoader -->
<g id="node3" class="node">
<title>AppClassLoader</title>
<polygon fill="none" stroke="black" points="125.3,-36 15.12,-36 15.12,0 125.3,0 125.3,-36"/>
<text text-anchor="middle" x="70.21" y="-13.8" font-family="Times,serif" font-size="14.00">AppClassLoader</text>
</g>
<!-- ExtClassLoader&#45;&gt;AppClassLoader -->
<g id="edge2" class="edge">
<title>ExtClassLoader&#45;&gt;AppClassLoader</title>
<path fill="none" stroke="black" d="M70.21,-61.67C70.21,-53.05 70.21,-43.79 70.21,-36.1"/>
<polygon fill="black" stroke="black" points="66.71,-61.7 70.21,-71.7 73.71,-61.7 66.71,-61.7"/>
</g>
</g>
</svg>
