<?xml version="1.0" encoding="UTF-8" standalone="no"?><svg xmlns="http://www.w3.org/2000/svg" xmlns:xlink="http://www.w3.org/1999/xlink" contentScriptType="application/ecmascript" contentStyleType="text/css" height="196px" preserveAspectRatio="none" style="width:295px;height:196px;" version="1.1" viewBox="0 0 295 196" width="295px" zoomAndPan="magnify"><defs><filter height="300%" id="fdcjsee7rdvjm" width="300%" x="-1" y="-1"><feGaussianBlur result="blurOut" stdDeviation="2.0"/><feColorMatrix in="blurOut" result="blurOut2" type="matrix" values="0 0 0 0 0 0 0 0 0 0 0 0 0 0 0 0 0 0 .4 0"/><feOffset dx="4.0" dy="4.0" in="blurOut2" result="blurOut3"/><feBlend in="SourceGraphic" in2="blurOut3" mode="normal"/></filter></defs><g><text fill="#000000" font-family="sans-serif" font-size="18" font-weight="bold" lengthAdjust="spacingAndGlyphs" textLength="121" x="90.5" y="17.4023">ForkJoinTask</text><!--MD5=[9473c99003db6b535952ab3e34a44ff8]
class Future--><rect fill="#FEFECE" filter="url(#fdcjsee7rdvjm)" height="48" id="Future" style="stroke: #A80036; stroke-width: 1.5;" width="80" x="6" y="29.1992"/><ellipse cx="21" cy="45.1992" fill="#B4A7E5" rx="11" ry="11" style="stroke: #A80036; stroke-width: 1.0;"/><path d="M17.4277,41.4644 L17.4277,39.3062 L24.8071,39.3062 L24.8071,41.4644 L22.3418,41.4644 L22.3418,49.541 L24.8071,49.541 L24.8071,51.6992 L17.4277,51.6992 L17.4277,49.541 L19.8931,49.541 L19.8931,41.4644 Z "/><text fill="#000000" font-family="sans-serif" font-size="12" font-style="italic" lengthAdjust="spacingAndGlyphs" textLength="36" x="35" y="49.7344">Future</text><rect fill="#FFFFFF" height="16.1328" style="stroke: #000000; stroke-width: 1.0; stroke-dasharray: 2.0,2.0;" width="10" x="79" y="26.1992"/><text fill="#000000" font-family="sans-serif" font-size="12" font-style="italic" lengthAdjust="spacingAndGlyphs" textLength="8" x="80" y="38.8008">V</text><line style="stroke: #A80036; stroke-width: 1.5;" x1="7" x2="85" y1="61.1992" y2="61.1992"/><line style="stroke: #A80036; stroke-width: 1.5;" x1="7" x2="85" y1="69.1992" y2="69.1992"/><!--MD5=[ee2248f43e599314172d80efa39395f4]
class ForkJoinTask--><rect fill="#FEFECE" filter="url(#fdcjsee7rdvjm)" height="48" id="ForkJoinTask" style="stroke: #A80036; stroke-width: 1.5;" width="118" x="81" y="137.1992"/><ellipse cx="96" cy="153.1992" fill="#A9DCDF" rx="11" ry="11" style="stroke: #A80036; stroke-width: 1.0;"/><path d="M96.1133,148.7974 L94.9595,153.8691 L97.2754,153.8691 Z M94.6191,146.5562 L97.6157,146.5562 L100.9609,158.9492 L98.5122,158.9492 L97.7485,155.8862 L94.4697,155.8862 L93.7227,158.9492 L91.2739,158.9492 Z "/><text fill="#000000" font-family="sans-serif" font-size="12" font-style="italic" lengthAdjust="spacingAndGlyphs" textLength="74" x="110" y="157.7344">ForkJoinTask</text><rect fill="#FFFFFF" height="16.1328" style="stroke: #000000; stroke-width: 1.0; stroke-dasharray: 2.0,2.0;" width="10" x="192" y="134.1992"/><text fill="#000000" font-family="sans-serif" font-size="12" font-style="italic" lengthAdjust="spacingAndGlyphs" textLength="8" x="193" y="146.8008">V</text><line style="stroke: #A80036; stroke-width: 1.5;" x1="82" x2="198" y1="169.1992" y2="169.1992"/><line style="stroke: #A80036; stroke-width: 1.5;" x1="82" x2="198" y1="177.1992" y2="177.1992"/><!--MD5=[cc3de0a176daa3c4ec875deafdf5ddd1]
class Serializable--><rect fill="#FEFECE" filter="url(#fdcjsee7rdvjm)" height="48" id="Serializable" style="stroke: #A80036; stroke-width: 1.5;" width="98" x="186" y="29.1992"/><ellipse cx="201" cy="45.1992" fill="#B4A7E5" rx="11" ry="11" style="stroke: #A80036; stroke-width: 1.0;"/><path d="M197.4277,41.4644 L197.4277,39.3062 L204.8071,39.3062 L204.8071,41.4644 L202.3418,41.4644 L202.3418,49.541 L204.8071,49.541 L204.8071,51.6992 L197.4277,51.6992 L197.4277,49.541 L199.8931,49.541 L199.8931,41.4644 Z "/><text fill="#000000" font-family="sans-serif" font-size="12" font-style="italic" lengthAdjust="spacingAndGlyphs" textLength="66" x="215" y="49.7344">Serializable</text><line style="stroke: #A80036; stroke-width: 1.5;" x1="187" x2="283" y1="61.1992" y2="61.1992"/><line style="stroke: #A80036; stroke-width: 1.5;" x1="187" x2="283" y1="69.1992" y2="69.1992"/><!--MD5=[40e563c6a7172937fb6a545c7365520d]
reverse link Future to ForkJoinTask--><path d="M79.9,92.4292 C93.09,107.2992 107.77,123.8492 119.32,136.8792 " fill="none" id="Future&lt;-ForkJoinTask" style="stroke: #A80036; stroke-width: 1.0; stroke-dasharray: 7.0,7.0;"/><polygon fill="none" points="74.43,96.8092,66.4,77.1992,84.9,87.5192,74.43,96.8092" style="stroke: #A80036; stroke-width: 1.0;"/><!--MD5=[6042a18e673a5f50e92d6564c2ee7cb2]
reverse link Serializable to ForkJoinTask--><path d="M200.74,92.4292 C187.41,107.2992 172.58,123.8492 160.9,136.8792 " fill="none" id="Serializable&lt;-ForkJoinTask" style="stroke: #A80036; stroke-width: 1.0; stroke-dasharray: 7.0,7.0;"/><polygon fill="none" points="195.83,87.4192,214.39,77.1992,206.25,96.7692,195.83,87.4192" style="stroke: #A80036; stroke-width: 1.0;"/><!--MD5=[8e91eb9190dfd1c62eca3839e2a7ff50]
@startuml
skinparam nodesep 100

title <b>ForkJoinTask</b>

interface Future<V>

abstract class ForkJoinTask<V> implements Future, Serializable

@enduml

PlantUML version 1.2019.12(Sun Nov 03 18:24:54 CST 2019)
(APACHE source distribution)
Java Runtime: OpenJDK Runtime Environment
JVM: OpenJDK 64-Bit Server VM
Java Version: 11.0.6+10-LTS
Operating System: Mac OS X
Default Encoding: UTF-8
Language: en
Country: CN
--></g></svg>