<?xml version="1.0" encoding="UTF-8" standalone="no"?>
<!DOCTYPE svg PUBLIC "-//W3C//DTD SVG 1.1//EN"
 "http://www.w3.org/Graphics/SVG/1.1/DTD/svg11.dtd">
<!-- Generated by graphviz version 2.42.3 (20191010.1750)
 -->
<!-- Title: G Pages: 1 -->
<svg width="143pt" height="188pt"
 viewBox="0.00 0.00 142.97 188.00" xmlns="http://www.w3.org/2000/svg" xmlns:xlink="http://www.w3.org/1999/xlink">
<g id="graph0" class="graph" transform="scale(1 1) rotate(0) translate(4 184)">
<title>G</title>
<polygon fill="white" stroke="transparent" points="-4,4 -4,-184 138.97,-184 138.97,4 -4,4"/>
<!-- BootClassLoader -->
<g id="node1" class="node">
<title>BootClassLoader</title>
<polygon fill="none" stroke="black" points="124.19,-180 10.78,-180 10.78,-144 124.19,-144 124.19,-180"/>
<text text-anchor="middle" x="67.49" y="-157.8" font-family="Times,serif" font-size="14.00">BootClassLoader</text>
</g>
<!-- PlatformClassLoader -->
<g id="node2" class="node">
<title>PlatformClassLoader</title>
<polygon fill="none" stroke="black" points="134.96,-108 0.01,-108 0.01,-72 134.96,-72 134.96,-108"/>
<text text-anchor="middle" x="67.49" y="-85.8" font-family="Times,serif" font-size="14.00">PlatformClassLoader</text>
</g>
<!-- BootClassLoader&#45;&gt;PlatformClassLoader -->
<g id="edge1" class="edge">
<title>BootClassLoader&#45;&gt;PlatformClassLoader</title>
<path fill="none" stroke="black" d="M67.49,-133.67C67.49,-125.05 67.49,-115.79 67.49,-108.1"/>
<polygon fill="black" stroke="black" points="63.99,-133.7 67.49,-143.7 70.99,-133.7 63.99,-133.7"/>
</g>
<!-- AppClassLoader -->
<g id="node3" class="node">
<title>AppClassLoader</title>
<polygon fill="none" stroke="black" points="122.58,-36 12.4,-36 12.4,0 122.58,0 122.58,-36"/>
<text text-anchor="middle" x="67.49" y="-13.8" font-family="Times,serif" font-size="14.00">AppClassLoader</text>
</g>
<!-- PlatformClassLoader&#45;&gt;AppClassLoader -->
<g id="edge2" class="edge">
<title>PlatformClassLoader&#45;&gt;AppClassLoader</title>
<path fill="none" stroke="black" d="M67.49,-61.67C67.49,-53.05 67.49,-43.79 67.49,-36.1"/>
<polygon fill="black" stroke="black" points="63.99,-61.7 67.49,-71.7 70.99,-61.7 63.99,-61.7"/>
</g>
</g>
</svg>
