<?xml version="1.0" encoding="UTF-8" standalone="no"?><svg xmlns="http://www.w3.org/2000/svg" xmlns:xlink="http://www.w3.org/1999/xlink" contentScriptType="application/ecmascript" contentStyleType="text/css" height="499px" preserveAspectRatio="none" style="width:1002px;height:499px;" version="1.1" viewBox="0 0 1002 499" width="1002px" zoomAndPan="magnify"><defs><filter height="300%" id="f1j0zg1rsul86" width="300%" x="-1" y="-1"><feGaussianBlur result="blurOut" stdDeviation="2.0"/><feColorMatrix in="blurOut" result="blurOut2" type="matrix" values="0 0 0 0 0 0 0 0 0 0 0 0 0 0 0 0 0 0 .4 0"/><feOffset dx="4.0" dy="4.0" in="blurOut2" result="blurOut3"/><feBlend in="SourceGraphic" in2="blurOut3" mode="normal"/></filter></defs><g><!--MD5=[0d852700fdad35b7061d461d6907a324]
cluster java.io--><polygon fill="#FFFFFF" filter="url(#f1j0zg1rsul86)" points="862,305,918,305,925,327.2969,980,327.2969,980,388,862,388,862,305" style="stroke: #000000; stroke-width: 1.5;"/><line style="stroke: #000000; stroke-width: 1.5;" x1="862" x2="925" y1="327.2969" y2="327.2969"/><text fill="#000000" font-family="sans-serif" font-size="14" font-weight="bold" lengthAdjust="spacingAndGlyphs" textLength="50" x="866" y="319.9951">java.io</text><!--MD5=[5a5af9b0547913863cbe0ddf55a9ab5e]
class java.io.Serializable--><rect fill="#FEFECE" filter="url(#f1j0zg1rsul86)" height="48" id="java.io.Serializable" style="stroke: #A80036; stroke-width: 1.5;" width="102" x="870" y="332"/><ellipse cx="885" cy="348" fill="#B4A7E5" rx="11" ry="11" style="stroke: #A80036; stroke-width: 1.0;"/><path d="M880.9219,343.7656 L880.9219,341.6094 L888.3125,341.6094 L888.3125,343.7656 L885.8438,343.7656 L885.8438,351.8438 L888.3125,351.8438 L888.3125,354 L880.9219,354 L880.9219,351.8438 L883.3906,351.8438 L883.3906,343.7656 L880.9219,343.7656 Z "/><text fill="#000000" font-family="sans-serif" font-size="12" font-style="italic" lengthAdjust="spacingAndGlyphs" textLength="70" x="899" y="352.1543">Serializable</text><line style="stroke: #A80036; stroke-width: 1.5;" x1="871" x2="971" y1="364" y2="364"/><line style="stroke: #A80036; stroke-width: 1.5;" x1="871" x2="971" y1="372" y2="372"/><!--MD5=[47de47a8b5f06cbc5e036fae0a9149b7]
class Iterable--><rect fill="#FEFECE" filter="url(#f1j0zg1rsul86)" height="48" id="Iterable" style="stroke: #A80036; stroke-width: 1.5;" width="92" x="145" y="8"/><ellipse cx="160" cy="24" fill="#B4A7E5" rx="11" ry="11" style="stroke: #A80036; stroke-width: 1.0;"/><path d="M155.9219,19.7656 L155.9219,17.6094 L163.3125,17.6094 L163.3125,19.7656 L160.8438,19.7656 L160.8438,27.8438 L163.3125,27.8438 L163.3125,30 L155.9219,30 L155.9219,27.8438 L158.3906,27.8438 L158.3906,19.7656 L155.9219,19.7656 Z "/><text fill="#000000" font-family="sans-serif" font-size="12" font-style="italic" lengthAdjust="spacingAndGlyphs" textLength="48" x="174" y="28.1543">Iterable</text><rect fill="#FFFFFF" height="15.9688" style="stroke: #000000; stroke-width: 1.0; stroke-dasharray: 2.0,2.0;" width="10" x="230" y="5"/><text fill="#000000" font-family="sans-serif" font-size="12" font-style="italic" lengthAdjust="spacingAndGlyphs" textLength="8" x="231" y="17.1387">E</text><line style="stroke: #A80036; stroke-width: 1.5;" x1="146" x2="236" y1="40" y2="40"/><line style="stroke: #A80036; stroke-width: 1.5;" x1="146" x2="236" y1="48" y2="48"/><!--MD5=[c160724f8e3bb89ca8141a12554ac2e3]
class Collection--><rect fill="#FEFECE" filter="url(#f1j0zg1rsul86)" height="48" id="Collection" style="stroke: #A80036; stroke-width: 1.5;" width="105" x="138.5" y="116"/><ellipse cx="153.5" cy="132" fill="#B4A7E5" rx="11" ry="11" style="stroke: #A80036; stroke-width: 1.0;"/><path d="M149.4219,127.7656 L149.4219,125.6094 L156.8125,125.6094 L156.8125,127.7656 L154.3438,127.7656 L154.3438,135.8438 L156.8125,135.8438 L156.8125,138 L149.4219,138 L149.4219,135.8438 L151.8906,135.8438 L151.8906,127.7656 L149.4219,127.7656 Z "/><text fill="#000000" font-family="sans-serif" font-size="12" font-style="italic" lengthAdjust="spacingAndGlyphs" textLength="61" x="167.5" y="136.1543">Collection</text><rect fill="#FFFFFF" height="15.9688" style="stroke: #000000; stroke-width: 1.0; stroke-dasharray: 2.0,2.0;" width="10" x="236.5" y="113"/><text fill="#000000" font-family="sans-serif" font-size="12" font-style="italic" lengthAdjust="spacingAndGlyphs" textLength="8" x="237.5" y="125.1387">E</text><line style="stroke: #A80036; stroke-width: 1.5;" x1="139.5" x2="242.5" y1="148" y2="148"/><line style="stroke: #A80036; stroke-width: 1.5;" x1="139.5" x2="242.5" y1="156" y2="156"/><!--MD5=[8e34b16d8d8f96f4a11290cd523ed859]
class AbstractCollection--><rect fill="#FEFECE" filter="url(#f1j0zg1rsul86)" height="48" id="AbstractCollection" style="stroke: #A80036; stroke-width: 1.5;" width="158" x="6" y="224"/><ellipse cx="21" cy="240" fill="#A9DCDF" rx="11" ry="11" style="stroke: #A80036; stroke-width: 1.0;"/><path d="M21.1094,235.3438 L19.9531,240.4219 L22.2813,240.4219 L21.1094,235.3438 Z M19.625,233.1094 L22.6094,233.1094 L25.9688,245.5 L23.5156,245.5 L22.75,242.4375 L19.4688,242.4375 L18.7188,245.5 L16.2813,245.5 L19.625,233.1094 Z "/><text fill="#000000" font-family="sans-serif" font-size="12" font-style="italic" lengthAdjust="spacingAndGlyphs" textLength="114" x="35" y="244.1543">AbstractCollection</text><rect fill="#FFFFFF" height="15.9688" style="stroke: #000000; stroke-width: 1.0; stroke-dasharray: 2.0,2.0;" width="10" x="157" y="221"/><text fill="#000000" font-family="sans-serif" font-size="12" font-style="italic" lengthAdjust="spacingAndGlyphs" textLength="8" x="158" y="233.1387">E</text><line style="stroke: #A80036; stroke-width: 1.5;" x1="7" x2="163" y1="256" y2="256"/><line style="stroke: #A80036; stroke-width: 1.5;" x1="7" x2="163" y1="264" y2="264"/><!--MD5=[3d4177ac58b4411586d067f34e84928f]
class List--><rect fill="#FEFECE" filter="url(#f1j0zg1rsul86)" height="48" id="List" style="stroke: #A80036; stroke-width: 1.5;" width="65" x="264.5" y="224"/><ellipse cx="279.5" cy="240" fill="#B4A7E5" rx="11" ry="11" style="stroke: #A80036; stroke-width: 1.0;"/><path d="M275.4219,235.7656 L275.4219,233.6094 L282.8125,233.6094 L282.8125,235.7656 L280.3438,235.7656 L280.3438,243.8438 L282.8125,243.8438 L282.8125,246 L275.4219,246 L275.4219,243.8438 L277.8906,243.8438 L277.8906,235.7656 L275.4219,235.7656 Z "/><text fill="#000000" font-family="sans-serif" font-size="12" font-style="italic" lengthAdjust="spacingAndGlyphs" textLength="21" x="293.5" y="244.1543">List</text><rect fill="#FFFFFF" height="15.9688" style="stroke: #000000; stroke-width: 1.0; stroke-dasharray: 2.0,2.0;" width="10" x="322.5" y="221"/><text fill="#000000" font-family="sans-serif" font-size="12" font-style="italic" lengthAdjust="spacingAndGlyphs" textLength="8" x="323.5" y="233.1387">E</text><line style="stroke: #A80036; stroke-width: 1.5;" x1="265.5" x2="328.5" y1="256" y2="256"/><line style="stroke: #A80036; stroke-width: 1.5;" x1="265.5" x2="328.5" y1="264" y2="264"/><!--MD5=[b4fa10df80476353258f72a232547d63]
class AbstractList--><rect fill="#FEFECE" filter="url(#f1j0zg1rsul86)" height="48" id="AbstractList" style="stroke: #A80036; stroke-width: 1.5;" width="118" x="28" y="332"/><ellipse cx="43" cy="348" fill="#A9DCDF" rx="11" ry="11" style="stroke: #A80036; stroke-width: 1.0;"/><path d="M43.1094,343.3438 L41.9531,348.4219 L44.2813,348.4219 L43.1094,343.3438 Z M41.625,341.1094 L44.6094,341.1094 L47.9688,353.5 L45.5156,353.5 L44.75,350.4375 L41.4688,350.4375 L40.7188,353.5 L38.2813,353.5 L41.625,341.1094 Z "/><text fill="#000000" font-family="sans-serif" font-size="12" font-style="italic" lengthAdjust="spacingAndGlyphs" textLength="74" x="57" y="352.1543">AbstractList</text><rect fill="#FFFFFF" height="15.9688" style="stroke: #000000; stroke-width: 1.0; stroke-dasharray: 2.0,2.0;" width="10" x="139" y="329"/><text fill="#000000" font-family="sans-serif" font-size="12" font-style="italic" lengthAdjust="spacingAndGlyphs" textLength="8" x="140" y="341.1387">E</text><line style="stroke: #A80036; stroke-width: 1.5;" x1="29" x2="145" y1="364" y2="364"/><line style="stroke: #A80036; stroke-width: 1.5;" x1="29" x2="145" y1="372" y2="372"/><!--MD5=[ab8871ed637f40707b866ba6597734bc]
class ArrayList--><rect fill="#FEFECE" filter="url(#f1j0zg1rsul86)" height="48" id="ArrayList" style="stroke: #A80036; stroke-width: 1.5;" width="97" x="463.5" y="440"/><ellipse cx="478.5" cy="456" fill="#ADD1B2" rx="11" ry="11" style="stroke: #A80036; stroke-width: 1.0;"/><path d="M481.4688,461.6406 Q480.8906,461.9375 480.25,462.0781 Q479.6094,462.2344 478.9063,462.2344 Q476.4063,462.2344 475.0781,460.5938 Q473.7656,458.9375 473.7656,455.8125 Q473.7656,452.6875 475.0781,451.0313 Q476.4063,449.375 478.9063,449.375 Q479.6094,449.375 480.25,449.5313 Q480.9063,449.6875 481.4688,449.9844 L481.4688,452.7031 Q480.8438,452.125 480.25,451.8594 Q479.6563,451.5781 479.0313,451.5781 Q477.6875,451.5781 477,452.6563 Q476.3125,453.7188 476.3125,455.8125 Q476.3125,457.9063 477,458.9844 Q477.6875,460.0469 479.0313,460.0469 Q479.6563,460.0469 480.25,459.7813 Q480.8438,459.5 481.4688,458.9219 L481.4688,461.6406 Z "/><text fill="#000000" font-family="sans-serif" font-size="12" lengthAdjust="spacingAndGlyphs" textLength="53" x="492.5" y="460.1543">ArrayList</text><rect fill="#FFFFFF" height="15.9688" style="stroke: #000000; stroke-width: 1.0; stroke-dasharray: 2.0,2.0;" width="10" x="553.5" y="437"/><text fill="#000000" font-family="sans-serif" font-size="12" font-style="italic" lengthAdjust="spacingAndGlyphs" textLength="8" x="554.5" y="449.1387">E</text><line style="stroke: #A80036; stroke-width: 1.5;" x1="464.5" x2="559.5" y1="472" y2="472"/><line style="stroke: #A80036; stroke-width: 1.5;" x1="464.5" x2="559.5" y1="480" y2="480"/><!--MD5=[00c6061cd689d4b62cd15f6dc66e35a4]
class RandomAccess--><rect fill="#FEFECE" filter="url(#f1j0zg1rsul86)" height="48" id="RandomAccess" style="stroke: #A80036; stroke-width: 1.5;" width="127" x="448.5" y="332"/><ellipse cx="463.5" cy="348" fill="#B4A7E5" rx="11" ry="11" style="stroke: #A80036; stroke-width: 1.0;"/><path d="M459.4219,343.7656 L459.4219,341.6094 L466.8125,341.6094 L466.8125,343.7656 L464.3438,343.7656 L464.3438,351.8438 L466.8125,351.8438 L466.8125,354 L459.4219,354 L459.4219,351.8438 L461.8906,351.8438 L461.8906,343.7656 L459.4219,343.7656 Z "/><text fill="#000000" font-family="sans-serif" font-size="12" font-style="italic" lengthAdjust="spacingAndGlyphs" textLength="95" x="477.5" y="352.1543">RandomAccess</text><line style="stroke: #A80036; stroke-width: 1.5;" x1="449.5" x2="574.5" y1="364" y2="364"/><line style="stroke: #A80036; stroke-width: 1.5;" x1="449.5" x2="574.5" y1="372" y2="372"/><!--MD5=[f62eaa6c4d43571d0e4c76098fe1b59f]
class Cloneable--><rect fill="#FEFECE" filter="url(#f1j0zg1rsul86)" height="48" id="Cloneable" style="stroke: #A80036; stroke-width: 1.5;" width="94" x="676" y="332"/><ellipse cx="691" cy="348" fill="#B4A7E5" rx="11" ry="11" style="stroke: #A80036; stroke-width: 1.0;"/><path d="M686.9219,343.7656 L686.9219,341.6094 L694.3125,341.6094 L694.3125,343.7656 L691.8438,343.7656 L691.8438,351.8438 L694.3125,351.8438 L694.3125,354 L686.9219,354 L686.9219,351.8438 L689.3906,351.8438 L689.3906,343.7656 L686.9219,343.7656 Z "/><text fill="#000000" font-family="sans-serif" font-size="12" font-style="italic" lengthAdjust="spacingAndGlyphs" textLength="62" x="705" y="352.1543">Cloneable</text><line style="stroke: #A80036; stroke-width: 1.5;" x1="677" x2="769" y1="364" y2="364"/><line style="stroke: #A80036; stroke-width: 1.5;" x1="677" x2="769" y1="372" y2="372"/><!--MD5=[30609b773d1acd1d8ef4d49cf63668f8]
reverse link Iterable to Collection--><path d="M191,76.2911 C191,89.8171 191,104.1835 191,115.8436 " fill="none" id="Iterable&lt;-Collection" style="stroke: #A80036; stroke-width: 1.0;"/><polygon fill="none" points="184.0001,76.2373,191,56.2373,198.0001,76.2373,184.0001,76.2373" style="stroke: #A80036; stroke-width: 1.0;"/><!--MD5=[1822909749df1453bdd84de7a60a3406]
reverse link Collection to AbstractCollection--><path d="M153.158,178.556 C138.3364,193.6572 121.7881,210.5178 108.7091,223.8436 " fill="none" id="Collection&lt;-AbstractCollection" style="stroke: #A80036; stroke-width: 1.0; stroke-dasharray: 7.0,7.0;"/><polygon fill="none" points="148.2063,173.6077,167.2115,164.2373,158.1979,183.4143,148.2063,173.6077" style="stroke: #A80036; stroke-width: 1.0;"/><!--MD5=[0159284274f96a472eb2618ad803aaca]
reverse link Collection to List--><path d="M228.842,178.556 C243.6636,193.6572 260.2119,210.5178 273.2909,223.8436 " fill="none" id="Collection&lt;-List" style="stroke: #A80036; stroke-width: 1.0;"/><polygon fill="none" points="223.8021,183.4143,214.7885,164.2373,233.7937,173.6077,223.8021,183.4143" style="stroke: #A80036; stroke-width: 1.0;"/><!--MD5=[7a3a52e8f65ef1a8d8d29530ea5cd870]
reverse link AbstractCollection to AbstractList--><path d="M85.8202,292.2911 C86.0707,305.8171 86.3367,320.1835 86.5527,331.8436 " fill="none" id="AbstractCollection&lt;-AbstractList" style="stroke: #A80036; stroke-width: 1.0;"/><polygon fill="none" points="78.8204,292.3635,85.4488,272.2373,92.818,292.1042,78.8204,292.3635" style="stroke: #A80036; stroke-width: 1.0;"/><!--MD5=[00308d07b6a5721fb0cf5861877e6652]
reverse link List to AbstractList--><path d="M245.9528,274.2528 C211.8243,291.8046 167.2544,314.7263 133.9974,331.8299 " fill="none" id="List&lt;-AbstractList" style="stroke: #A80036; stroke-width: 1.0; stroke-dasharray: 7.0,7.0;"/><polygon fill="none" points="243.2003,267.797,264.1875,264.875,249.6032,280.247,243.2003,267.797" style="stroke: #A80036; stroke-width: 1.0;"/><!--MD5=[40e4bb1af59cca28d4643aaff05088cc]
reverse link AbstractList to ArrayList--><path d="M165.7487,376.0114 C252.882,398.1535 390.5696,433.1424 463.2859,451.6209 " fill="none" id="AbstractList&lt;-ArrayList" style="stroke: #A80036; stroke-width: 1.0;"/><polygon fill="none" points="163.7543,382.7272,146.0944,371.0169,167.2024,369.1584,163.7543,382.7272" style="stroke: #A80036; stroke-width: 1.0;"/><!--MD5=[de70471c1aeb5b441f3202b5f0dab243]
reverse link List to ArrayList--><path d="M321.2723,289.398 C339.8847,318.9859 367.4955,358.6026 398,388 C418.8957,408.1373 445.7659,426.3417 468.1706,439.8822 " fill="none" id="List&lt;-ArrayList" style="stroke: #A80036; stroke-width: 1.0; stroke-dasharray: 7.0,7.0;"/><polygon fill="none" points="315.1148,292.7464,310.6509,272.0322,327.058,285.4416,315.1148,292.7464" style="stroke: #A80036; stroke-width: 1.0;"/><!--MD5=[b3461131813fa2d81b0c8f338f9aabbe]
reverse link RandomAccess to ArrayList--><path d="M512,400.2911 C512,413.8171 512,428.1835 512,439.8436 " fill="none" id="RandomAccess&lt;-ArrayList" style="stroke: #A80036; stroke-width: 1.0; stroke-dasharray: 7.0,7.0;"/><polygon fill="none" points="505.0001,400.2373,512,380.2373,519.0001,400.2373,505.0001,400.2373" style="stroke: #A80036; stroke-width: 1.0;"/><!--MD5=[a331cb0ccba2c1e30feb8188a888e006]
reverse link Cloneable to ArrayList--><path d="M657.8599,389.3418 C625.8727,405.7144 588.0568,425.0705 558.946,439.9708 " fill="none" id="Cloneable&lt;-ArrayList" style="stroke: #A80036; stroke-width: 1.0; stroke-dasharray: 7.0,7.0;"/><polygon fill="none" points="654.9173,382.9844,675.9101,380.1029,661.2962,395.4467,654.9173,382.9844" style="stroke: #A80036; stroke-width: 1.0;"/><!--MD5=[e1bb95529590ff4a4ada5b499bc912c6]
reverse link java.io.Serializable to ArrayList--><path d="M850.5741,378.9554 C840.3488,382.1011 829.9263,385.206 820,388 C728.9451,413.6294 621.4351,439.0773 560.5337,453.0513 " fill="none" id="java.io.Serializable&lt;-ArrayList" style="stroke: #A80036; stroke-width: 1.0; stroke-dasharray: 7.0,7.0;"/><polygon fill="none" points="848.6343,372.2277,869.8125,372.927,852.8207,385.5872,848.6343,372.2277" style="stroke: #A80036; stroke-width: 1.0;"/><!--MD5=[372feb5e7c4d82a4875f1b58b32d172d]
@startuml
skinparam nodesep 100

interface Iterable<E>

interface Collection<E> extends Iterable

abstract class AbstractCollection<E> implements Collection

interface List<E>

interface List<E> extends Collection

abstract class AbstractList<E> extends AbstractCollection implements List

class ArrayList<E> extends AbstractList implements List, RandomAccess, Cloneable, java.io.Serializable

@enduml

PlantUML version 1.2020.06(Sun Apr 05 12:38:32 UTC 2020)
(APACHE source distribution)
Java Runtime: OpenJDK Runtime Environment
JVM: OpenJDK 64-Bit Server VM
Java Version: 11.0.7+10-LTS
Operating System: Linux
Default Encoding: UTF-8
Language: en
Country: null
--></g></svg>