<?xml version="1.0" encoding="UTF-8" standalone="no"?>
<!DOCTYPE svg PUBLIC "-//W3C//DTD SVG 1.1//EN"
 "http://www.w3.org/Graphics/SVG/1.1/DTD/svg11.dtd">
<!-- Generated by graphviz version 2.40.1 (20161225.0304)
 -->
<!-- Title: G Pages: 1 -->
<svg width="145pt" height="188pt"
 viewBox="0.00 0.00 145.00 188.00" xmlns="http://www.w3.org/2000/svg" xmlns:xlink="http://www.w3.org/1999/xlink">
<g id="graph0" class="graph" transform="scale(1 1) rotate(0) translate(4 184)">
<title>G</title>
<polygon fill="#ffffff" stroke="transparent" points="-4,4 -4,-184 141,-184 141,4 -4,4"/>
<!-- BootstrapClassLoader -->
<g id="node1" class="node">
<title>BootstrapClassLoader</title>
<polygon fill="none" stroke="#000000" points="137,-180 0,-180 0,-144 137,-144 137,-180"/>
<text text-anchor="middle" x="68.5" y="-158.3" font-family="Times,serif" font-size="14.00" fill="#000000">BootstrapClassLoader</text>
</g>
<!-- ExtClassLoader -->
<g id="node2" class="node">
<title>ExtClassLoader</title>
<polygon fill="none" stroke="#000000" points="120,-108 17,-108 17,-72 120,-72 120,-108"/>
<text text-anchor="middle" x="68.5" y="-86.3" font-family="Times,serif" font-size="14.00" fill="#000000">ExtClassLoader</text>
</g>
<!-- BootstrapClassLoader&#45;&gt;ExtClassLoader -->
<g id="edge1" class="edge">
<title>BootstrapClassLoader&#45;&gt;ExtClassLoader</title>
<path fill="none" stroke="#000000" d="M68.5,-133.5726C68.5,-125.1084 68.5,-116.0593 68.5,-108.4133"/>
<polygon fill="#000000" stroke="#000000" points="65.0001,-133.8313 68.5,-143.8314 72.0001,-133.8314 65.0001,-133.8313"/>
</g>
<!-- AppClassLoader -->
<g id="node3" class="node">
<title>AppClassLoader</title>
<polygon fill="none" stroke="#000000" points="122,-36 15,-36 15,0 122,0 122,-36"/>
<text text-anchor="middle" x="68.5" y="-14.3" font-family="Times,serif" font-size="14.00" fill="#000000">AppClassLoader</text>
</g>
<!-- ExtClassLoader&#45;&gt;AppClassLoader -->
<g id="edge2" class="edge">
<title>ExtClassLoader&#45;&gt;AppClassLoader</title>
<path fill="none" stroke="#000000" d="M68.5,-61.5726C68.5,-53.1084 68.5,-44.0593 68.5,-36.4133"/>
<polygon fill="#000000" stroke="#000000" points="65.0001,-61.8313 68.5,-71.8314 72.0001,-61.8314 65.0001,-61.8313"/>
</g>
</g>
</svg>
