<?xml version="1.0" encoding="UTF-8" standalone="no"?><svg xmlns="http://www.w3.org/2000/svg" xmlns:xlink="http://www.w3.org/1999/xlink" contentScriptType="application/ecmascript" contentStyleType="text/css" height="520px" preserveAspectRatio="none" style="width:508px;height:520px;" version="1.1" viewBox="0 0 508 520" width="508px" zoomAndPan="magnify"><defs><filter height="300%" id="f4kyb90fvvj0l" width="300%" x="-1" y="-1"><feGaussianBlur result="blurOut" stdDeviation="2.0"/><feColorMatrix in="blurOut" result="blurOut2" type="matrix" values="0 0 0 0 0 0 0 0 0 0 0 0 0 0 0 0 0 0 .4 0"/><feOffset dx="4.0" dy="4.0" in="blurOut2" result="blurOut3"/><feBlend in="SourceGraphic" in2="blurOut3" mode="normal"/></filter></defs><g><text fill="#000000" font-family="sans-serif" font-size="18" font-weight="bold" lengthAdjust="spacingAndGlyphs" textLength="209" x="152" y="17.4023">AbstractSequentialList</text><!--MD5=[47de47a8b5f06cbc5e036fae0a9149b7]
class Iterable--><rect fill="#FEFECE" filter="url(#f4kyb90fvvj0l)" height="48" id="Iterable" style="stroke: #A80036; stroke-width: 1.5;" width="87" x="239.5" y="29.1992"/><ellipse cx="254.5" cy="45.1992" fill="#B4A7E5" rx="11" ry="11" style="stroke: #A80036; stroke-width: 1.0;"/><path d="M250.9277,41.4644 L250.9277,39.3062 L258.3071,39.3062 L258.3071,41.4644 L255.8418,41.4644 L255.8418,49.541 L258.3071,49.541 L258.3071,51.6992 L250.9277,51.6992 L250.9277,49.541 L253.3931,49.541 L253.3931,41.4644 Z "/><text fill="#000000" font-family="sans-serif" font-size="12" font-style="italic" lengthAdjust="spacingAndGlyphs" textLength="44" x="268.5" y="49.7344">Iterable</text><rect fill="#FFFFFF" height="16.1328" style="stroke: #000000; stroke-width: 1.0; stroke-dasharray: 2.0,2.0;" width="9" x="320.5" y="26.1992"/><text fill="#000000" font-family="sans-serif" font-size="12" font-style="italic" lengthAdjust="spacingAndGlyphs" textLength="7" x="321.5" y="38.8008">E</text><line style="stroke: #A80036; stroke-width: 1.5;" x1="240.5" x2="325.5" y1="61.1992" y2="61.1992"/><line style="stroke: #A80036; stroke-width: 1.5;" x1="240.5" x2="325.5" y1="69.1992" y2="69.1992"/><!--MD5=[c160724f8e3bb89ca8141a12554ac2e3]
class Collection--><rect fill="#FEFECE" filter="url(#f4kyb90fvvj0l)" height="48" id="Collection" style="stroke: #A80036; stroke-width: 1.5;" width="98" x="234" y="137.1992"/><ellipse cx="249" cy="153.1992" fill="#B4A7E5" rx="11" ry="11" style="stroke: #A80036; stroke-width: 1.0;"/><path d="M245.4277,149.4644 L245.4277,147.3062 L252.8071,147.3062 L252.8071,149.4644 L250.3418,149.4644 L250.3418,157.541 L252.8071,157.541 L252.8071,159.6992 L245.4277,159.6992 L245.4277,157.541 L247.8931,157.541 L247.8931,149.4644 Z "/><text fill="#000000" font-family="sans-serif" font-size="12" font-style="italic" lengthAdjust="spacingAndGlyphs" textLength="55" x="263" y="157.7344">Collection</text><rect fill="#FFFFFF" height="16.1328" style="stroke: #000000; stroke-width: 1.0; stroke-dasharray: 2.0,2.0;" width="9" x="326" y="134.1992"/><text fill="#000000" font-family="sans-serif" font-size="12" font-style="italic" lengthAdjust="spacingAndGlyphs" textLength="7" x="327" y="146.8008">E</text><line style="stroke: #A80036; stroke-width: 1.5;" x1="235" x2="331" y1="169.1992" y2="169.1992"/><line style="stroke: #A80036; stroke-width: 1.5;" x1="235" x2="331" y1="177.1992" y2="177.1992"/><!--MD5=[8e34b16d8d8f96f4a11290cd523ed859]
class AbstractCollection--><rect fill="#FEFECE" filter="url(#f4kyb90fvvj0l)" height="48" id="AbstractCollection" style="stroke: #A80036; stroke-width: 1.5;" width="146" x="6" y="245.1992"/><ellipse cx="21" cy="261.1992" fill="#A9DCDF" rx="11" ry="11" style="stroke: #A80036; stroke-width: 1.0;"/><path d="M21.1133,256.7974 L19.9595,261.8691 L22.2754,261.8691 Z M19.6191,254.5562 L22.6157,254.5562 L25.9609,266.9492 L23.5122,266.9492 L22.7485,263.8862 L19.4697,263.8862 L18.7227,266.9492 L16.2739,266.9492 Z "/><text fill="#000000" font-family="sans-serif" font-size="12" font-style="italic" lengthAdjust="spacingAndGlyphs" textLength="103" x="35" y="265.7344">AbstractCollection</text><rect fill="#FFFFFF" height="16.1328" style="stroke: #000000; stroke-width: 1.0; stroke-dasharray: 2.0,2.0;" width="9" x="146" y="242.1992"/><text fill="#000000" font-family="sans-serif" font-size="12" font-style="italic" lengthAdjust="spacingAndGlyphs" textLength="7" x="147" y="254.8008">E</text><line style="stroke: #A80036; stroke-width: 1.5;" x1="7" x2="151" y1="277.1992" y2="277.1992"/><line style="stroke: #A80036; stroke-width: 1.5;" x1="7" x2="151" y1="285.1992" y2="285.1992"/><!--MD5=[3d4177ac58b4411586d067f34e84928f]
class List--><rect fill="#FEFECE" filter="url(#f4kyb90fvvj0l)" height="48" id="List" style="stroke: #A80036; stroke-width: 1.5;" width="62" x="252" y="245.1992"/><ellipse cx="267" cy="261.1992" fill="#B4A7E5" rx="11" ry="11" style="stroke: #A80036; stroke-width: 1.0;"/><path d="M263.4277,257.4644 L263.4277,255.3062 L270.8071,255.3062 L270.8071,257.4644 L268.3418,257.4644 L268.3418,265.541 L270.8071,265.541 L270.8071,267.6992 L263.4277,267.6992 L263.4277,265.541 L265.8931,265.541 L265.8931,257.4644 Z "/><text fill="#000000" font-family="sans-serif" font-size="12" font-style="italic" lengthAdjust="spacingAndGlyphs" textLength="19" x="281" y="265.7344">List</text><rect fill="#FFFFFF" height="16.1328" style="stroke: #000000; stroke-width: 1.0; stroke-dasharray: 2.0,2.0;" width="9" x="308" y="242.1992"/><text fill="#000000" font-family="sans-serif" font-size="12" font-style="italic" lengthAdjust="spacingAndGlyphs" textLength="7" x="309" y="254.8008">E</text><line style="stroke: #A80036; stroke-width: 1.5;" x1="253" x2="313" y1="277.1992" y2="277.1992"/><line style="stroke: #A80036; stroke-width: 1.5;" x1="253" x2="313" y1="285.1992" y2="285.1992"/><!--MD5=[15b0de36700cf8bf422172734e699e19]
class Queue--><rect fill="#FEFECE" filter="url(#f4kyb90fvvj0l)" height="48" id="Queue" style="stroke: #A80036; stroke-width: 1.5;" width="80" x="414" y="245.1992"/><ellipse cx="429" cy="261.1992" fill="#B4A7E5" rx="11" ry="11" style="stroke: #A80036; stroke-width: 1.0;"/><path d="M425.4277,257.4644 L425.4277,255.3062 L432.8071,255.3062 L432.8071,257.4644 L430.3418,257.4644 L430.3418,265.541 L432.8071,265.541 L432.8071,267.6992 L425.4277,267.6992 L425.4277,265.541 L427.8931,265.541 L427.8931,257.4644 Z "/><text fill="#000000" font-family="sans-serif" font-size="12" font-style="italic" lengthAdjust="spacingAndGlyphs" textLength="37" x="443" y="265.7344">Queue</text><rect fill="#FFFFFF" height="16.1328" style="stroke: #000000; stroke-width: 1.0; stroke-dasharray: 2.0,2.0;" width="9" x="488" y="242.1992"/><text fill="#000000" font-family="sans-serif" font-size="12" font-style="italic" lengthAdjust="spacingAndGlyphs" textLength="7" x="489" y="254.8008">E</text><line style="stroke: #A80036; stroke-width: 1.5;" x1="415" x2="493" y1="277.1992" y2="277.1992"/><line style="stroke: #A80036; stroke-width: 1.5;" x1="415" x2="493" y1="285.1992" y2="285.1992"/><!--MD5=[efca02d9d8d28b5361c3ca96ec018e12]
class Deque--><rect fill="#FEFECE" filter="url(#f4kyb90fvvj0l)" height="48" id="Deque" style="stroke: #A80036; stroke-width: 1.5;" width="81" x="413.5" y="353.1992"/><ellipse cx="428.5" cy="369.1992" fill="#B4A7E5" rx="11" ry="11" style="stroke: #A80036; stroke-width: 1.0;"/><path d="M424.9277,365.4644 L424.9277,363.3062 L432.3071,363.3062 L432.3071,365.4644 L429.8418,365.4644 L429.8418,373.541 L432.3071,373.541 L432.3071,375.6992 L424.9277,375.6992 L424.9277,373.541 L427.3931,373.541 L427.3931,365.4644 Z "/><text fill="#000000" font-family="sans-serif" font-size="12" font-style="italic" lengthAdjust="spacingAndGlyphs" textLength="38" x="442.5" y="373.7344">Deque</text><rect fill="#FFFFFF" height="16.1328" style="stroke: #000000; stroke-width: 1.0; stroke-dasharray: 2.0,2.0;" width="9" x="488.5" y="350.1992"/><text fill="#000000" font-family="sans-serif" font-size="12" font-style="italic" lengthAdjust="spacingAndGlyphs" textLength="7" x="489.5" y="362.8008">E</text><line style="stroke: #A80036; stroke-width: 1.5;" x1="414.5" x2="493.5" y1="385.1992" y2="385.1992"/><line style="stroke: #A80036; stroke-width: 1.5;" x1="414.5" x2="493.5" y1="393.1992" y2="393.1992"/><!--MD5=[b4fa10df80476353258f72a232547d63]
class AbstractList--><rect fill="#FEFECE" filter="url(#f4kyb90fvvj0l)" height="48" id="AbstractList" style="stroke: #A80036; stroke-width: 1.5;" width="110" x="114" y="353.1992"/><ellipse cx="129" cy="369.1992" fill="#A9DCDF" rx="11" ry="11" style="stroke: #A80036; stroke-width: 1.0;"/><path d="M129.1133,364.7974 L127.9595,369.8691 L130.2754,369.8691 Z M127.6191,362.5562 L130.6157,362.5562 L133.9609,374.9492 L131.5122,374.9492 L130.7485,371.8862 L127.4697,371.8862 L126.7227,374.9492 L124.2739,374.9492 Z "/><text fill="#000000" font-family="sans-serif" font-size="12" font-style="italic" lengthAdjust="spacingAndGlyphs" textLength="67" x="143" y="373.7344">AbstractList</text><rect fill="#FFFFFF" height="16.1328" style="stroke: #000000; stroke-width: 1.0; stroke-dasharray: 2.0,2.0;" width="9" x="218" y="350.1992"/><text fill="#000000" font-family="sans-serif" font-size="12" font-style="italic" lengthAdjust="spacingAndGlyphs" textLength="7" x="219" y="362.8008">E</text><line style="stroke: #A80036; stroke-width: 1.5;" x1="115" x2="223" y1="385.1992" y2="385.1992"/><line style="stroke: #A80036; stroke-width: 1.5;" x1="115" x2="223" y1="393.1992" y2="393.1992"/><!--MD5=[4bd4fbe69b6712a56cf15023143057aa]
class AbstractSequentialList--><rect fill="#FEFECE" filter="url(#f4kyb90fvvj0l)" height="48" id="AbstractSequentialList" style="stroke: #A80036; stroke-width: 1.5;" width="169" x="84.5" y="461.1992"/><ellipse cx="99.5" cy="477.1992" fill="#A9DCDF" rx="11" ry="11" style="stroke: #A80036; stroke-width: 1.0;"/><path d="M99.6133,472.7974 L98.4595,477.8691 L100.7754,477.8691 Z M98.1191,470.5562 L101.1157,470.5562 L104.4609,482.9492 L102.0122,482.9492 L101.2485,479.8862 L97.9697,479.8862 L97.2227,482.9492 L94.7739,482.9492 Z "/><text fill="#000000" font-family="sans-serif" font-size="12" font-style="italic" lengthAdjust="spacingAndGlyphs" textLength="126" x="113.5" y="481.7344">AbstractSequentialList</text><rect fill="#FFFFFF" height="16.1328" style="stroke: #000000; stroke-width: 1.0; stroke-dasharray: 2.0,2.0;" width="9" x="247.5" y="458.1992"/><text fill="#000000" font-family="sans-serif" font-size="12" font-style="italic" lengthAdjust="spacingAndGlyphs" textLength="7" x="248.5" y="470.8008">E</text><line style="stroke: #A80036; stroke-width: 1.5;" x1="85.5" x2="252.5" y1="493.1992" y2="493.1992"/><line style="stroke: #A80036; stroke-width: 1.5;" x1="85.5" x2="252.5" y1="501.1992" y2="501.1992"/><!--MD5=[30609b773d1acd1d8ef4d49cf63668f8]
reverse link Iterable to Collection--><path d="M283,97.2192 C283,110.7792 283,125.2392 283,136.8792 " fill="none" id="Iterable&lt;-Collection" style="stroke: #A80036; stroke-width: 1.0;"/><polygon fill="none" points="276,97.1992,283,77.1992,290,97.1992,276,97.1992" style="stroke: #A80036; stroke-width: 1.0;"/><!--MD5=[1822909749df1453bdd84de7a60a3406]
reverse link Collection to AbstractCollection--><path d="M220.59,194.6292 C189.23,210.9292 151.96,230.2892 123.53,245.0592 " fill="none" id="Collection&lt;-AbstractCollection" style="stroke: #A80036; stroke-width: 1.0; stroke-dasharray: 7.0,7.0;"/><polygon fill="none" points="217.76,188.2092,238.74,185.1992,224.22,200.6292,217.76,188.2092" style="stroke: #A80036; stroke-width: 1.0;"/><!--MD5=[0159284274f96a472eb2618ad803aaca]
reverse link Collection to List--><path d="M283,205.2192 C283,218.7792 283,233.2392 283,244.8792 " fill="none" id="Collection&lt;-List" style="stroke: #A80036; stroke-width: 1.0;"/><polygon fill="none" points="276,205.1992,283,185.1992,290,205.1992,276,205.1992" style="stroke: #A80036; stroke-width: 1.0;"/><!--MD5=[ed6173059207d719d56c0a76f1c566ad]
reverse link Collection to Queue--><path d="M337.18,195.7792 C363.07,211.8292 393.4,230.6392 416.67,245.0592 " fill="none" id="Collection&lt;-Queue" style="stroke: #A80036; stroke-width: 1.0;"/><polygon fill="none" points="333.42,201.6892,320.1,185.1992,340.79,189.7892,333.42,201.6892" style="stroke: #A80036; stroke-width: 1.0;"/><!--MD5=[486bf48800eb60e7ccf4203e83dc9376]
reverse link Queue to Deque--><path d="M454,313.2192 C454,326.7792 454,341.2392 454,352.8792 " fill="none" id="Queue&lt;-Deque" style="stroke: #A80036; stroke-width: 1.0;"/><polygon fill="none" points="447,313.1992,454,293.1992,461,313.1992,447,313.1992" style="stroke: #A80036; stroke-width: 1.0;"/><!--MD5=[7a3a52e8f65ef1a8d8d29530ea5cd870]
reverse link AbstractCollection to AbstractList--><path d="M111.86,308.8992 C124.38,323.6492 138.26,339.9892 149.2,352.8792 " fill="none" id="AbstractCollection&lt;-AbstractList" style="stroke: #A80036; stroke-width: 1.0;"/><polygon fill="none" points="106.14,312.9792,98.53,293.1992,116.81,303.9192,106.14,312.9792" style="stroke: #A80036; stroke-width: 1.0;"/><!--MD5=[00308d07b6a5721fb0cf5861877e6652]
reverse link List to AbstractList--><path d="M243.41,307.0092 C227.04,322.2392 208.54,339.4392 194.08,352.8792 " fill="none" id="List&lt;-AbstractList" style="stroke: #A80036; stroke-width: 1.0; stroke-dasharray: 7.0,7.0;"/><polygon fill="none" points="238.85,301.6892,258.26,293.1992,248.38,311.9492,238.85,301.6892" style="stroke: #A80036; stroke-width: 1.0;"/><!--MD5=[856a319f4d801013c8fadb7cc0132d69]
reverse link AbstractList to AbstractSequentialList--><path d="M169,421.2192 C169,434.7792 169,449.2392 169,460.8792 " fill="none" id="AbstractList&lt;-AbstractSequentialList" style="stroke: #A80036; stroke-width: 1.0;"/><polygon fill="none" points="162,421.1992,169,401.1992,176,421.1992,162,421.1992" style="stroke: #A80036; stroke-width: 1.0;"/><!--MD5=[33a31624c495ff86a3695e7eb038814d]
@startuml
skinparam nodesep 100

title <b>AbstractSequentialList</b>

interface Iterable<E>

interface Collection<E> extends Iterable

abstract class AbstractCollection<E> implements Collection

interface List<E> extends Collection

interface Queue<E> extends Collection

interface Deque<E> extends Queue

abstract class AbstractList<E> extends AbstractCollection implements List

abstract class AbstractSequentialList<E> extends AbstractList

@enduml

PlantUML version 1.2019.12(Sun Nov 03 18:24:54 CST 2019)
(APACHE source distribution)
Java Runtime: OpenJDK Runtime Environment
JVM: OpenJDK 64-Bit Server VM
Java Version: 11.0.6+10-LTS
Operating System: Mac OS X
Default Encoding: UTF-8
Language: en
Country: CN
--></g></svg>