<?xml version="1.0" encoding="UTF-8" standalone="no"?>
<!DOCTYPE svg PUBLIC "-//W3C//DTD SVG 1.1//EN"
 "http://www.w3.org/Graphics/SVG/1.1/DTD/svg11.dtd">
<!-- Generated by graphviz version 2.44.0 (20200408.0750)
 -->
<!-- Title: G Pages: 1 -->
<svg width="145pt" height="188pt"
 viewBox="0.00 0.00 145.00 188.00" xmlns="http://www.w3.org/2000/svg" xmlns:xlink="http://www.w3.org/1999/xlink">
<g id="graph0" class="graph" transform="scale(1 1) rotate(0) translate(4 184)">
<title>G</title>
<polygon fill="white" stroke="transparent" points="-4,4 -4,-184 141,-184 141,4 -4,4"/>
<!-- BootstrapClassLoader -->
<g id="node1" class="node">
<title>BootstrapClassLoader</title>
<polygon fill="none" stroke="black" points="137,-180 0,-180 0,-144 137,-144 137,-180"/>
<text text-anchor="middle" x="68.5" y="-158.3" font-family="Times,serif" font-size="14.00">BootstrapClassLoader</text>
</g>
<!-- ExtClassLoader -->
<g id="node2" class="node">
<title>ExtClassLoader</title>
<polygon fill="none" stroke="black" points="120,-108 17,-108 17,-72 120,-72 120,-108"/>
<text text-anchor="middle" x="68.5" y="-86.3" font-family="Times,serif" font-size="14.00">ExtClassLoader</text>
</g>
<!-- BootstrapClassLoader&#45;&gt;ExtClassLoader -->
<g id="edge1" class="edge">
<title>BootstrapClassLoader&#45;&gt;ExtClassLoader</title>
<path fill="none" stroke="black" d="M68.5,-133.67C68.5,-125.05 68.5,-115.79 68.5,-108.1"/>
<polygon fill="black" stroke="black" points="65,-133.7 68.5,-143.7 72,-133.7 65,-133.7"/>
</g>
<!-- AppClassLoader -->
<g id="node3" class="node">
<title>AppClassLoader</title>
<polygon fill="none" stroke="black" points="122,-36 15,-36 15,0 122,0 122,-36"/>
<text text-anchor="middle" x="68.5" y="-14.3" font-family="Times,serif" font-size="14.00">AppClassLoader</text>
</g>
<!-- ExtClassLoader&#45;&gt;AppClassLoader -->
<g id="edge2" class="edge">
<title>ExtClassLoader&#45;&gt;AppClassLoader</title>
<path fill="none" stroke="black" d="M68.5,-61.67C68.5,-53.05 68.5,-43.79 68.5,-36.1"/>
<polygon fill="black" stroke="black" points="65,-61.7 68.5,-71.7 72,-61.7 65,-61.7"/>
</g>
</g>
</svg>
