<?xml version="1.0" encoding="UTF-8" standalone="no"?><svg xmlns="http://www.w3.org/2000/svg" xmlns:xlink="http://www.w3.org/1999/xlink" contentScriptType="application/ecmascript" contentStyleType="text/css" height="542px" preserveAspectRatio="none" style="width:507px;height:542px;" version="1.1" viewBox="0 0 507 542" width="507px" zoomAndPan="magnify"><defs><filter height="300%" id="f1r0fx6h2pnclv" width="300%" x="-1" y="-1"><feGaussianBlur result="blurOut" stdDeviation="2.0"/><feColorMatrix in="blurOut" result="blurOut2" type="matrix" values="0 0 0 0 0 0 0 0 0 0 0 0 0 0 0 0 0 0 .4 0"/><feOffset dx="4.0" dy="4.0" in="blurOut2" result="blurOut3"/><feBlend in="SourceGraphic" in2="blurOut3" mode="normal"/></filter></defs><g><text fill="#000000" font-family="Hiragino Sans GB" font-size="18" font-weight="bold" lengthAdjust="spacingAndGlyphs" textLength="90" x="211.5" y="24.84">迭代器模式</text><!--MD5=[023ecf6702e3ca2ce47ae747eafb20f1]
class Iterator--><rect fill="#FEFECE" filter="url(#f1r0fx6h2pnclv)" height="114" id="Iterator" style="stroke: #A80036; stroke-width: 1.5;" width="139" x="304.5" y="164"/><ellipse cx="347.4" cy="180" fill="#A9DCDF" rx="11" ry="11" style="stroke: #A80036; stroke-width: 1.0;"/><path d="M347.5133,175.5981 L346.3595,180.6699 L348.6754,180.6699 Z M346.0191,173.3569 L349.0157,173.3569 L352.3609,185.75 L349.9122,185.75 L349.1485,182.687 L345.8697,182.687 L345.1227,185.75 L342.6739,185.75 Z "/><text fill="#000000" font-family="Hiragino Sans GB" font-size="12" font-style="italic" lengthAdjust="spacingAndGlyphs" textLength="45" x="367.6" y="187.56">Iterator</text><line style="stroke: #A80036; stroke-width: 1.5;" x1="305.5" x2="442.5" y1="196" y2="196"/><line style="stroke: #A80036; stroke-width: 1.5;" x1="305.5" x2="442.5" y1="204" y2="204"/><ellipse cx="315.5" cy="215" fill="#84BE84" rx="3" ry="3" style="stroke: #038048; stroke-width: 1.0;"/><text fill="#000000" font-family="Hiragino Sans GB" font-size="11" font-style="italic" lengthAdjust="spacingAndGlyphs" textLength="73" x="324.5" y="223.18">first() :Object</text><ellipse cx="315.5" cy="231.5" fill="#84BE84" rx="3" ry="3" style="stroke: #038048; stroke-width: 1.0;"/><text fill="#000000" font-family="Hiragino Sans GB" font-size="11" font-style="italic" lengthAdjust="spacingAndGlyphs" textLength="73" x="324.5" y="239.68">next() :Object</text><ellipse cx="315.5" cy="248" fill="#84BE84" rx="3" ry="3" style="stroke: #038048; stroke-width: 1.0;"/><text fill="#000000" font-family="Hiragino Sans GB" font-size="11" font-style="italic" lengthAdjust="spacingAndGlyphs" textLength="95" x="324.5" y="256.18">isDone() :boolean</text><ellipse cx="315.5" cy="264.5" fill="#84BE84" rx="3" ry="3" style="stroke: #038048; stroke-width: 1.0;"/><text fill="#000000" font-family="Hiragino Sans GB" font-size="11" font-style="italic" lengthAdjust="spacingAndGlyphs" textLength="113" x="324.5" y="272.68">currentItem() :Object</text><path d="M253,35 L253,103.5 A0,0 0 0 0 253,103.5 L370,103.5 L374,163.97 L378,103.5 L495,103.5 A0,0 0 0 0 495,103.5 L495,45 L485,35 L253,35 A0,0 0 0 0 253,35 " fill="#FBFB77" filter="url(#f1r0fx6h2pnclv)" style="stroke: #A80036; stroke-width: 1.0;"/><path d="M485,35 L485,45 L495,45 L485,35 " fill="#FBFB77" style="stroke: #A80036; stroke-width: 1.0;"/><text fill="#000000" font-family="Hiragino Sans GB" font-size="13" lengthAdjust="spacingAndGlyphs" textLength="221" x="259" y="57.94">迭代抽象类，用于定义得到开始对象、</text><text fill="#000000" font-family="Hiragino Sans GB" font-size="13" lengthAdjust="spacingAndGlyphs" textLength="208" x="259" y="77.44">得到下一个对象、判断是否到结尾、</text><text fill="#000000" font-family="Hiragino Sans GB" font-size="13" lengthAdjust="spacingAndGlyphs" textLength="195" x="259" y="96.94">当前对象等抽象方法，统一接口。</text><!--MD5=[4a3c11898c703d44c2eccf691605a75f]
class ConcreteIterator--><rect fill="#FEFECE" filter="url(#f1r0fx6h2pnclv)" height="48" id="ConcreteIterator" style="stroke: #A80036; stroke-width: 1.5;" width="132" x="271" y="346"/><ellipse cx="286" cy="362" fill="#ADD1B2" rx="11" ry="11" style="stroke: #A80036; stroke-width: 1.0;"/><path d="M288.4731,368.1431 Q287.8921,368.4419 287.2529,368.5913 Q286.6138,368.7407 285.9082,368.7407 Q283.4014,368.7407 282.0815,367.0889 Q280.7617,365.437 280.7617,362.3159 Q280.7617,359.1865 282.0815,357.5347 Q283.4014,355.8828 285.9082,355.8828 Q286.6138,355.8828 287.2612,356.0322 Q287.9087,356.1816 288.4731,356.4805 L288.4731,359.2031 Q287.8423,358.6221 287.2488,358.3523 Q286.6553,358.0825 286.0244,358.0825 Q284.6797,358.0825 283.9949,359.1492 Q283.3101,360.2158 283.3101,362.3159 Q283.3101,364.4077 283.9949,365.4744 Q284.6797,366.541 286.0244,366.541 Q286.6553,366.541 287.2488,366.2712 Q287.8423,366.0015 288.4731,365.4204 Z "/><text fill="#000000" font-family="Hiragino Sans GB" font-size="12" lengthAdjust="spacingAndGlyphs" textLength="100" x="300" y="369.56">ConcreteIterator</text><line style="stroke: #A80036; stroke-width: 1.5;" x1="272" x2="402" y1="378" y2="378"/><line style="stroke: #A80036; stroke-width: 1.5;" x1="272" x2="402" y1="386" y2="386"/><path d="M251.5,462 L251.5,530.5 A0,0 0 0 0 251.5,530.5 L454.5,530.5 A0,0 0 0 0 454.5,530.5 L454.5,472 L444.5,462 L352.66,462 L339.97,394.13 L344.66,462 L251.5,462 A0,0 0 0 0 251.5,462 " fill="#FBFB77" filter="url(#f1r0fx6h2pnclv)" style="stroke: #A80036; stroke-width: 1.0;"/><path d="M444.5,462 L444.5,472 L454.5,472 L444.5,462 " fill="#FBFB77" style="stroke: #A80036; stroke-width: 1.0;"/><text fill="#000000" font-family="Hiragino Sans GB" font-size="13" lengthAdjust="spacingAndGlyphs" textLength="182" x="257.5" y="484.94">具体迭代器类，继承 Iterator，</text><text fill="#000000" font-family="Hiragino Sans GB" font-size="13" lengthAdjust="spacingAndGlyphs" textLength="182" x="257.5" y="504.44">实现开始、下一个、是否结尾、</text><text fill="#000000" font-family="Hiragino Sans GB" font-size="13" lengthAdjust="spacingAndGlyphs" textLength="104" x="257.5" y="523.94">当前对象等方法。</text><!--MD5=[914cdf822bf80e984e8ac3bf93b406a5]
class Aggregate--><rect fill="#FEFECE" filter="url(#f1r0fx6h2pnclv)" height="64.5" id="Aggregate" style="stroke: #A80036; stroke-width: 1.5;" width="154" x="14" y="189"/><ellipse cx="55.1" cy="205" fill="#A9DCDF" rx="11" ry="11" style="stroke: #A80036; stroke-width: 1.0;"/><path d="M55.2133,200.5981 L54.0595,205.6699 L56.3754,205.6699 Z M53.7191,198.3569 L56.7157,198.3569 L60.0609,210.75 L57.6122,210.75 L56.8485,207.687 L53.5697,207.687 L52.8227,210.75 L50.3739,210.75 Z "/><text fill="#000000" font-family="Hiragino Sans GB" font-size="12" font-style="italic" lengthAdjust="spacingAndGlyphs" textLength="64" x="74.9" y="212.56">Aggregate</text><line style="stroke: #A80036; stroke-width: 1.5;" x1="15" x2="167" y1="221" y2="221"/><line style="stroke: #A80036; stroke-width: 1.5;" x1="15" x2="167" y1="229" y2="229"/><ellipse cx="25" cy="240" fill="#84BE84" rx="3" ry="3" style="stroke: #038048; stroke-width: 1.0;"/><text fill="#000000" font-family="Hiragino Sans GB" font-size="11" font-style="italic" lengthAdjust="spacingAndGlyphs" textLength="128" x="34" y="248.18">createIterator() :Iterator</text><path d="M48,55 L48,84.5 A0,0 0 0 0 48,84.5 L87,84.5 L91,188.78 L95,84.5 L134,84.5 A0,0 0 0 0 134,84.5 L134,65 L124,55 L48,55 A0,0 0 0 0 48,55 " fill="#FBFB77" filter="url(#f1r0fx6h2pnclv)" style="stroke: #A80036; stroke-width: 1.0;"/><path d="M124,55 L124,65 L134,65 L124,55 " fill="#FBFB77" style="stroke: #A80036; stroke-width: 1.0;"/><text fill="#000000" font-family="Hiragino Sans GB" font-size="13" lengthAdjust="spacingAndGlyphs" textLength="65" x="54" y="77.94">聚集抽象类</text><!--MD5=[ac192e3b58a2163e38488214a7837886]
class ConcreteAggregate--><rect fill="#FEFECE" filter="url(#f1r0fx6h2pnclv)" height="64.5" id="ConcreteAggregate" style="stroke: #A80036; stroke-width: 1.5;" width="154" x="66" y="338"/><ellipse cx="82.35" cy="354" fill="#ADD1B2" rx="11" ry="11" style="stroke: #A80036; stroke-width: 1.0;"/><path d="M84.8231,360.1431 Q84.2421,360.4419 83.6029,360.5913 Q82.9638,360.7407 82.2582,360.7407 Q79.7514,360.7407 78.4315,359.0889 Q77.1117,357.437 77.1117,354.3159 Q77.1117,351.1865 78.4315,349.5347 Q79.7514,347.8828 82.2582,347.8828 Q82.9638,347.8828 83.6112,348.0322 Q84.2587,348.1816 84.8231,348.4805 L84.8231,351.2031 Q84.1923,350.6221 83.5988,350.3523 Q83.0053,350.0825 82.3744,350.0825 Q81.0297,350.0825 80.3449,351.1492 Q79.6601,352.2158 79.6601,354.3159 Q79.6601,356.4077 80.3449,357.4744 Q81.0297,358.541 82.3744,358.541 Q83.0053,358.541 83.5988,358.2712 Q84.1923,358.0015 84.8231,357.4204 Z "/><text fill="#000000" font-family="Hiragino Sans GB" font-size="12" lengthAdjust="spacingAndGlyphs" textLength="119" x="96.65" y="361.56">ConcreteAggregate</text><line style="stroke: #A80036; stroke-width: 1.5;" x1="67" x2="219" y1="370" y2="370"/><line style="stroke: #A80036; stroke-width: 1.5;" x1="67" x2="219" y1="378" y2="378"/><ellipse cx="77" cy="389" fill="#84BE84" rx="3" ry="3" style="stroke: #038048; stroke-width: 1.0;"/><text fill="#000000" font-family="Hiragino Sans GB" font-size="11" lengthAdjust="spacingAndGlyphs" textLength="128" x="86" y="397.18">createIterator() :Iterator</text><path d="M6,482 L6,511.5 A0,0 0 0 0 6,511.5 L216,511.5 A0,0 0 0 0 216,511.5 L216,492 L206,482 L118.49,482 L135.01,402.1 L110.49,482 L6,482 A0,0 0 0 0 6,482 " fill="#FBFB77" filter="url(#f1r0fx6h2pnclv)" style="stroke: #A80036; stroke-width: 1.0;"/><path d="M206,482 L206,492 L216,492 L206,482 " fill="#FBFB77" style="stroke: #A80036; stroke-width: 1.0;"/><text fill="#000000" font-family="Hiragino Sans GB" font-size="13" lengthAdjust="spacingAndGlyphs" textLength="189" x="12" y="504.94">具体聚集类，继承 Aggregate。</text><!--MD5=[ed6624c6556d5e7b1bd23032162d20b7]
class Client--><rect fill="#FEFECE" filter="url(#f1r0fx6h2pnclv)" height="48" id="Client" style="stroke: #A80036; stroke-width: 1.5;" width="66" x="203" y="197"/><ellipse cx="218" cy="213" fill="#ADD1B2" rx="11" ry="11" style="stroke: #A80036; stroke-width: 1.0;"/><path d="M220.4731,219.1431 Q219.8921,219.4419 219.2529,219.5913 Q218.6138,219.7407 217.9082,219.7407 Q215.4014,219.7407 214.0815,218.0889 Q212.7617,216.437 212.7617,213.3159 Q212.7617,210.1865 214.0815,208.5347 Q215.4014,206.8828 217.9082,206.8828 Q218.6138,206.8828 219.2612,207.0322 Q219.9087,207.1816 220.4731,207.4805 L220.4731,210.2031 Q219.8423,209.6221 219.2488,209.3523 Q218.6553,209.0825 218.0244,209.0825 Q216.6797,209.0825 215.9949,210.1492 Q215.3101,211.2158 215.3101,213.3159 Q215.3101,215.4077 215.9949,216.4744 Q216.6797,217.541 218.0244,217.541 Q218.6553,217.541 219.2488,217.2712 Q219.8423,217.0015 220.4731,216.4204 Z "/><text fill="#000000" font-family="Hiragino Sans GB" font-size="12" lengthAdjust="spacingAndGlyphs" textLength="34" x="232" y="220.56">Client</text><line style="stroke: #A80036; stroke-width: 1.5;" x1="204" x2="268" y1="229" y2="229"/><line style="stroke: #A80036; stroke-width: 1.5;" x1="204" x2="268" y1="237" y2="237"/><!--MD5=[f9e9bc89fcdaa8287cda7eef935519d4]
reverse link Aggregate to Client--><path d="M173.19,221 C183.07,221 192.94,221 202.81,221 " fill="none" id="Aggregate&lt;-Client" style="stroke: #A80036; stroke-width: 1.0;"/><polygon fill="#A80036" points="168.03,221,177.03,225,173.03,221,177.03,217,168.03,221" style="stroke: #A80036; stroke-width: 1.0;"/><!--MD5=[cdf31114c0a9b73670b48f28c83c0040]
link Client to Iterator--><path d="M269.15,221 C279.15,221 289.15,221 299.15,221 " fill="none" id="Client-&gt;Iterator" style="stroke: #A80036; stroke-width: 1.0;"/><polygon fill="#A80036" points="304.37,221,295.37,217,299.37,221,295.37,225,304.37,221" style="stroke: #A80036; stroke-width: 1.0;"/><!--MD5=[ec16dd3faf36faf8d04f37a830811fa9]
reverse link Aggregate to ConcreteAggregate--><path d="M108.72,272.09 C116.43,293.9 125.23,318.78 131.99,337.87 " fill="none" id="Aggregate&lt;-ConcreteAggregate" style="stroke: #A80036; stroke-width: 1.0;"/><polygon fill="none" points="102.1,274.36,102.03,253.17,115.3,269.7,102.1,274.36" style="stroke: #A80036; stroke-width: 1.0;"/><!--MD5=[08005fad78b25d943eac0df10e57518e]
reverse link Iterator to ConcreteIterator--><path d="M354.87,298.02 C350.47,315.49 346.12,332.78 342.81,345.92 " fill="none" id="Iterator&lt;-ConcreteIterator" style="stroke: #A80036; stroke-width: 1.0;"/><polygon fill="none" points="348.13,296.1,359.8,278.41,361.71,299.52,348.13,296.1" style="stroke: #A80036; stroke-width: 1.0;"/><!--MD5=[feece2d813ea6ddae5310c14a8b615a5]
reverse link ConcreteAggregate to ConcreteIterator--><path d="M225.44,393.46 C240.59,394.58 255.74,393.95 270.9,391.56 " fill="none" id="ConcreteAggregate&lt;-ConcreteIterator" style="stroke: #A80036; stroke-width: 1.0;"/><polygon fill="#A80036" points="220.3,393.01,228.9244,397.7661,225.2816,393.4382,229.6095,389.7955,220.3,393.01" style="stroke: #A80036; stroke-width: 1.0;"/><!--MD5=[05bd2ee9c10b4d0aa9a6dce376bdb9fc]
reverse link ConcreteIterator to ConcreteAggregate--><path d="M265.76,347.69 C250.61,345.7 235.45,345.47 220.3,346.99 " fill="none" id="ConcreteIterator&lt;-ConcreteAggregate" style="stroke: #A80036; stroke-width: 1.0; stroke-dasharray: 7.0,7.0;"/><polygon fill="#A80036" points="270.9,348.44,262.5646,343.1939,265.9514,347.7249,261.4204,351.1117,270.9,348.44" style="stroke: #A80036; stroke-width: 1.0;"/><!--MD5=[ead56052923e8605e01f75181d2b01b1]
@startuml
skinparam defaultFontName Hiragino Sans GB

title <b>迭代器模式</b>

abstract class Iterator {
+ {abstract} first() :Object
+ {abstract} next() :Object
+ {abstract} isDone() :boolean
+ {abstract} currentItem() :Object
}
note top: 迭代抽象类，用于定义得到开始对象、\n得到下一个对象、判断是否到结尾、\n当前对象等抽象方法，统一接口。

class ConcreteIterator {
}
note bottom: 具体迭代器类，继承 Iterator，\n实现开始、下一个、是否结尾、\n当前对象等方法。

abstract class Aggregate {
+ {abstract} createIterator() :Iterator
}
note top: 聚集抽象类

class ConcreteAggregate {
+ createIterator() :Iterator
}
note bottom: 具体聚集类，继承 Aggregate。

class Client {
}

Client -left-> Aggregate
Client -right-> Iterator

Aggregate <|- - ConcreteAggregate
Iterator <|- - ConcreteIterator

ConcreteIterator -left-> ConcreteAggregate
ConcreteIterator <.. ConcreteAggregate

@enduml

PlantUML version 1.2019.12(Sun Nov 03 18:24:54 CST 2019)
(APACHE source distribution)
Java Runtime: OpenJDK Runtime Environment
JVM: OpenJDK 64-Bit Server VM
Java Version: 11.0.6+10-LTS
Operating System: Mac OS X
Default Encoding: UTF-8
Language: en
Country: CN
--></g></svg>