<?xml version="1.0" encoding="UTF-8" standalone="no"?><svg xmlns="http://www.w3.org/2000/svg" xmlns:xlink="http://www.w3.org/1999/xlink" contentScriptType="application/ecmascript" contentStyleType="text/css" height="380px" preserveAspectRatio="none" style="width:626px;height:380px;" version="1.1" viewBox="0 0 626 380" width="626px" zoomAndPan="magnify"><defs><filter height="300%" id="fvq5ajqyuvqyy" width="300%" x="-1" y="-1"><feGaussianBlur result="blurOut" stdDeviation="2.0"/><feColorMatrix in="blurOut" result="blurOut2" type="matrix" values="0 0 0 0 0 0 0 0 0 0 0 0 0 0 0 0 0 0 .4 0"/><feOffset dx="4.0" dy="4.0" in="blurOut2" result="blurOut3"/><feBlend in="SourceGraphic" in2="blurOut3" mode="normal"/></filter></defs><g><text fill="#000000" font-family="Hiragino Sans GB" font-size="18" font-weight="bold" lengthAdjust="spacingAndGlyphs" textLength="108" x="262" y="16.708">工厂方法模式</text><!--MD5=[72136138052d025cffdce3c22fbd185f]
class Product--><rect fill="#FEFECE" filter="url(#fvq5ajqyuvqyy)" height="48" id="Product" style="stroke: #A80036; stroke-width: 1.5;" width="81" x="456.5" y="120.4531"/><ellipse cx="471.5" cy="136.4531" fill="#A9DCDF" rx="11" ry="11" style="stroke: #A80036; stroke-width: 1.0;"/><path d="M471.6094,131.7969 L470.4531,136.875 L472.7813,136.875 L471.6094,131.7969 Z M470.125,129.5625 L473.1094,129.5625 L476.4688,141.9531 L474.0156,141.9531 L473.25,138.8906 L469.9688,138.8906 L469.2188,141.9531 L466.7813,141.9531 L470.125,129.5625 Z "/><text fill="#000000" font-family="Hiragino Sans GB" font-size="12" font-style="italic" lengthAdjust="spacingAndGlyphs" textLength="49" x="485.5" y="140.6074">Product</text><line style="stroke: #A80036; stroke-width: 1.5;" x1="457.5" x2="536.5" y1="152.4531" y2="152.4531"/><line style="stroke: #A80036; stroke-width: 1.5;" x1="457.5" x2="536.5" y1="160.4531" y2="160.4531"/><path d="M383.5,28.9531 L383.5,54.0859 A0,0 0 0 0 383.5,54.0859 L493.8774,54.0859 L497.2343,120.3204 L501.8774,54.0859 L612.5,54.0859 A0,0 0 0 0 612.5,54.0859 L612.5,38.9531 L602.5,28.9531 L383.5,28.9531 A0,0 0 0 0 383.5,28.9531 " fill="#FBFB77" filter="url(#fvq5ajqyuvqyy)" style="stroke: #A80036; stroke-width: 1.0;"/><path d="M602.5,28.9531 L602.5,38.9531 L612.5,38.9531 L602.5,28.9531 " fill="#FBFB77" style="stroke: #A80036; stroke-width: 1.0;"/><text fill="#000000" font-family="Hiragino Sans GB" font-size="13" lengthAdjust="spacingAndGlyphs" textLength="208" x="389.5" y="46.02">定义工厂方法所创建的对象的接口。</text><!--MD5=[990132e04f994323e3060f5453bb4352]
class ConcreteProduct--><rect fill="#FEFECE" filter="url(#fvq5ajqyuvqyy)" height="48" id="ConcreteProduct" style="stroke: #A80036; stroke-width: 1.5;" width="138" x="428" y="234.9531"/><ellipse cx="443" cy="250.9531" fill="#ADD1B2" rx="11" ry="11" style="stroke: #A80036; stroke-width: 1.0;"/><path d="M445.9688,256.5938 Q445.3906,256.8906 444.75,257.0313 Q444.1094,257.1875 443.4063,257.1875 Q440.9063,257.1875 439.5781,255.5469 Q438.2656,253.8906 438.2656,250.7656 Q438.2656,247.6406 439.5781,245.9844 Q440.9063,244.3281 443.4063,244.3281 Q444.1094,244.3281 444.75,244.4844 Q445.4063,244.6406 445.9688,244.9375 L445.9688,247.6563 Q445.3438,247.0781 444.75,246.8125 Q444.1563,246.5313 443.5313,246.5313 Q442.1875,246.5313 441.5,247.6094 Q440.8125,248.6719 440.8125,250.7656 Q440.8125,252.8594 441.5,253.9375 Q442.1875,255 443.5313,255 Q444.1563,255 444.75,254.7344 Q445.3438,254.4531 445.9688,253.875 L445.9688,256.5938 Z "/><text fill="#000000" font-family="Hiragino Sans GB" font-size="12" lengthAdjust="spacingAndGlyphs" textLength="106" x="457" y="255.1074">ConcreteProduct</text><line style="stroke: #A80036; stroke-width: 1.5;" x1="429" x2="565" y1="266.9531" y2="266.9531"/><line style="stroke: #A80036; stroke-width: 1.5;" x1="429" x2="565" y1="274.9531" y2="274.9531"/><path d="M380,342.9531 L380,368.0859 A0,0 0 0 0 380,368.0859 L614,368.0859 A0,0 0 0 0 614,368.0859 L614,352.9531 L604,342.9531 L501,342.9531 L497,283.3041 L493,342.9531 L380,342.9531 A0,0 0 0 0 380,342.9531 " fill="#FBFB77" filter="url(#fvq5ajqyuvqyy)" style="stroke: #A80036; stroke-width: 1.0;"/><path d="M604,342.9531 L604,352.9531 L614,352.9531 L604,342.9531 " fill="#FBFB77" style="stroke: #A80036; stroke-width: 1.0;"/><text fill="#000000" font-family="Hiragino Sans GB" font-size="13" lengthAdjust="spacingAndGlyphs" textLength="213" x="386" y="360.02">具体的产品，实现了 Product 接口。</text><!--MD5=[dcda66dabdb739ec36f1175150e3c9d5]
class Factory--><rect fill="#FEFECE" filter="url(#fvq5ajqyuvqyy)" height="60.8047" id="Factory" style="stroke: #A80036; stroke-width: 1.5;" width="165" x="95.5" y="113.9531"/><ellipse cx="150.75" cy="129.9531" fill="#A9DCDF" rx="11" ry="11" style="stroke: #A80036; stroke-width: 1.0;"/><path d="M150.8594,125.2969 L149.7031,130.375 L152.0313,130.375 L150.8594,125.2969 Z M149.375,123.0625 L152.3594,123.0625 L155.7188,135.4531 L153.2656,135.4531 L152.5,132.3906 L149.2188,132.3906 L148.4688,135.4531 L146.0313,135.4531 L149.375,123.0625 Z "/><text fill="#000000" font-family="Hiragino Sans GB" font-size="12" font-style="italic" lengthAdjust="spacingAndGlyphs" textLength="46" x="171.25" y="134.1074">Factory</text><line style="stroke: #A80036; stroke-width: 1.5;" x1="96.5" x2="259.5" y1="145.9531" y2="145.9531"/><line style="stroke: #A80036; stroke-width: 1.5;" x1="96.5" x2="259.5" y1="153.9531" y2="153.9531"/><ellipse cx="106.5" cy="164.9531" fill="#84BE84" rx="3" ry="3" style="stroke: #038048; stroke-width: 1.0;"/><text fill="#000000" font-family="Hiragino Sans GB" font-size="11" font-style="italic" lengthAdjust="spacingAndGlyphs" textLength="139" x="115.5" y="168.1636">factoryMethod() :Product</text><path d="M6,28.9531 L6,54.0859 A0,0 0 0 0 6,54.0859 L173.1226,54.0859 L177.7001,113.5672 L181.1226,54.0859 L348,54.0859 A0,0 0 0 0 348,54.0859 L348,38.9531 L338,28.9531 L6,28.9531 A0,0 0 0 0 6,28.9531 " fill="#FBFB77" filter="url(#fvq5ajqyuvqyy)" style="stroke: #A80036; stroke-width: 1.0;"/><path d="M338,28.9531 L338,38.9531 L348,38.9531 L338,28.9531 " fill="#FBFB77" style="stroke: #A80036; stroke-width: 1.0;"/><text fill="#000000" font-family="Hiragino Sans GB" font-size="13" lengthAdjust="spacingAndGlyphs" textLength="321" x="12" y="46.02">声明工厂方法， 该方法返回一个 Product 类型的对象。</text><!--MD5=[57d747acae87ef12c390429ef9742637]
class ConcreteFactory--><rect fill="#FEFECE" filter="url(#fvq5ajqyuvqyy)" height="48" id="ConcreteFactory" style="stroke: #A80036; stroke-width: 1.5;" width="135" x="111.5" y="234.9531"/><ellipse cx="126.5" cy="250.9531" fill="#ADD1B2" rx="11" ry="11" style="stroke: #A80036; stroke-width: 1.0;"/><path d="M129.4688,256.5938 Q128.8906,256.8906 128.25,257.0313 Q127.6094,257.1875 126.9063,257.1875 Q124.4063,257.1875 123.0781,255.5469 Q121.7656,253.8906 121.7656,250.7656 Q121.7656,247.6406 123.0781,245.9844 Q124.4063,244.3281 126.9063,244.3281 Q127.6094,244.3281 128.25,244.4844 Q128.9063,244.6406 129.4688,244.9375 L129.4688,247.6563 Q128.8438,247.0781 128.25,246.8125 Q127.6563,246.5313 127.0313,246.5313 Q125.6875,246.5313 125,247.6094 Q124.3125,248.6719 124.3125,250.7656 Q124.3125,252.8594 125,253.9375 Q125.6875,255 127.0313,255 Q127.6563,255 128.25,254.7344 Q128.8438,254.4531 129.4688,253.875 L129.4688,256.5938 Z "/><text fill="#000000" font-family="Hiragino Sans GB" font-size="12" lengthAdjust="spacingAndGlyphs" textLength="103" x="140.5" y="255.1074">ConcreteFactory</text><line style="stroke: #A80036; stroke-width: 1.5;" x1="112.5" x2="245.5" y1="266.9531" y2="266.9531"/><line style="stroke: #A80036; stroke-width: 1.5;" x1="112.5" x2="245.5" y1="274.9531" y2="274.9531"/><path d="M13.5,342.9531 L13.5,368.0859 A0,0 0 0 0 13.5,368.0859 L344.5,368.0859 A0,0 0 0 0 344.5,368.0859 L344.5,352.9531 L334.5,342.9531 L183,342.9531 L179,283.3041 L175,342.9531 L13.5,342.9531 A0,0 0 0 0 13.5,342.9531 " fill="#FBFB77" filter="url(#fvq5ajqyuvqyy)" style="stroke: #A80036; stroke-width: 1.0;"/><path d="M334.5,342.9531 L334.5,352.9531 L344.5,352.9531 L334.5,342.9531 " fill="#FBFB77" style="stroke: #A80036; stroke-width: 1.0;"/><text fill="#000000" font-family="Hiragino Sans GB" font-size="13" lengthAdjust="spacingAndGlyphs" textLength="310" x="19.5" y="360.02">重定义工厂方法以返回一个 ConcreteProduct 实例。</text><!--MD5=[03f389ab946010d19db5823a3056b88d]
reverse link Product to ConcreteProduct--><path d="M497,188.4662 C497,204.1226 497,221.1764 497,234.5874 " fill="none" id="Product&lt;-ConcreteProduct" style="stroke: #A80036; stroke-width: 1.0;"/><polygon fill="none" points="490.0001,188.4561,497,168.4561,504.0001,188.456,490.0001,188.4561" style="stroke: #A80036; stroke-width: 1.0;"/><!--MD5=[8a1bed5e34a8ae3c24e8be3232508353]
reverse link Factory to ConcreteFactory--><path d="M178.4431,195.1877 C178.5631,208.931 178.6876,223.1819 178.7883,234.7165 " fill="none" id="Factory&lt;-ConcreteFactory" style="stroke: #A80036; stroke-width: 1.0;"/><polygon fill="none" points="171.443,195.1974,178.268,175.137,185.4425,195.0751,171.443,195.1974" style="stroke: #A80036; stroke-width: 1.0;"/><!--MD5=[ad5738d6dbbb6cadafe8fafd3a39cee9]
link ConcreteFactory to ConcreteProduct--><path d="M246.6992,258.9531 C305.2266,258.9531 363.754,258.9531 422.2814,258.9531 " fill="none" id="ConcreteFactory-&gt;ConcreteProduct" style="stroke: #A80036; stroke-width: 1.0;"/><polygon fill="#A80036" points="427.5806,258.9531,418.5806,254.9531,422.5806,258.9531,418.5806,262.9531,427.5806,258.9531" style="stroke: #A80036; stroke-width: 1.0;"/><!--MD5=[a78ec715b449e3a1fe4564debfa16dd7]
@startuml
skinparam defaultFontName Hiragino Sans GB

title <b>工厂方法模式</b>

abstract class Product {
}
note top: 定义工厂方法所创建的对象的接口。

class ConcreteProduct {
}
note bottom: 具体的产品，实现了 Product 接口。

abstract class Factory {
  + {abstract} factoryMethod() :Product
}
note top: 声明工厂方法， 该方法返回一个 Product 类型的对象。

class ConcreteFactory {
}
note bottom: 重定义工厂方法以返回一个 ConcreteProduct 实例。

Product <|- - ConcreteProduct
Factory <|- - ConcreteFactory
ConcreteFactory -right-> ConcreteProduct

@enduml

PlantUML version 1.2020.06(Sun Apr 05 12:38:32 UTC 2020)
(APACHE source distribution)
Java Runtime: OpenJDK Runtime Environment
JVM: OpenJDK 64-Bit Server VM
Java Version: 11.0.7+10-LTS
Operating System: Linux
Default Encoding: UTF-8
Language: en
Country: null
--></g></svg>