<?xml version="1.0" encoding="UTF-8" standalone="no"?><svg xmlns="http://www.w3.org/2000/svg" xmlns:xlink="http://www.w3.org/1999/xlink" contentScriptType="application/ecmascript" contentStyleType="text/css" height="526px" preserveAspectRatio="none" style="width:628px;height:526px;" version="1.1" viewBox="0 0 628 526" width="628px" zoomAndPan="magnify"><defs><filter height="300%" id="f4xu83jhl7wpl" width="300%" x="-1" y="-1"><feGaussianBlur result="blurOut" stdDeviation="2.0"/><feColorMatrix in="blurOut" result="blurOut2" type="matrix" values="0 0 0 0 0 0 0 0 0 0 0 0 0 0 0 0 0 0 .4 0"/><feOffset dx="4.0" dy="4.0" in="blurOut2" result="blurOut3"/><feBlend in="SourceGraphic" in2="blurOut3" mode="normal"/></filter></defs><g><text fill="#000000" font-family="Hiragino Sans GB" font-size="18" font-weight="bold" lengthAdjust="spacingAndGlyphs" textLength="60" x="290.5" y="24.84">Vector</text><!--MD5=[0d852700fdad35b7061d461d6907a324]
cluster java.io--><polygon fill="#FFFFFF" filter="url(#f4xu83jhl7wpl)" points="474.5,319,523.5,319,530.5,346,606.5,346,606.5,423,474.5,423,474.5,319" style="stroke: #000000; stroke-width: 1.5;"/><line style="stroke: #000000; stroke-width: 1.5;" x1="474.5" x2="530.5" y1="346" y2="346"/><text fill="#000000" font-family="Hiragino Sans GB" font-size="14" font-weight="bold" lengthAdjust="spacingAndGlyphs" textLength="43" x="478.5" y="340.32">java.io</text><!--MD5=[5a5af9b0547913863cbe0ddf55a9ab5e]
class java.io.Serializable--><rect fill="#FEFECE" filter="url(#f4xu83jhl7wpl)" height="48" id="java.io.Serializable" style="stroke: #A80036; stroke-width: 1.5;" width="99" x="491" y="359"/><ellipse cx="506" cy="375" fill="#B4A7E5" rx="11" ry="11" style="stroke: #A80036; stroke-width: 1.0;"/><path d="M502.4277,371.2651 L502.4277,369.1069 L509.8071,369.1069 L509.8071,371.2651 L507.3418,371.2651 L507.3418,379.3418 L509.8071,379.3418 L509.8071,381.5 L502.4277,381.5 L502.4277,379.3418 L504.8931,379.3418 L504.8931,371.2651 Z "/><text fill="#000000" font-family="Hiragino Sans GB" font-size="12" font-style="italic" lengthAdjust="spacingAndGlyphs" textLength="67" x="520" y="382.56">Serializable</text><line style="stroke: #A80036; stroke-width: 1.5;" x1="492" x2="589" y1="391" y2="391"/><line style="stroke: #A80036; stroke-width: 1.5;" x1="492" x2="589" y1="399" y2="399"/><!--MD5=[47de47a8b5f06cbc5e036fae0a9149b7]
class Iterable--><rect fill="#FEFECE" filter="url(#f4xu83jhl7wpl)" height="48" id="Iterable" style="stroke: #A80036; stroke-width: 1.5;" width="89" x="67" y="35"/><ellipse cx="82" cy="51" fill="#B4A7E5" rx="11" ry="11" style="stroke: #A80036; stroke-width: 1.0;"/><path d="M78.4277,47.2651 L78.4277,45.1069 L85.8071,45.1069 L85.8071,47.2651 L83.3418,47.2651 L83.3418,55.3418 L85.8071,55.3418 L85.8071,57.5 L78.4277,57.5 L78.4277,55.3418 L80.8931,55.3418 L80.8931,47.2651 Z "/><text fill="#000000" font-family="Hiragino Sans GB" font-size="12" font-style="italic" lengthAdjust="spacingAndGlyphs" textLength="45" x="96" y="58.56">Iterable</text><rect fill="#FFFFFF" height="20" style="stroke: #000000; stroke-width: 1.0; stroke-dasharray: 2.0,2.0;" width="10" x="149" y="32"/><text fill="#000000" font-family="Hiragino Sans GB" font-size="12" font-style="italic" lengthAdjust="spacingAndGlyphs" textLength="8" x="150" y="49.56">E</text><line style="stroke: #A80036; stroke-width: 1.5;" x1="68" x2="155" y1="67" y2="67"/><line style="stroke: #A80036; stroke-width: 1.5;" x1="68" x2="155" y1="75" y2="75"/><!--MD5=[c160724f8e3bb89ca8141a12554ac2e3]
class Collection--><rect fill="#FEFECE" filter="url(#f4xu83jhl7wpl)" height="48" id="Collection" style="stroke: #A80036; stroke-width: 1.5;" width="104" x="59.5" y="143"/><ellipse cx="74.5" cy="159" fill="#B4A7E5" rx="11" ry="11" style="stroke: #A80036; stroke-width: 1.0;"/><path d="M70.9277,155.2651 L70.9277,153.1069 L78.3071,153.1069 L78.3071,155.2651 L75.8418,155.2651 L75.8418,163.3418 L78.3071,163.3418 L78.3071,165.5 L70.9277,165.5 L70.9277,163.3418 L73.3931,163.3418 L73.3931,155.2651 Z "/><text fill="#000000" font-family="Hiragino Sans GB" font-size="12" font-style="italic" lengthAdjust="spacingAndGlyphs" textLength="60" x="88.5" y="166.56">Collection</text><rect fill="#FFFFFF" height="20" style="stroke: #000000; stroke-width: 1.0; stroke-dasharray: 2.0,2.0;" width="10" x="156.5" y="140"/><text fill="#000000" font-family="Hiragino Sans GB" font-size="12" font-style="italic" lengthAdjust="spacingAndGlyphs" textLength="8" x="157.5" y="157.56">E</text><line style="stroke: #A80036; stroke-width: 1.5;" x1="60.5" x2="162.5" y1="175" y2="175"/><line style="stroke: #A80036; stroke-width: 1.5;" x1="60.5" x2="162.5" y1="183" y2="183"/><!--MD5=[3d4177ac58b4411586d067f34e84928f]
class List--><rect fill="#FEFECE" filter="url(#f4xu83jhl7wpl)" height="48" id="List" style="stroke: #A80036; stroke-width: 1.5;" width="65" x="6" y="251"/><ellipse cx="21" cy="267" fill="#B4A7E5" rx="11" ry="11" style="stroke: #A80036; stroke-width: 1.0;"/><path d="M17.4277,263.2651 L17.4277,261.1069 L24.8071,261.1069 L24.8071,263.2651 L22.3418,263.2651 L22.3418,271.3418 L24.8071,271.3418 L24.8071,273.5 L17.4277,273.5 L17.4277,271.3418 L19.8931,271.3418 L19.8931,263.2651 Z "/><text fill="#000000" font-family="Hiragino Sans GB" font-size="12" font-style="italic" lengthAdjust="spacingAndGlyphs" textLength="21" x="35" y="274.56">List</text><rect fill="#FFFFFF" height="20" style="stroke: #000000; stroke-width: 1.0; stroke-dasharray: 2.0,2.0;" width="10" x="64" y="248"/><text fill="#000000" font-family="Hiragino Sans GB" font-size="12" font-style="italic" lengthAdjust="spacingAndGlyphs" textLength="8" x="65" y="265.56">E</text><line style="stroke: #A80036; stroke-width: 1.5;" x1="7" x2="70" y1="283" y2="283"/><line style="stroke: #A80036; stroke-width: 1.5;" x1="7" x2="70" y1="291" y2="291"/><!--MD5=[8e34b16d8d8f96f4a11290cd523ed859]
class AbstractCollection--><rect fill="#FEFECE" filter="url(#f4xu83jhl7wpl)" height="48" id="AbstractCollection" style="stroke: #A80036; stroke-width: 1.5;" width="156" x="106.5" y="251"/><ellipse cx="121.5" cy="267" fill="#A9DCDF" rx="11" ry="11" style="stroke: #A80036; stroke-width: 1.0;"/><path d="M121.6133,262.5981 L120.4595,267.6699 L122.7754,267.6699 Z M120.1191,260.3569 L123.1157,260.3569 L126.4609,272.75 L124.0122,272.75 L123.2485,269.687 L119.9697,269.687 L119.2227,272.75 L116.7739,272.75 Z "/><text fill="#000000" font-family="Hiragino Sans GB" font-size="12" font-style="italic" lengthAdjust="spacingAndGlyphs" textLength="112" x="135.5" y="274.56">AbstractCollection</text><rect fill="#FFFFFF" height="20" style="stroke: #000000; stroke-width: 1.0; stroke-dasharray: 2.0,2.0;" width="10" x="255.5" y="248"/><text fill="#000000" font-family="Hiragino Sans GB" font-size="12" font-style="italic" lengthAdjust="spacingAndGlyphs" textLength="8" x="256.5" y="265.56">E</text><line style="stroke: #A80036; stroke-width: 1.5;" x1="107.5" x2="261.5" y1="283" y2="283"/><line style="stroke: #A80036; stroke-width: 1.5;" x1="107.5" x2="261.5" y1="291" y2="291"/><!--MD5=[b4fa10df80476353258f72a232547d63]
class AbstractList--><rect fill="#FEFECE" filter="url(#f4xu83jhl7wpl)" height="48" id="AbstractList" style="stroke: #A80036; stroke-width: 1.5;" width="117" x="53" y="359"/><ellipse cx="68" cy="375" fill="#A9DCDF" rx="11" ry="11" style="stroke: #A80036; stroke-width: 1.0;"/><path d="M68.1133,370.5981 L66.9595,375.6699 L69.2754,375.6699 Z M66.6191,368.3569 L69.6157,368.3569 L72.9609,380.75 L70.5122,380.75 L69.7485,377.687 L66.4697,377.687 L65.7227,380.75 L63.2739,380.75 Z "/><text fill="#000000" font-family="Hiragino Sans GB" font-size="12" font-style="italic" lengthAdjust="spacingAndGlyphs" textLength="73" x="82" y="382.56">AbstractList</text><rect fill="#FFFFFF" height="20" style="stroke: #000000; stroke-width: 1.0; stroke-dasharray: 2.0,2.0;" width="10" x="163" y="356"/><text fill="#000000" font-family="Hiragino Sans GB" font-size="12" font-style="italic" lengthAdjust="spacingAndGlyphs" textLength="8" x="164" y="373.56">E</text><line style="stroke: #A80036; stroke-width: 1.5;" x1="54" x2="169" y1="391" y2="391"/><line style="stroke: #A80036; stroke-width: 1.5;" x1="54" x2="169" y1="399" y2="399"/><!--MD5=[ea775af43a0da7cb543d6bee4ab62c40]
class Vector--><rect fill="#FEFECE" filter="url(#f4xu83jhl7wpl)" height="48" id="Vector" style="stroke: #A80036; stroke-width: 1.5;" width="85" x="296" y="467"/><ellipse cx="311" cy="483" fill="#ADD1B2" rx="11" ry="11" style="stroke: #A80036; stroke-width: 1.0;"/><path d="M313.4731,489.1431 Q312.8921,489.4419 312.2529,489.5913 Q311.6138,489.7407 310.9082,489.7407 Q308.4014,489.7407 307.0815,488.0889 Q305.7617,486.437 305.7617,483.3159 Q305.7617,480.1865 307.0815,478.5347 Q308.4014,476.8828 310.9082,476.8828 Q311.6138,476.8828 312.2612,477.0322 Q312.9087,477.1816 313.4731,477.4805 L313.4731,480.2031 Q312.8423,479.6221 312.2488,479.3523 Q311.6553,479.0825 311.0244,479.0825 Q309.6797,479.0825 308.9949,480.1492 Q308.3101,481.2158 308.3101,483.3159 Q308.3101,485.4077 308.9949,486.4744 Q309.6797,487.541 311.0244,487.541 Q311.6553,487.541 312.2488,487.2712 Q312.8423,487.0015 313.4731,486.4204 Z "/><text fill="#000000" font-family="Hiragino Sans GB" font-size="12" lengthAdjust="spacingAndGlyphs" textLength="41" x="325" y="490.56">Vector</text><rect fill="#FFFFFF" height="20" style="stroke: #000000; stroke-width: 1.0; stroke-dasharray: 2.0,2.0;" width="10" x="374" y="464"/><text fill="#000000" font-family="Hiragino Sans GB" font-size="12" font-style="italic" lengthAdjust="spacingAndGlyphs" textLength="8" x="375" y="481.56">E</text><line style="stroke: #A80036; stroke-width: 1.5;" x1="297" x2="380" y1="499" y2="499"/><line style="stroke: #A80036; stroke-width: 1.5;" x1="297" x2="380" y1="507" y2="507"/><!--MD5=[00c6061cd689d4b62cd15f6dc66e35a4]
class RandomAccess--><rect fill="#FEFECE" filter="url(#f4xu83jhl7wpl)" height="48" id="RandomAccess" style="stroke: #A80036; stroke-width: 1.5;" width="124" x="205.5" y="359"/><ellipse cx="220.5" cy="375" fill="#B4A7E5" rx="11" ry="11" style="stroke: #A80036; stroke-width: 1.0;"/><path d="M216.9277,371.2651 L216.9277,369.1069 L224.3071,369.1069 L224.3071,371.2651 L221.8418,371.2651 L221.8418,379.3418 L224.3071,379.3418 L224.3071,381.5 L216.9277,381.5 L216.9277,379.3418 L219.3931,379.3418 L219.3931,371.2651 Z "/><text fill="#000000" font-family="Hiragino Sans GB" font-size="12" font-style="italic" lengthAdjust="spacingAndGlyphs" textLength="92" x="234.5" y="382.56">RandomAccess</text><line style="stroke: #A80036; stroke-width: 1.5;" x1="206.5" x2="328.5" y1="391" y2="391"/><line style="stroke: #A80036; stroke-width: 1.5;" x1="206.5" x2="328.5" y1="399" y2="399"/><!--MD5=[f62eaa6c4d43571d0e4c76098fe1b59f]
class Cloneable--><rect fill="#FEFECE" filter="url(#f4xu83jhl7wpl)" height="48" id="Cloneable" style="stroke: #A80036; stroke-width: 1.5;" width="91" x="365" y="359"/><ellipse cx="380" cy="375" fill="#B4A7E5" rx="11" ry="11" style="stroke: #A80036; stroke-width: 1.0;"/><path d="M376.4277,371.2651 L376.4277,369.1069 L383.8071,369.1069 L383.8071,371.2651 L381.3418,371.2651 L381.3418,379.3418 L383.8071,379.3418 L383.8071,381.5 L376.4277,381.5 L376.4277,379.3418 L378.8931,379.3418 L378.8931,371.2651 Z "/><text fill="#000000" font-family="Hiragino Sans GB" font-size="12" font-style="italic" lengthAdjust="spacingAndGlyphs" textLength="59" x="394" y="382.56">Cloneable</text><line style="stroke: #A80036; stroke-width: 1.5;" x1="366" x2="455" y1="391" y2="391"/><line style="stroke: #A80036; stroke-width: 1.5;" x1="366" x2="455" y1="399" y2="399"/><!--MD5=[30609b773d1acd1d8ef4d49cf63668f8]
reverse link Iterable to Collection--><path d="M111.5,103.02 C111.5,116.58 111.5,131.04 111.5,142.68 " fill="none" id="Iterable&lt;-Collection" style="stroke: #A80036; stroke-width: 1.0;"/><polygon fill="none" points="104.5,103,111.5,83,118.5,103,104.5,103" style="stroke: #A80036; stroke-width: 1.0;"/><!--MD5=[0159284274f96a472eb2618ad803aaca]
reverse link Collection to List--><path d="M84.19,207.66 C74.21,222.15 63.25,238.07 54.56,250.68 " fill="none" id="Collection&lt;-List" style="stroke: #A80036; stroke-width: 1.0;"/><polygon fill="none" points="78.55,203.5,95.66,191,90.08,211.44,78.55,203.5" style="stroke: #A80036; stroke-width: 1.0;"/><!--MD5=[1822909749df1453bdd84de7a60a3406]
reverse link Collection to AbstractCollection--><path d="M138.81,207.66 C148.79,222.15 159.75,238.07 168.44,250.68 " fill="none" id="Collection&lt;-AbstractCollection" style="stroke: #A80036; stroke-width: 1.0; stroke-dasharray: 7.0,7.0;"/><polygon fill="none" points="132.92,211.44,127.34,191,144.45,203.5,132.92,211.44" style="stroke: #A80036; stroke-width: 1.0;"/><!--MD5=[7a3a52e8f65ef1a8d8d29530ea5cd870]
reverse link AbstractCollection to AbstractList--><path d="M157.19,315.66 C147.21,330.15 136.25,346.07 127.56,358.68 " fill="none" id="AbstractCollection&lt;-AbstractList" style="stroke: #A80036; stroke-width: 1.0;"/><polygon fill="none" points="151.55,311.5,168.66,299,163.08,319.44,151.55,311.5" style="stroke: #A80036; stroke-width: 1.0;"/><!--MD5=[00308d07b6a5721fb0cf5861877e6652]
reverse link List to AbstractList--><path d="M65.81,315.66 C75.79,330.15 86.75,346.07 95.44,358.68 " fill="none" id="List&lt;-AbstractList" style="stroke: #A80036; stroke-width: 1.0; stroke-dasharray: 7.0,7.0;"/><polygon fill="none" points="59.92,319.44,54.34,299,71.45,311.5,59.92,319.44" style="stroke: #A80036; stroke-width: 1.0;"/><!--MD5=[029fee95a863c347e386f0437ffbfb92]
reverse link AbstractList to Vector--><path d="M163.28,417.74 C171.26,422.43 179.51,427.01 187.5,431 C223,448.73 265.21,464.83 295.96,475.71 " fill="none" id="AbstractList&lt;-Vector" style="stroke: #A80036; stroke-width: 1.0;"/><polygon fill="none" points="159.34,423.53,145.93,407.13,166.64,411.59,159.34,423.53" style="stroke: #A80036; stroke-width: 1.0;"/><!--MD5=[a44f2d1c094cf30c2279fd55ae317c71]
reverse link RandomAccess to Vector--><path d="M294.06,423.66 C303.77,438.15 314.43,454.07 322.88,466.68 " fill="none" id="RandomAccess&lt;-Vector" style="stroke: #A80036; stroke-width: 1.0; stroke-dasharray: 7.0,7.0;"/><polygon fill="none" points="288.22,427.51,282.91,407,299.85,419.72,288.22,427.51" style="stroke: #A80036; stroke-width: 1.0;"/><!--MD5=[a5cd9f945d7afa44c0b97109571d6906]
reverse link Cloneable to Vector--><path d="M383.56,423.66 C373.72,438.15 362.91,454.07 354.34,466.68 " fill="none" id="Cloneable&lt;-Vector" style="stroke: #A80036; stroke-width: 1.0; stroke-dasharray: 7.0,7.0;"/><polygon fill="none" points="377.85,419.61,394.88,407,389.43,427.48,377.85,419.61" style="stroke: #A80036; stroke-width: 1.0;"/><!--MD5=[06cc5ce6f124dbc90d33fac80f4744b1]
reverse link java.io.Serializable to Vector--><path d="M493.84,418.48 C487.15,422.91 480.24,427.21 473.5,431 C443.73,447.73 408.3,463.05 381.2,473.89 " fill="none" id="java.io.Serializable&lt;-Vector" style="stroke: #A80036; stroke-width: 1.0; stroke-dasharray: 7.0,7.0;"/><polygon fill="none" points="489.88,412.71,510.32,407.09,497.84,424.22,489.88,412.71" style="stroke: #A80036; stroke-width: 1.0;"/><!--MD5=[40184e2245789eefcee808947b61b374]
@startuml
skinparam defaultFontName Hiragino Sans GB

title <b>Vector</b>

interface Iterable<E>

interface Collection<E> extends Iterable

interface List<E> extends Collection

abstract class AbstractCollection<E> implements Collection

abstract class AbstractList<E> extends AbstractCollection implements List

class Vector<E> extends AbstractList implements RandomAccess, Cloneable, java.io.Serializable

@enduml

PlantUML version 1.2019.12(Sun Nov 03 18:24:54 CST 2019)
(APACHE source distribution)
Java Runtime: OpenJDK Runtime Environment
JVM: OpenJDK 64-Bit Server VM
Java Version: 11.0.6+10-LTS
Operating System: Mac OS X
Default Encoding: UTF-8
Language: en
Country: CN
--></g></svg>