<?xml version="1.0" encoding="UTF-8" standalone="no"?><svg xmlns="http://www.w3.org/2000/svg" xmlns:xlink="http://www.w3.org/1999/xlink" contentScriptType="application/ecmascript" contentStyleType="text/css" height="397px" preserveAspectRatio="none" style="width:631px;height:397px;" version="1.1" viewBox="0 0 631 397" width="631px" zoomAndPan="magnify"><defs><filter height="300%" id="fvq5ajqyuvqyy" width="300%" x="-1" y="-1"><feGaussianBlur result="blurOut" stdDeviation="2.0"/><feColorMatrix in="blurOut" result="blurOut2" type="matrix" values="0 0 0 0 0 0 0 0 0 0 0 0 0 0 0 0 0 0 .4 0"/><feOffset dx="4.0" dy="4.0" in="blurOut2" result="blurOut3"/><feBlend in="SourceGraphic" in2="blurOut3" mode="normal"/></filter></defs><g><text fill="#000000" font-family="Hiragino Sans GB" font-size="18" font-weight="bold" lengthAdjust="spacingAndGlyphs" textLength="108" x="264.5" y="24.84">工厂方法模式</text><!--MD5=[72136138052d025cffdce3c22fbd185f]
class Product--><rect fill="#FEFECE" filter="url(#fvq5ajqyuvqyy)" height="48" id="Product" style="stroke: #A80036; stroke-width: 1.5;" width="80" x="460.5" y="132"/><ellipse cx="475.5" cy="148" fill="#A9DCDF" rx="11" ry="11" style="stroke: #A80036; stroke-width: 1.0;"/><path d="M475.6133,143.5981 L474.4595,148.6699 L476.7754,148.6699 Z M474.1191,141.3569 L477.1157,141.3569 L480.4609,153.75 L478.0122,153.75 L477.2485,150.687 L473.9697,150.687 L473.2227,153.75 L470.7739,153.75 Z "/><text fill="#000000" font-family="Hiragino Sans GB" font-size="12" font-style="italic" lengthAdjust="spacingAndGlyphs" textLength="48" x="489.5" y="155.56">Product</text><line style="stroke: #A80036; stroke-width: 1.5;" x1="461.5" x2="539.5" y1="164" y2="164"/><line style="stroke: #A80036; stroke-width: 1.5;" x1="461.5" x2="539.5" y1="172" y2="172"/><path d="M386,35 L386,64.5 A0,0 0 0 0 386,64.5 L496.5,64.5 L500.5,131.75 L504.5,64.5 L615,64.5 A0,0 0 0 0 615,64.5 L615,45 L605,35 L386,35 A0,0 0 0 0 386,35 " fill="#FBFB77" filter="url(#fvq5ajqyuvqyy)" style="stroke: #A80036; stroke-width: 1.0;"/><path d="M605,35 L605,45 L615,45 L605,35 " fill="#FBFB77" style="stroke: #A80036; stroke-width: 1.0;"/><text fill="#000000" font-family="Hiragino Sans GB" font-size="13" lengthAdjust="spacingAndGlyphs" textLength="208" x="392" y="57.94">定义工厂方法所创建的对象的接口。</text><!--MD5=[990132e04f994323e3060f5453bb4352]
class ConcreteProduct--><rect fill="#FEFECE" filter="url(#fvq5ajqyuvqyy)" height="48" id="ConcreteProduct" style="stroke: #A80036; stroke-width: 1.5;" width="135" x="433" y="248"/><ellipse cx="448" cy="264" fill="#ADD1B2" rx="11" ry="11" style="stroke: #A80036; stroke-width: 1.0;"/><path d="M450.4731,270.1431 Q449.8921,270.4419 449.2529,270.5913 Q448.6138,270.7407 447.9082,270.7407 Q445.4014,270.7407 444.0815,269.0889 Q442.7617,267.437 442.7617,264.3159 Q442.7617,261.1865 444.0815,259.5347 Q445.4014,257.8828 447.9082,257.8828 Q448.6138,257.8828 449.2612,258.0322 Q449.9087,258.1816 450.4731,258.4805 L450.4731,261.2031 Q449.8423,260.6221 449.2488,260.3523 Q448.6553,260.0825 448.0244,260.0825 Q446.6797,260.0825 445.9949,261.1492 Q445.3101,262.2158 445.3101,264.3159 Q445.3101,266.4077 445.9949,267.4744 Q446.6797,268.541 448.0244,268.541 Q448.6553,268.541 449.2488,268.2712 Q449.8423,268.0015 450.4731,267.4204 Z "/><text fill="#000000" font-family="Hiragino Sans GB" font-size="12" lengthAdjust="spacingAndGlyphs" textLength="103" x="462" y="271.56">ConcreteProduct</text><line style="stroke: #A80036; stroke-width: 1.5;" x1="434" x2="567" y1="280" y2="280"/><line style="stroke: #A80036; stroke-width: 1.5;" x1="434" x2="567" y1="288" y2="288"/><path d="M382,356 L382,385.5 A0,0 0 0 0 382,385.5 L619,385.5 A0,0 0 0 0 619,385.5 L619,366 L609,356 L504.5,356 L500.5,296.36 L496.5,356 L382,356 A0,0 0 0 0 382,356 " fill="#FBFB77" filter="url(#fvq5ajqyuvqyy)" style="stroke: #A80036; stroke-width: 1.0;"/><path d="M609,356 L609,366 L619,366 L609,356 " fill="#FBFB77" style="stroke: #A80036; stroke-width: 1.0;"/><text fill="#000000" font-family="Hiragino Sans GB" font-size="13" lengthAdjust="spacingAndGlyphs" textLength="216" x="388" y="378.94">具体的产品，实现了 Product 接口。</text><!--MD5=[dcda66dabdb739ec36f1175150e3c9d5]
class Factory--><rect fill="#FEFECE" filter="url(#fvq5ajqyuvqyy)" height="64.5" id="Factory" style="stroke: #A80036; stroke-width: 1.5;" width="164" x="96.5" y="124"/><ellipse cx="151.25" cy="140" fill="#A9DCDF" rx="11" ry="11" style="stroke: #A80036; stroke-width: 1.0;"/><path d="M151.3633,135.5981 L150.2095,140.6699 L152.5254,140.6699 Z M149.8691,133.3569 L152.8657,133.3569 L156.2109,145.75 L153.7622,145.75 L152.9985,142.687 L149.7197,142.687 L148.9727,145.75 L146.5239,145.75 Z "/><text fill="#000000" font-family="Hiragino Sans GB" font-size="12" font-style="italic" lengthAdjust="spacingAndGlyphs" textLength="46" x="171.75" y="147.56">Factory</text><line style="stroke: #A80036; stroke-width: 1.5;" x1="97.5" x2="259.5" y1="156" y2="156"/><line style="stroke: #A80036; stroke-width: 1.5;" x1="97.5" x2="259.5" y1="164" y2="164"/><ellipse cx="107.5" cy="175" fill="#84BE84" rx="3" ry="3" style="stroke: #038048; stroke-width: 1.0;"/><text fill="#000000" font-family="Hiragino Sans GB" font-size="11" font-style="italic" lengthAdjust="spacingAndGlyphs" textLength="138" x="116.5" y="183.18">factoryMethod() :Product</text><path d="M6,35 L6,64.5 A0,0 0 0 0 6,64.5 L174.5,64.5 L178.5,123.75 L182.5,64.5 L351,64.5 A0,0 0 0 0 351,64.5 L351,45 L341,35 L6,35 A0,0 0 0 0 6,35 " fill="#FBFB77" filter="url(#fvq5ajqyuvqyy)" style="stroke: #A80036; stroke-width: 1.0;"/><path d="M341,35 L341,45 L351,45 L341,35 " fill="#FBFB77" style="stroke: #A80036; stroke-width: 1.0;"/><text fill="#000000" font-family="Hiragino Sans GB" font-size="13" lengthAdjust="spacingAndGlyphs" textLength="324" x="12" y="57.94">声明工厂方法， 该方法返回一个 Product 类型的对象。</text><!--MD5=[57d747acae87ef12c390429ef9742637]
class ConcreteFactory--><rect fill="#FEFECE" filter="url(#fvq5ajqyuvqyy)" height="48" id="ConcreteFactory" style="stroke: #A80036; stroke-width: 1.5;" width="133" x="112" y="248"/><ellipse cx="127" cy="264" fill="#ADD1B2" rx="11" ry="11" style="stroke: #A80036; stroke-width: 1.0;"/><path d="M129.4731,270.1431 Q128.8921,270.4419 128.2529,270.5913 Q127.6138,270.7407 126.9082,270.7407 Q124.4014,270.7407 123.0815,269.0889 Q121.7617,267.437 121.7617,264.3159 Q121.7617,261.1865 123.0815,259.5347 Q124.4014,257.8828 126.9082,257.8828 Q127.6138,257.8828 128.2612,258.0322 Q128.9087,258.1816 129.4731,258.4805 L129.4731,261.2031 Q128.8423,260.6221 128.2488,260.3523 Q127.6553,260.0825 127.0244,260.0825 Q125.6797,260.0825 124.9949,261.1492 Q124.3101,262.2158 124.3101,264.3159 Q124.3101,266.4077 124.9949,267.4744 Q125.6797,268.541 127.0244,268.541 Q127.6553,268.541 128.2488,268.2712 Q128.8423,268.0015 129.4731,267.4204 Z "/><text fill="#000000" font-family="Hiragino Sans GB" font-size="12" lengthAdjust="spacingAndGlyphs" textLength="101" x="141" y="271.56">ConcreteFactory</text><line style="stroke: #A80036; stroke-width: 1.5;" x1="113" x2="244" y1="280" y2="280"/><line style="stroke: #A80036; stroke-width: 1.5;" x1="113" x2="244" y1="288" y2="288"/><path d="M10,356 L10,385.5 A0,0 0 0 0 10,385.5 L347,385.5 A0,0 0 0 0 347,385.5 L347,366 L337,356 L182.5,356 L178.5,296.36 L174.5,356 L10,356 A0,0 0 0 0 10,356 " fill="#FBFB77" filter="url(#fvq5ajqyuvqyy)" style="stroke: #A80036; stroke-width: 1.0;"/><path d="M337,356 L337,366 L347,366 L337,356 " fill="#FBFB77" style="stroke: #A80036; stroke-width: 1.0;"/><text fill="#000000" font-family="Hiragino Sans GB" font-size="13" lengthAdjust="spacingAndGlyphs" textLength="316" x="16" y="378.94">重定义工厂方法以返回一个 ConcreteProduct 实例。</text><!--MD5=[03f389ab946010d19db5823a3056b88d]
reverse link Product to ConcreteProduct--><path d="M500.5,200.32 C500.5,216.53 500.5,234.3 500.5,247.96 " fill="none" id="Product&lt;-ConcreteProduct" style="stroke: #A80036; stroke-width: 1.0;"/><polygon fill="none" points="493.5,200.07,500.5,180.07,507.5,200.07,493.5,200.07" style="stroke: #A80036; stroke-width: 1.0;"/><!--MD5=[8a1bed5e34a8ae3c24e8be3232508353]
reverse link Factory to ConcreteFactory--><path d="M178.5,208.35 C178.5,222.16 178.5,236.42 178.5,247.84 " fill="none" id="Factory&lt;-ConcreteFactory" style="stroke: #A80036; stroke-width: 1.0;"/><polygon fill="none" points="171.5,208.15,178.5,188.15,185.5,208.15,171.5,208.15" style="stroke: #A80036; stroke-width: 1.0;"/><!--MD5=[ad5738d6dbbb6cadafe8fafd3a39cee9]
link ConcreteFactory to ConcreteProduct--><path d="M245.16,272 C305.96,272 366.75,272 427.55,272 " fill="none" id="ConcreteFactory-&gt;ConcreteProduct" style="stroke: #A80036; stroke-width: 1.0;"/><polygon fill="#A80036" points="432.68,272,423.68,268,427.68,272,423.68,276,432.68,272" style="stroke: #A80036; stroke-width: 1.0;"/><!--MD5=[6d5316ffcb4a44e26fa3d4dd5b341111]
@startuml
skinparam defaultFontName Hiragino Sans GB

title <b>工厂方法模式</b>

abstract class Product {
}
note top: 定义工厂方法所创建的对象的接口。

class ConcreteProduct {
}
note bottom: 具体的产品，实现了 Product 接口。

abstract class Factory {
  + {abstract} factoryMethod() :Product
}
note top: 声明工厂方法， 该方法返回一个 Product 类型的对象。

class ConcreteFactory {
}
note bottom: 重定义工厂方法以返回一个 ConcreteProduct 实例。

Product <|- - ConcreteProduct
Factory <|- - ConcreteFactory
ConcreteFactory -right-> ConcreteProduct

@enduml

PlantUML version 1.2019.12(Sun Nov 03 18:24:54 CST 2019)
(APACHE source distribution)
Java Runtime: OpenJDK Runtime Environment
JVM: OpenJDK 64-Bit Server VM
Java Version: 11.0.6+10-LTS
Operating System: Mac OS X
Default Encoding: UTF-8
Language: en
Country: CN
--></g></svg>