<?xml version="1.0" encoding="UTF-8" standalone="no"?>
<!DOCTYPE svg PUBLIC "-//W3C//DTD SVG 1.1//EN"
 "http://www.w3.org/Graphics/SVG/1.1/DTD/svg11.dtd">
<!-- Generated by graphviz version 2.44.0 (20200408.0750)
 -->
<!-- Title: G Pages: 1 -->
<svg width="140pt" height="188pt"
 viewBox="0.00 0.00 140.00 188.00" xmlns="http://www.w3.org/2000/svg" xmlns:xlink="http://www.w3.org/1999/xlink">
<g id="graph0" class="graph" transform="scale(1 1) rotate(0) translate(4 184)">
<title>G</title>
<polygon fill="white" stroke="transparent" points="-4,4 -4,-184 136,-184 136,4 -4,4"/>
<!-- BootClassLoader -->
<g id="node1" class="node">
<title>BootClassLoader</title>
<polygon fill="none" stroke="black" points="121,-180 11,-180 11,-144 121,-144 121,-180"/>
<text text-anchor="middle" x="66" y="-158.3" font-family="Times,serif" font-size="14.00">BootClassLoader</text>
</g>
<!-- PlatformClassLoader -->
<g id="node2" class="node">
<title>PlatformClassLoader</title>
<polygon fill="none" stroke="black" points="132,-108 0,-108 0,-72 132,-72 132,-108"/>
<text text-anchor="middle" x="66" y="-86.3" font-family="Times,serif" font-size="14.00">PlatformClassLoader</text>
</g>
<!-- BootClassLoader&#45;&gt;PlatformClassLoader -->
<g id="edge1" class="edge">
<title>BootClassLoader&#45;&gt;PlatformClassLoader</title>
<path fill="none" stroke="black" d="M66,-133.67C66,-125.05 66,-115.79 66,-108.1"/>
<polygon fill="black" stroke="black" points="62.5,-133.7 66,-143.7 69.5,-133.7 62.5,-133.7"/>
</g>
<!-- AppClassLoader -->
<g id="node3" class="node">
<title>AppClassLoader</title>
<polygon fill="none" stroke="black" points="119.5,-36 12.5,-36 12.5,0 119.5,0 119.5,-36"/>
<text text-anchor="middle" x="66" y="-14.3" font-family="Times,serif" font-size="14.00">AppClassLoader</text>
</g>
<!-- PlatformClassLoader&#45;&gt;AppClassLoader -->
<g id="edge2" class="edge">
<title>PlatformClassLoader&#45;&gt;AppClassLoader</title>
<path fill="none" stroke="black" d="M66,-61.67C66,-53.05 66,-43.79 66,-36.1"/>
<polygon fill="black" stroke="black" points="62.5,-61.7 66,-71.7 69.5,-61.7 62.5,-61.7"/>
</g>
</g>
</svg>
