<?xml version="1.0" encoding="UTF-8" standalone="no"?><svg xmlns="http://www.w3.org/2000/svg" xmlns:xlink="http://www.w3.org/1999/xlink" contentScriptType="application/ecmascript" contentStyleType="text/css" height="526px" preserveAspectRatio="none" style="width:655px;height:526px;" version="1.1" viewBox="0 0 655 526" width="655px" zoomAndPan="magnify"><defs><filter height="300%" id="f4xu83jhl7wpl" width="300%" x="-1" y="-1"><feGaussianBlur result="blurOut" stdDeviation="2.0"/><feColorMatrix in="blurOut" result="blurOut2" type="matrix" values="0 0 0 0 0 0 0 0 0 0 0 0 0 0 0 0 0 0 .4 0"/><feOffset dx="4.0" dy="4.0" in="blurOut2" result="blurOut3"/><feBlend in="SourceGraphic" in2="blurOut3" mode="normal"/></filter></defs><g><text fill="#000000" font-family="Hiragino Sans GB" font-size="18" font-weight="bold" lengthAdjust="spacingAndGlyphs" textLength="65" x="301.5" y="24.84">Vector</text><!--MD5=[0d852700fdad35b7061d461d6907a324]
cluster java.io--><polygon fill="#FFFFFF" filter="url(#f4xu83jhl7wpl)" points="495.5,319,549.5,319,556.5,346,633.5,346,633.5,423,495.5,423,495.5,319" style="stroke: #000000; stroke-width: 1.5;"/><line style="stroke: #000000; stroke-width: 1.5;" x1="495.5" x2="556.5" y1="346" y2="346"/><text fill="#000000" font-family="Hiragino Sans GB" font-size="14" font-weight="bold" lengthAdjust="spacingAndGlyphs" textLength="48" x="499.5" y="340.32">java.io</text><!--MD5=[5a5af9b0547913863cbe0ddf55a9ab5e]
class java.io.Serializable--><rect fill="#FEFECE" filter="url(#f4xu83jhl7wpl)" height="48" id="java.io.Serializable" style="stroke: #A80036; stroke-width: 1.5;" width="105" x="512" y="359"/><ellipse cx="527" cy="375" fill="#B4A7E5" rx="11" ry="11" style="stroke: #A80036; stroke-width: 1.0;"/><path d="M523.4277,371.2651 L523.4277,369.1069 L530.8071,369.1069 L530.8071,371.2651 L528.3418,371.2651 L528.3418,379.3418 L530.8071,379.3418 L530.8071,381.5 L523.4277,381.5 L523.4277,379.3418 L525.8931,379.3418 L525.8931,371.2651 Z "/><text fill="#000000" font-family="Hiragino Sans GB" font-size="12" font-style="italic" lengthAdjust="spacingAndGlyphs" textLength="73" x="541" y="382.56">Serializable</text><line style="stroke: #A80036; stroke-width: 1.5;" x1="513" x2="616" y1="391" y2="391"/><line style="stroke: #A80036; stroke-width: 1.5;" x1="513" x2="616" y1="399" y2="399"/><!--MD5=[47de47a8b5f06cbc5e036fae0a9149b7]
class Iterable--><rect fill="#FEFECE" filter="url(#f4xu83jhl7wpl)" height="48" id="Iterable" style="stroke: #A80036; stroke-width: 1.5;" width="94" x="67.5" y="35"/><ellipse cx="82.5" cy="51" fill="#B4A7E5" rx="11" ry="11" style="stroke: #A80036; stroke-width: 1.0;"/><path d="M78.9277,47.2651 L78.9277,45.1069 L86.3071,45.1069 L86.3071,47.2651 L83.8418,47.2651 L83.8418,55.3418 L86.3071,55.3418 L86.3071,57.5 L78.9277,57.5 L78.9277,55.3418 L81.3931,55.3418 L81.3931,47.2651 Z "/><text fill="#000000" font-family="Hiragino Sans GB" font-size="12" font-style="italic" lengthAdjust="spacingAndGlyphs" textLength="50" x="96.5" y="58.56">Iterable</text><rect fill="#FFFFFF" height="20" style="stroke: #000000; stroke-width: 1.0; stroke-dasharray: 2.0,2.0;" width="10" x="154.5" y="32"/><text fill="#000000" font-family="Hiragino Sans GB" font-size="12" font-style="italic" lengthAdjust="spacingAndGlyphs" textLength="8" x="155.5" y="49.56">E</text><line style="stroke: #A80036; stroke-width: 1.5;" x1="68.5" x2="160.5" y1="67" y2="67"/><line style="stroke: #A80036; stroke-width: 1.5;" x1="68.5" x2="160.5" y1="75" y2="75"/><!--MD5=[c160724f8e3bb89ca8141a12554ac2e3]
class Collection--><rect fill="#FEFECE" filter="url(#f4xu83jhl7wpl)" height="48" id="Collection" style="stroke: #A80036; stroke-width: 1.5;" width="108" x="60.5" y="143"/><ellipse cx="75.5" cy="159" fill="#B4A7E5" rx="11" ry="11" style="stroke: #A80036; stroke-width: 1.0;"/><path d="M71.9277,155.2651 L71.9277,153.1069 L79.3071,153.1069 L79.3071,155.2651 L76.8418,155.2651 L76.8418,163.3418 L79.3071,163.3418 L79.3071,165.5 L71.9277,165.5 L71.9277,163.3418 L74.3931,163.3418 L74.3931,155.2651 Z "/><text fill="#000000" font-family="Hiragino Sans GB" font-size="12" font-style="italic" lengthAdjust="spacingAndGlyphs" textLength="64" x="89.5" y="166.56">Collection</text><rect fill="#FFFFFF" height="20" style="stroke: #000000; stroke-width: 1.0; stroke-dasharray: 2.0,2.0;" width="10" x="161.5" y="140"/><text fill="#000000" font-family="Hiragino Sans GB" font-size="12" font-style="italic" lengthAdjust="spacingAndGlyphs" textLength="8" x="162.5" y="157.56">E</text><line style="stroke: #A80036; stroke-width: 1.5;" x1="61.5" x2="167.5" y1="175" y2="175"/><line style="stroke: #A80036; stroke-width: 1.5;" x1="61.5" x2="167.5" y1="183" y2="183"/><!--MD5=[3d4177ac58b4411586d067f34e84928f]
class List--><rect fill="#FEFECE" filter="url(#f4xu83jhl7wpl)" height="48" id="List" style="stroke: #A80036; stroke-width: 1.5;" width="67" x="6" y="251"/><ellipse cx="21" cy="267" fill="#B4A7E5" rx="11" ry="11" style="stroke: #A80036; stroke-width: 1.0;"/><path d="M17.4277,263.2651 L17.4277,261.1069 L24.8071,261.1069 L24.8071,263.2651 L22.3418,263.2651 L22.3418,271.3418 L24.8071,271.3418 L24.8071,273.5 L17.4277,273.5 L17.4277,271.3418 L19.8931,271.3418 L19.8931,263.2651 Z "/><text fill="#000000" font-family="Hiragino Sans GB" font-size="12" font-style="italic" lengthAdjust="spacingAndGlyphs" textLength="23" x="35" y="274.56">List</text><rect fill="#FFFFFF" height="20" style="stroke: #000000; stroke-width: 1.0; stroke-dasharray: 2.0,2.0;" width="10" x="66" y="248"/><text fill="#000000" font-family="Hiragino Sans GB" font-size="12" font-style="italic" lengthAdjust="spacingAndGlyphs" textLength="8" x="67" y="265.56">E</text><line style="stroke: #A80036; stroke-width: 1.5;" x1="7" x2="72" y1="283" y2="283"/><line style="stroke: #A80036; stroke-width: 1.5;" x1="7" x2="72" y1="291" y2="291"/><!--MD5=[8e34b16d8d8f96f4a11290cd523ed859]
class AbstractCollection--><rect fill="#FEFECE" filter="url(#f4xu83jhl7wpl)" height="48" id="AbstractCollection" style="stroke: #A80036; stroke-width: 1.5;" width="165" x="108" y="251"/><ellipse cx="123" cy="267" fill="#A9DCDF" rx="11" ry="11" style="stroke: #A80036; stroke-width: 1.0;"/><path d="M123.1133,262.5981 L121.9595,267.6699 L124.2754,267.6699 Z M121.6191,260.3569 L124.6157,260.3569 L127.9609,272.75 L125.5122,272.75 L124.7485,269.687 L121.4697,269.687 L120.7227,272.75 L118.2739,272.75 Z "/><text fill="#000000" font-family="Hiragino Sans GB" font-size="12" font-style="italic" lengthAdjust="spacingAndGlyphs" textLength="121" x="137" y="274.56">AbstractCollection</text><rect fill="#FFFFFF" height="20" style="stroke: #000000; stroke-width: 1.0; stroke-dasharray: 2.0,2.0;" width="10" x="266" y="248"/><text fill="#000000" font-family="Hiragino Sans GB" font-size="12" font-style="italic" lengthAdjust="spacingAndGlyphs" textLength="8" x="267" y="265.56">E</text><line style="stroke: #A80036; stroke-width: 1.5;" x1="109" x2="272" y1="283" y2="283"/><line style="stroke: #A80036; stroke-width: 1.5;" x1="109" x2="272" y1="291" y2="291"/><!--MD5=[b4fa10df80476353258f72a232547d63]
class AbstractList--><rect fill="#FEFECE" filter="url(#f4xu83jhl7wpl)" height="48" id="AbstractList" style="stroke: #A80036; stroke-width: 1.5;" width="124" x="52.5" y="359"/><ellipse cx="67.5" cy="375" fill="#A9DCDF" rx="11" ry="11" style="stroke: #A80036; stroke-width: 1.0;"/><path d="M67.6133,370.5981 L66.4595,375.6699 L68.7754,375.6699 Z M66.1191,368.3569 L69.1157,368.3569 L72.4609,380.75 L70.0122,380.75 L69.2485,377.687 L65.9697,377.687 L65.2227,380.75 L62.7739,380.75 Z "/><text fill="#000000" font-family="Hiragino Sans GB" font-size="12" font-style="italic" lengthAdjust="spacingAndGlyphs" textLength="80" x="81.5" y="382.56">AbstractList</text><rect fill="#FFFFFF" height="20" style="stroke: #000000; stroke-width: 1.0; stroke-dasharray: 2.0,2.0;" width="10" x="169.5" y="356"/><text fill="#000000" font-family="Hiragino Sans GB" font-size="12" font-style="italic" lengthAdjust="spacingAndGlyphs" textLength="8" x="170.5" y="373.56">E</text><line style="stroke: #A80036; stroke-width: 1.5;" x1="53.5" x2="175.5" y1="391" y2="391"/><line style="stroke: #A80036; stroke-width: 1.5;" x1="53.5" x2="175.5" y1="399" y2="399"/><!--MD5=[ea775af43a0da7cb543d6bee4ab62c40]
class Vector--><rect fill="#FEFECE" filter="url(#f4xu83jhl7wpl)" height="48" id="Vector" style="stroke: #A80036; stroke-width: 1.5;" width="88" x="309.5" y="467"/><ellipse cx="324.5" cy="483" fill="#ADD1B2" rx="11" ry="11" style="stroke: #A80036; stroke-width: 1.0;"/><path d="M326.9731,489.1431 Q326.3921,489.4419 325.7529,489.5913 Q325.1138,489.7407 324.4082,489.7407 Q321.9014,489.7407 320.5815,488.0889 Q319.2617,486.437 319.2617,483.3159 Q319.2617,480.1865 320.5815,478.5347 Q321.9014,476.8828 324.4082,476.8828 Q325.1138,476.8828 325.7612,477.0322 Q326.4087,477.1816 326.9731,477.4805 L326.9731,480.2031 Q326.3423,479.6221 325.7488,479.3523 Q325.1553,479.0825 324.5244,479.0825 Q323.1797,479.0825 322.4949,480.1492 Q321.8101,481.2158 321.8101,483.3159 Q321.8101,485.4077 322.4949,486.4744 Q323.1797,487.541 324.5244,487.541 Q325.1553,487.541 325.7488,487.2712 Q326.3423,487.0015 326.9731,486.4204 Z "/><text fill="#000000" font-family="Hiragino Sans GB" font-size="12" lengthAdjust="spacingAndGlyphs" textLength="44" x="338.5" y="490.56">Vector</text><rect fill="#FFFFFF" height="20" style="stroke: #000000; stroke-width: 1.0; stroke-dasharray: 2.0,2.0;" width="10" x="390.5" y="464"/><text fill="#000000" font-family="Hiragino Sans GB" font-size="12" font-style="italic" lengthAdjust="spacingAndGlyphs" textLength="8" x="391.5" y="481.56">E</text><line style="stroke: #A80036; stroke-width: 1.5;" x1="310.5" x2="396.5" y1="499" y2="499"/><line style="stroke: #A80036; stroke-width: 1.5;" x1="310.5" x2="396.5" y1="507" y2="507"/><!--MD5=[00c6061cd689d4b62cd15f6dc66e35a4]
class RandomAccess--><rect fill="#FEFECE" filter="url(#f4xu83jhl7wpl)" height="48" id="RandomAccess" style="stroke: #A80036; stroke-width: 1.5;" width="133" x="212" y="359"/><ellipse cx="227" cy="375" fill="#B4A7E5" rx="11" ry="11" style="stroke: #A80036; stroke-width: 1.0;"/><path d="M223.4277,371.2651 L223.4277,369.1069 L230.8071,369.1069 L230.8071,371.2651 L228.3418,371.2651 L228.3418,379.3418 L230.8071,379.3418 L230.8071,381.5 L223.4277,381.5 L223.4277,379.3418 L225.8931,379.3418 L225.8931,371.2651 Z "/><text fill="#000000" font-family="Hiragino Sans GB" font-size="12" font-style="italic" lengthAdjust="spacingAndGlyphs" textLength="101" x="241" y="382.56">RandomAccess</text><line style="stroke: #A80036; stroke-width: 1.5;" x1="213" x2="344" y1="391" y2="391"/><line style="stroke: #A80036; stroke-width: 1.5;" x1="213" x2="344" y1="399" y2="399"/><!--MD5=[f62eaa6c4d43571d0e4c76098fe1b59f]
class Cloneable--><rect fill="#FEFECE" filter="url(#f4xu83jhl7wpl)" height="48" id="Cloneable" style="stroke: #A80036; stroke-width: 1.5;" width="96" x="380.5" y="359"/><ellipse cx="395.5" cy="375" fill="#B4A7E5" rx="11" ry="11" style="stroke: #A80036; stroke-width: 1.0;"/><path d="M391.9277,371.2651 L391.9277,369.1069 L399.3071,369.1069 L399.3071,371.2651 L396.8418,371.2651 L396.8418,379.3418 L399.3071,379.3418 L399.3071,381.5 L391.9277,381.5 L391.9277,379.3418 L394.3931,379.3418 L394.3931,371.2651 Z "/><text fill="#000000" font-family="Hiragino Sans GB" font-size="12" font-style="italic" lengthAdjust="spacingAndGlyphs" textLength="64" x="409.5" y="382.56">Cloneable</text><line style="stroke: #A80036; stroke-width: 1.5;" x1="381.5" x2="475.5" y1="391" y2="391"/><line style="stroke: #A80036; stroke-width: 1.5;" x1="381.5" x2="475.5" y1="399" y2="399"/><!--MD5=[30609b773d1acd1d8ef4d49cf63668f8]
reverse link Iterable to Collection--><path d="M114.5,103.02 C114.5,116.58 114.5,131.04 114.5,142.68 " fill="none" id="Iterable&lt;-Collection" style="stroke: #A80036; stroke-width: 1.0;"/><polygon fill="none" points="107.5,103,114.5,83,121.5,103,107.5,103" style="stroke: #A80036; stroke-width: 1.0;"/><!--MD5=[0159284274f96a472eb2618ad803aaca]
reverse link Collection to List--><path d="M86.44,207.66 C76.19,222.15 64.92,238.07 56,250.68 " fill="none" id="Collection&lt;-List" style="stroke: #A80036; stroke-width: 1.0;"/><polygon fill="none" points="80.96,203.28,98.23,191,92.39,211.37,80.96,203.28" style="stroke: #A80036; stroke-width: 1.0;"/><!--MD5=[1822909749df1453bdd84de7a60a3406]
reverse link Collection to AbstractCollection--><path d="M142.93,207.66 C153.32,222.15 164.74,238.07 173.78,250.68 " fill="none" id="Collection&lt;-AbstractCollection" style="stroke: #A80036; stroke-width: 1.0; stroke-dasharray: 7.0,7.0;"/><polygon fill="none" points="136.96,211.33,130.99,191,148.33,203.18,136.96,211.33" style="stroke: #A80036; stroke-width: 1.0;"/><!--MD5=[7a3a52e8f65ef1a8d8d29530ea5cd870]
reverse link AbstractCollection to AbstractList--><path d="M162.07,315.66 C151.68,330.15 140.26,346.07 131.22,358.68 " fill="none" id="AbstractCollection&lt;-AbstractList" style="stroke: #A80036; stroke-width: 1.0;"/><polygon fill="none" points="156.67,311.18,174.01,299,168.04,319.33,156.67,311.18" style="stroke: #A80036; stroke-width: 1.0;"/><!--MD5=[00308d07b6a5721fb0cf5861877e6652]
reverse link List to AbstractList--><path d="M67.56,315.66 C77.81,330.15 89.08,346.07 98,358.68 " fill="none" id="List&lt;-AbstractList" style="stroke: #A80036; stroke-width: 1.0; stroke-dasharray: 7.0,7.0;"/><polygon fill="none" points="61.61,319.37,55.77,299,73.04,311.28,61.61,319.37" style="stroke: #A80036; stroke-width: 1.0;"/><!--MD5=[029fee95a863c347e386f0437ffbfb92]
reverse link AbstractList to Vector--><path d="M168.38,417.38 C176.98,422.2 185.89,426.91 194.5,431 C232.27,448.93 277.06,465.12 309.46,475.99 " fill="none" id="AbstractList&lt;-Vector" style="stroke: #A80036; stroke-width: 1.0;"/><polygon fill="none" points="164.57,423.26,150.8,407.15,171.61,411.16,164.57,423.26" style="stroke: #A80036; stroke-width: 1.0;"/><!--MD5=[a44f2d1c094cf30c2279fd55ae317c71]
reverse link RandomAccess to Vector--><path d="M306.56,423.66 C316.81,438.15 328.08,454.07 337,466.68 " fill="none" id="RandomAccess&lt;-Vector" style="stroke: #A80036; stroke-width: 1.0; stroke-dasharray: 7.0,7.0;"/><polygon fill="none" points="300.61,427.37,294.77,407,312.04,419.28,300.61,427.37" style="stroke: #A80036; stroke-width: 1.0;"/><!--MD5=[a5cd9f945d7afa44c0b97109571d6906]
reverse link Cloneable to Vector--><path d="M400.44,423.66 C390.19,438.15 378.92,454.07 370,466.68 " fill="none" id="Cloneable&lt;-Vector" style="stroke: #A80036; stroke-width: 1.0; stroke-dasharray: 7.0,7.0;"/><polygon fill="none" points="394.96,419.28,412.23,407,406.39,427.37,394.96,419.28" style="stroke: #A80036; stroke-width: 1.0;"/><!--MD5=[06cc5ce6f124dbc90d33fac80f4744b1]
reverse link java.io.Serializable to Vector--><path d="M516.01,418.31 C508.93,422.8 501.62,427.17 494.5,431 C463.19,447.85 426.03,463.23 397.71,474.06 " fill="none" id="java.io.Serializable&lt;-Vector" style="stroke: #A80036; stroke-width: 1.0; stroke-dasharray: 7.0,7.0;"/><polygon fill="none" points="512.37,412.32,532.91,407.12,520.1,424,512.37,412.32" style="stroke: #A80036; stroke-width: 1.0;"/><!--MD5=[40184e2245789eefcee808947b61b374]
@startuml
skinparam defaultFontName Hiragino Sans GB

title <b>Vector</b>

interface Iterable<E>

interface Collection<E> extends Iterable

interface List<E> extends Collection

abstract class AbstractCollection<E> implements Collection

abstract class AbstractList<E> extends AbstractCollection implements List

class Vector<E> extends AbstractList implements RandomAccess, Cloneable, java.io.Serializable

@enduml

PlantUML version 1.2019.12(Sun Nov 03 18:24:54 CST 2019)
(APACHE source distribution)
Java Runtime: OpenJDK Runtime Environment
JVM: OpenJDK 64-Bit Server VM
Java Version: 11.0.6+10-LTS
Operating System: Mac OS X
Default Encoding: UTF-8
Language: en
Country: CN
--></g></svg>