<?xml version="1.0" encoding="UTF-8" standalone="no"?><svg xmlns="http://www.w3.org/2000/svg" xmlns:xlink="http://www.w3.org/1999/xlink" contentScriptType="application/ecmascript" contentStyleType="text/css" height="397px" preserveAspectRatio="none" style="width:640px;height:397px;" version="1.1" viewBox="0 0 640 397" width="640px" zoomAndPan="magnify"><defs><filter height="300%" id="fvq5ajqyuvqyy" width="300%" x="-1" y="-1"><feGaussianBlur result="blurOut" stdDeviation="2.0"/><feColorMatrix in="blurOut" result="blurOut2" type="matrix" values="0 0 0 0 0 0 0 0 0 0 0 0 0 0 0 0 0 0 .4 0"/><feOffset dx="4.0" dy="4.0" in="blurOut2" result="blurOut3"/><feBlend in="SourceGraphic" in2="blurOut3" mode="normal"/></filter></defs><g><text fill="#000000" font-family="Hiragino Sans GB" font-size="18" font-weight="bold" lengthAdjust="spacingAndGlyphs" textLength="108" x="269" y="24.84">工厂方法模式</text><!--MD5=[72136138052d025cffdce3c22fbd185f]
class Product--><rect fill="#FEFECE" filter="url(#fvq5ajqyuvqyy)" height="48" id="Product" style="stroke: #A80036; stroke-width: 1.5;" width="84" x="464.5" y="132"/><ellipse cx="479.5" cy="148" fill="#A9DCDF" rx="11" ry="11" style="stroke: #A80036; stroke-width: 1.0;"/><path d="M479.6133,143.5981 L478.4595,148.6699 L480.7754,148.6699 Z M478.1191,141.3569 L481.1157,141.3569 L484.4609,153.75 L482.0122,153.75 L481.2485,150.687 L477.9697,150.687 L477.2227,153.75 L474.7739,153.75 Z "/><text fill="#000000" font-family="Hiragino Sans GB" font-size="12" font-style="italic" lengthAdjust="spacingAndGlyphs" textLength="52" x="493.5" y="155.56">Product</text><line style="stroke: #A80036; stroke-width: 1.5;" x1="465.5" x2="547.5" y1="164" y2="164"/><line style="stroke: #A80036; stroke-width: 1.5;" x1="465.5" x2="547.5" y1="172" y2="172"/><path d="M392,35 L392,64.5 A0,0 0 0 0 392,64.5 L502.5,64.5 L506.5,131.75 L510.5,64.5 L621,64.5 A0,0 0 0 0 621,64.5 L621,45 L611,35 L392,35 A0,0 0 0 0 392,35 " fill="#FBFB77" filter="url(#fvq5ajqyuvqyy)" style="stroke: #A80036; stroke-width: 1.0;"/><path d="M611,35 L611,45 L621,45 L611,35 " fill="#FBFB77" style="stroke: #A80036; stroke-width: 1.0;"/><text fill="#000000" font-family="Hiragino Sans GB" font-size="13" lengthAdjust="spacingAndGlyphs" textLength="208" x="398" y="57.94">定义工厂方法所创建的对象的接口。</text><!--MD5=[990132e04f994323e3060f5453bb4352]
class ConcreteProduct--><rect fill="#FEFECE" filter="url(#fvq5ajqyuvqyy)" height="48" id="ConcreteProduct" style="stroke: #A80036; stroke-width: 1.5;" width="145" x="434" y="248"/><ellipse cx="449" cy="264" fill="#ADD1B2" rx="11" ry="11" style="stroke: #A80036; stroke-width: 1.0;"/><path d="M451.4731,270.1431 Q450.8921,270.4419 450.2529,270.5913 Q449.6138,270.7407 448.9082,270.7407 Q446.4014,270.7407 445.0815,269.0889 Q443.7617,267.437 443.7617,264.3159 Q443.7617,261.1865 445.0815,259.5347 Q446.4014,257.8828 448.9082,257.8828 Q449.6138,257.8828 450.2612,258.0322 Q450.9087,258.1816 451.4731,258.4805 L451.4731,261.2031 Q450.8423,260.6221 450.2488,260.3523 Q449.6553,260.0825 449.0244,260.0825 Q447.6797,260.0825 446.9949,261.1492 Q446.3101,262.2158 446.3101,264.3159 Q446.3101,266.4077 446.9949,267.4744 Q447.6797,268.541 449.0244,268.541 Q449.6553,268.541 450.2488,268.2712 Q450.8423,268.0015 451.4731,267.4204 Z "/><text fill="#000000" font-family="Hiragino Sans GB" font-size="12" lengthAdjust="spacingAndGlyphs" textLength="113" x="463" y="271.56">ConcreteProduct</text><line style="stroke: #A80036; stroke-width: 1.5;" x1="435" x2="578" y1="280" y2="280"/><line style="stroke: #A80036; stroke-width: 1.5;" x1="435" x2="578" y1="288" y2="288"/><path d="M387,356 L387,385.5 A0,0 0 0 0 387,385.5 L628,385.5 A0,0 0 0 0 628,385.5 L628,366 L618,356 L511.36,356 L506.74,296.36 L503.36,356 L387,356 A0,0 0 0 0 387,356 " fill="#FBFB77" filter="url(#fvq5ajqyuvqyy)" style="stroke: #A80036; stroke-width: 1.0;"/><path d="M618,356 L618,366 L628,366 L618,356 " fill="#FBFB77" style="stroke: #A80036; stroke-width: 1.0;"/><text fill="#000000" font-family="Hiragino Sans GB" font-size="13" lengthAdjust="spacingAndGlyphs" textLength="220" x="393" y="378.94">具体的产品，实现了 Product 接口。</text><!--MD5=[dcda66dabdb739ec36f1175150e3c9d5]
class Factory--><rect fill="#FEFECE" filter="url(#fvq5ajqyuvqyy)" height="64.5" id="Factory" style="stroke: #A80036; stroke-width: 1.5;" width="176" x="92.5" y="124"/><ellipse cx="150.75" cy="140" fill="#A9DCDF" rx="11" ry="11" style="stroke: #A80036; stroke-width: 1.0;"/><path d="M150.8633,135.5981 L149.7095,140.6699 L152.0254,140.6699 Z M149.3691,133.3569 L152.3657,133.3569 L155.7109,145.75 L153.2622,145.75 L152.4985,142.687 L149.2197,142.687 L148.4727,145.75 L146.0239,145.75 Z "/><text fill="#000000" font-family="Hiragino Sans GB" font-size="12" font-style="italic" lengthAdjust="spacingAndGlyphs" textLength="51" x="171.25" y="147.56">Factory</text><line style="stroke: #A80036; stroke-width: 1.5;" x1="93.5" x2="267.5" y1="156" y2="156"/><line style="stroke: #A80036; stroke-width: 1.5;" x1="93.5" x2="267.5" y1="164" y2="164"/><ellipse cx="103.5" cy="175" fill="#84BE84" rx="3" ry="3" style="stroke: #038048; stroke-width: 1.0;"/><text fill="#000000" font-family="Hiragino Sans GB" font-size="11" font-style="italic" lengthAdjust="spacingAndGlyphs" textLength="150" x="112.5" y="183.18">factoryMethod() :Product</text><path d="M6,35 L6,64.5 A0,0 0 0 0 6,64.5 L176.5,64.5 L180.5,123.75 L184.5,64.5 L355,64.5 A0,0 0 0 0 355,64.5 L355,45 L345,35 L6,35 A0,0 0 0 0 6,35 " fill="#FBFB77" filter="url(#fvq5ajqyuvqyy)" style="stroke: #A80036; stroke-width: 1.0;"/><path d="M345,35 L345,45 L355,45 L345,35 " fill="#FBFB77" style="stroke: #A80036; stroke-width: 1.0;"/><text fill="#000000" font-family="Hiragino Sans GB" font-size="13" lengthAdjust="spacingAndGlyphs" textLength="328" x="12" y="57.94">声明工厂方法， 该方法返回一个 Product 类型的对象。</text><!--MD5=[57d747acae87ef12c390429ef9742637]
class ConcreteFactory--><rect fill="#FEFECE" filter="url(#fvq5ajqyuvqyy)" height="48" id="ConcreteFactory" style="stroke: #A80036; stroke-width: 1.5;" width="144" x="108.5" y="248"/><ellipse cx="123.5" cy="264" fill="#ADD1B2" rx="11" ry="11" style="stroke: #A80036; stroke-width: 1.0;"/><path d="M125.9731,270.1431 Q125.3921,270.4419 124.7529,270.5913 Q124.1138,270.7407 123.4082,270.7407 Q120.9014,270.7407 119.5815,269.0889 Q118.2617,267.437 118.2617,264.3159 Q118.2617,261.1865 119.5815,259.5347 Q120.9014,257.8828 123.4082,257.8828 Q124.1138,257.8828 124.7612,258.0322 Q125.4087,258.1816 125.9731,258.4805 L125.9731,261.2031 Q125.3423,260.6221 124.7488,260.3523 Q124.1553,260.0825 123.5244,260.0825 Q122.1797,260.0825 121.4949,261.1492 Q120.8101,262.2158 120.8101,264.3159 Q120.8101,266.4077 121.4949,267.4744 Q122.1797,268.541 123.5244,268.541 Q124.1553,268.541 124.7488,268.2712 Q125.3423,268.0015 125.9731,267.4204 Z "/><text fill="#000000" font-family="Hiragino Sans GB" font-size="12" lengthAdjust="spacingAndGlyphs" textLength="112" x="137.5" y="271.56">ConcreteFactory</text><line style="stroke: #A80036; stroke-width: 1.5;" x1="109.5" x2="251.5" y1="280" y2="280"/><line style="stroke: #A80036; stroke-width: 1.5;" x1="109.5" x2="251.5" y1="288" y2="288"/><path d="M7.5,356 L7.5,385.5 A0,0 0 0 0 7.5,385.5 L351.5,385.5 A0,0 0 0 0 351.5,385.5 L351.5,366 L341.5,356 L183.64,356 L180.26,296.36 L175.64,356 L7.5,356 A0,0 0 0 0 7.5,356 " fill="#FBFB77" filter="url(#fvq5ajqyuvqyy)" style="stroke: #A80036; stroke-width: 1.0;"/><path d="M341.5,356 L341.5,366 L351.5,366 L341.5,356 " fill="#FBFB77" style="stroke: #A80036; stroke-width: 1.0;"/><text fill="#000000" font-family="Hiragino Sans GB" font-size="13" lengthAdjust="spacingAndGlyphs" textLength="323" x="13.5" y="378.94">重定义工厂方法以返回一个 ConcreteProduct 实例。</text><!--MD5=[03f389ab946010d19db5823a3056b88d]
reverse link Product to ConcreteProduct--><path d="M506.5,200.32 C506.5,216.53 506.5,234.3 506.5,247.96 " fill="none" id="Product&lt;-ConcreteProduct" style="stroke: #A80036; stroke-width: 1.0;"/><polygon fill="none" points="499.5,200.07,506.5,180.07,513.5,200.07,499.5,200.07" style="stroke: #A80036; stroke-width: 1.0;"/><!--MD5=[8a1bed5e34a8ae3c24e8be3232508353]
reverse link Factory to ConcreteFactory--><path d="M180.5,208.35 C180.5,222.16 180.5,236.42 180.5,247.84 " fill="none" id="Factory&lt;-ConcreteFactory" style="stroke: #A80036; stroke-width: 1.0;"/><polygon fill="none" points="173.5,208.15,180.5,188.15,187.5,208.15,173.5,208.15" style="stroke: #A80036; stroke-width: 1.0;"/><!--MD5=[ad5738d6dbbb6cadafe8fafd3a39cee9]
link ConcreteFactory to ConcreteProduct--><path d="M252.77,272 C311.3,272 369.82,272 428.35,272 " fill="none" id="ConcreteFactory-&gt;ConcreteProduct" style="stroke: #A80036; stroke-width: 1.0;"/><polygon fill="#A80036" points="433.65,272,424.65,268,428.65,272,424.65,276,433.65,272" style="stroke: #A80036; stroke-width: 1.0;"/><!--MD5=[6d5316ffcb4a44e26fa3d4dd5b341111]
@startuml
skinparam defaultFontName Hiragino Sans GB

title <b>工厂方法模式</b>

abstract class Product {
}
note top: 定义工厂方法所创建的对象的接口。

class ConcreteProduct {
}
note bottom: 具体的产品，实现了 Product 接口。

abstract class Factory {
  + {abstract} factoryMethod() :Product
}
note top: 声明工厂方法， 该方法返回一个 Product 类型的对象。

class ConcreteFactory {
}
note bottom: 重定义工厂方法以返回一个 ConcreteProduct 实例。

Product <|- - ConcreteProduct
Factory <|- - ConcreteFactory
ConcreteFactory -right-> ConcreteProduct

@enduml

PlantUML version 1.2019.12(Sun Nov 03 18:24:54 CST 2019)
(APACHE source distribution)
Java Runtime: OpenJDK Runtime Environment
JVM: OpenJDK 64-Bit Server VM
Java Version: 11.0.6+10-LTS
Operating System: Mac OS X
Default Encoding: UTF-8
Language: en
Country: CN
--></g></svg>