<?xml version="1.0" encoding="UTF-8" standalone="no"?><svg xmlns="http://www.w3.org/2000/svg" xmlns:xlink="http://www.w3.org/1999/xlink" contentScriptType="application/ecmascript" contentStyleType="text/css" height="499px" preserveAspectRatio="none" style="width:981px;height:499px;" version="1.1" viewBox="0 0 981 499" width="981px" zoomAndPan="magnify"><defs><filter height="300%" id="f1j0zg1rsul86" width="300%" x="-1" y="-1"><feGaussianBlur result="blurOut" stdDeviation="2.0"/><feColorMatrix in="blurOut" result="blurOut2" type="matrix" values="0 0 0 0 0 0 0 0 0 0 0 0 0 0 0 0 0 0 .4 0"/><feOffset dx="4.0" dy="4.0" in="blurOut2" result="blurOut3"/><feBlend in="SourceGraphic" in2="blurOut3" mode="normal"/></filter></defs><g><!--MD5=[0d852700fdad35b7061d461d6907a324]
cluster java.io--><polygon fill="#FFFFFF" filter="url(#f1j0zg1rsul86)" points="829,297,881,297,888,319.4883,959,319.4883,959,396,829,396,829,297" style="stroke: #000000; stroke-width: 1.5;"/><line style="stroke: #000000; stroke-width: 1.5;" x1="829" x2="888" y1="319.4883" y2="319.4883"/><text fill="#000000" font-family="sans-serif" font-size="14" font-weight="bold" lengthAdjust="spacingAndGlyphs" textLength="46" x="833" y="312.5352">java.io</text><!--MD5=[5a5af9b0547913863cbe0ddf55a9ab5e]
class java.io.Serializable--><rect fill="#FEFECE" filter="url(#f1j0zg1rsul86)" height="48" id="java.io.Serializable" style="stroke: #A80036; stroke-width: 1.5;" width="98" x="845" y="332"/><ellipse cx="860" cy="348" fill="#B4A7E5" rx="11" ry="11" style="stroke: #A80036; stroke-width: 1.0;"/><path d="M856.4277,344.2651 L856.4277,342.1069 L863.8071,342.1069 L863.8071,344.2651 L861.3418,344.2651 L861.3418,352.3418 L863.8071,352.3418 L863.8071,354.5 L856.4277,354.5 L856.4277,352.3418 L858.8931,352.3418 L858.8931,344.2651 Z "/><text fill="#000000" font-family="sans-serif" font-size="12" font-style="italic" lengthAdjust="spacingAndGlyphs" textLength="66" x="874" y="352.5352">Serializable</text><line style="stroke: #A80036; stroke-width: 1.5;" x1="846" x2="942" y1="364" y2="364"/><line style="stroke: #A80036; stroke-width: 1.5;" x1="846" x2="942" y1="372" y2="372"/><!--MD5=[47de47a8b5f06cbc5e036fae0a9149b7]
class Iterable--><rect fill="#FEFECE" filter="url(#f1j0zg1rsul86)" height="48" id="Iterable" style="stroke: #A80036; stroke-width: 1.5;" width="87" x="137.5" y="8"/><ellipse cx="152.5" cy="24" fill="#B4A7E5" rx="11" ry="11" style="stroke: #A80036; stroke-width: 1.0;"/><path d="M148.9277,20.2651 L148.9277,18.1069 L156.3071,18.1069 L156.3071,20.2651 L153.8418,20.2651 L153.8418,28.3418 L156.3071,28.3418 L156.3071,30.5 L148.9277,30.5 L148.9277,28.3418 L151.3931,28.3418 L151.3931,20.2651 Z "/><text fill="#000000" font-family="sans-serif" font-size="12" font-style="italic" lengthAdjust="spacingAndGlyphs" textLength="44" x="166.5" y="28.5352">Iterable</text><rect fill="#FFFFFF" height="16.1328" style="stroke: #000000; stroke-width: 1.0; stroke-dasharray: 2.0,2.0;" width="9" x="218.5" y="5"/><text fill="#000000" font-family="sans-serif" font-size="12" font-style="italic" lengthAdjust="spacingAndGlyphs" textLength="7" x="219.5" y="17.6016">E</text><line style="stroke: #A80036; stroke-width: 1.5;" x1="138.5" x2="223.5" y1="40" y2="40"/><line style="stroke: #A80036; stroke-width: 1.5;" x1="138.5" x2="223.5" y1="48" y2="48"/><!--MD5=[c160724f8e3bb89ca8141a12554ac2e3]
class Collection--><rect fill="#FEFECE" filter="url(#f1j0zg1rsul86)" height="48" id="Collection" style="stroke: #A80036; stroke-width: 1.5;" width="98" x="132" y="116"/><ellipse cx="147" cy="132" fill="#B4A7E5" rx="11" ry="11" style="stroke: #A80036; stroke-width: 1.0;"/><path d="M143.4277,128.2651 L143.4277,126.1069 L150.8071,126.1069 L150.8071,128.2651 L148.3418,128.2651 L148.3418,136.3418 L150.8071,136.3418 L150.8071,138.5 L143.4277,138.5 L143.4277,136.3418 L145.8931,136.3418 L145.8931,128.2651 Z "/><text fill="#000000" font-family="sans-serif" font-size="12" font-style="italic" lengthAdjust="spacingAndGlyphs" textLength="55" x="161" y="136.5352">Collection</text><rect fill="#FFFFFF" height="16.1328" style="stroke: #000000; stroke-width: 1.0; stroke-dasharray: 2.0,2.0;" width="9" x="224" y="113"/><text fill="#000000" font-family="sans-serif" font-size="12" font-style="italic" lengthAdjust="spacingAndGlyphs" textLength="7" x="225" y="125.6016">E</text><line style="stroke: #A80036; stroke-width: 1.5;" x1="133" x2="229" y1="148" y2="148"/><line style="stroke: #A80036; stroke-width: 1.5;" x1="133" x2="229" y1="156" y2="156"/><!--MD5=[8e34b16d8d8f96f4a11290cd523ed859]
class AbstractCollection--><rect fill="#FEFECE" filter="url(#f1j0zg1rsul86)" height="48" id="AbstractCollection" style="stroke: #A80036; stroke-width: 1.5;" width="146" x="6" y="224"/><ellipse cx="21" cy="240" fill="#A9DCDF" rx="11" ry="11" style="stroke: #A80036; stroke-width: 1.0;"/><path d="M21.1133,235.5981 L19.9595,240.6699 L22.2754,240.6699 Z M19.6191,233.3569 L22.6157,233.3569 L25.9609,245.75 L23.5122,245.75 L22.7485,242.687 L19.4697,242.687 L18.7227,245.75 L16.2739,245.75 Z "/><text fill="#000000" font-family="sans-serif" font-size="12" font-style="italic" lengthAdjust="spacingAndGlyphs" textLength="103" x="35" y="244.5352">AbstractCollection</text><rect fill="#FFFFFF" height="16.1328" style="stroke: #000000; stroke-width: 1.0; stroke-dasharray: 2.0,2.0;" width="9" x="146" y="221"/><text fill="#000000" font-family="sans-serif" font-size="12" font-style="italic" lengthAdjust="spacingAndGlyphs" textLength="7" x="147" y="233.6016">E</text><line style="stroke: #A80036; stroke-width: 1.5;" x1="7" x2="151" y1="256" y2="256"/><line style="stroke: #A80036; stroke-width: 1.5;" x1="7" x2="151" y1="264" y2="264"/><!--MD5=[3d4177ac58b4411586d067f34e84928f]
class List--><rect fill="#FEFECE" filter="url(#f1j0zg1rsul86)" height="48" id="List" style="stroke: #A80036; stroke-width: 1.5;" width="62" x="252" y="224"/><ellipse cx="267" cy="240" fill="#B4A7E5" rx="11" ry="11" style="stroke: #A80036; stroke-width: 1.0;"/><path d="M263.4277,236.2651 L263.4277,234.1069 L270.8071,234.1069 L270.8071,236.2651 L268.3418,236.2651 L268.3418,244.3418 L270.8071,244.3418 L270.8071,246.5 L263.4277,246.5 L263.4277,244.3418 L265.8931,244.3418 L265.8931,236.2651 Z "/><text fill="#000000" font-family="sans-serif" font-size="12" font-style="italic" lengthAdjust="spacingAndGlyphs" textLength="19" x="281" y="244.5352">List</text><rect fill="#FFFFFF" height="16.1328" style="stroke: #000000; stroke-width: 1.0; stroke-dasharray: 2.0,2.0;" width="9" x="308" y="221"/><text fill="#000000" font-family="sans-serif" font-size="12" font-style="italic" lengthAdjust="spacingAndGlyphs" textLength="7" x="309" y="233.6016">E</text><line style="stroke: #A80036; stroke-width: 1.5;" x1="253" x2="313" y1="256" y2="256"/><line style="stroke: #A80036; stroke-width: 1.5;" x1="253" x2="313" y1="264" y2="264"/><!--MD5=[b4fa10df80476353258f72a232547d63]
class AbstractList--><rect fill="#FEFECE" filter="url(#f1j0zg1rsul86)" height="48" id="AbstractList" style="stroke: #A80036; stroke-width: 1.5;" width="110" x="24" y="332"/><ellipse cx="39" cy="348" fill="#A9DCDF" rx="11" ry="11" style="stroke: #A80036; stroke-width: 1.0;"/><path d="M39.1133,343.5981 L37.9595,348.6699 L40.2754,348.6699 Z M37.6191,341.3569 L40.6157,341.3569 L43.9609,353.75 L41.5122,353.75 L40.7485,350.687 L37.4697,350.687 L36.7227,353.75 L34.2739,353.75 Z "/><text fill="#000000" font-family="sans-serif" font-size="12" font-style="italic" lengthAdjust="spacingAndGlyphs" textLength="67" x="53" y="352.5352">AbstractList</text><rect fill="#FFFFFF" height="16.1328" style="stroke: #000000; stroke-width: 1.0; stroke-dasharray: 2.0,2.0;" width="9" x="128" y="329"/><text fill="#000000" font-family="sans-serif" font-size="12" font-style="italic" lengthAdjust="spacingAndGlyphs" textLength="7" x="129" y="341.6016">E</text><line style="stroke: #A80036; stroke-width: 1.5;" x1="25" x2="133" y1="364" y2="364"/><line style="stroke: #A80036; stroke-width: 1.5;" x1="25" x2="133" y1="372" y2="372"/><!--MD5=[ab8871ed637f40707b866ba6597734bc]
class ArrayList--><rect fill="#FEFECE" filter="url(#f1j0zg1rsul86)" height="48" id="ArrayList" style="stroke: #A80036; stroke-width: 1.5;" width="93" x="449.5" y="440"/><ellipse cx="464.5" cy="456" fill="#ADD1B2" rx="11" ry="11" style="stroke: #A80036; stroke-width: 1.0;"/><path d="M466.9731,462.1431 Q466.3921,462.4419 465.7529,462.5913 Q465.1138,462.7407 464.4082,462.7407 Q461.9014,462.7407 460.5815,461.0889 Q459.2617,459.437 459.2617,456.3159 Q459.2617,453.1865 460.5815,451.5347 Q461.9014,449.8828 464.4082,449.8828 Q465.1138,449.8828 465.7612,450.0322 Q466.4087,450.1816 466.9731,450.4805 L466.9731,453.2031 Q466.3423,452.6221 465.7488,452.3523 Q465.1553,452.0825 464.5244,452.0825 Q463.1797,452.0825 462.4949,453.1492 Q461.8101,454.2158 461.8101,456.3159 Q461.8101,458.4077 462.4949,459.4744 Q463.1797,460.541 464.5244,460.541 Q465.1553,460.541 465.7488,460.2712 Q466.3423,460.0015 466.9731,459.4204 Z "/><text fill="#000000" font-family="sans-serif" font-size="12" lengthAdjust="spacingAndGlyphs" textLength="50" x="478.5" y="460.5352">ArrayList</text><rect fill="#FFFFFF" height="16.1328" style="stroke: #000000; stroke-width: 1.0; stroke-dasharray: 2.0,2.0;" width="9" x="536.5" y="437"/><text fill="#000000" font-family="sans-serif" font-size="12" font-style="italic" lengthAdjust="spacingAndGlyphs" textLength="7" x="537.5" y="449.6016">E</text><line style="stroke: #A80036; stroke-width: 1.5;" x1="450.5" x2="541.5" y1="472" y2="472"/><line style="stroke: #A80036; stroke-width: 1.5;" x1="450.5" x2="541.5" y1="480" y2="480"/><!--MD5=[00c6061cd689d4b62cd15f6dc66e35a4]
class RandomAccess--><rect fill="#FEFECE" filter="url(#f1j0zg1rsul86)" height="48" id="RandomAccess" style="stroke: #A80036; stroke-width: 1.5;" width="119" x="436.5" y="332"/><ellipse cx="451.5" cy="348" fill="#B4A7E5" rx="11" ry="11" style="stroke: #A80036; stroke-width: 1.0;"/><path d="M447.9277,344.2651 L447.9277,342.1069 L455.3071,342.1069 L455.3071,344.2651 L452.8418,344.2651 L452.8418,352.3418 L455.3071,352.3418 L455.3071,354.5 L447.9277,354.5 L447.9277,352.3418 L450.3931,352.3418 L450.3931,344.2651 Z "/><text fill="#000000" font-family="sans-serif" font-size="12" font-style="italic" lengthAdjust="spacingAndGlyphs" textLength="87" x="465.5" y="352.5352">RandomAccess</text><line style="stroke: #A80036; stroke-width: 1.5;" x1="437.5" x2="554.5" y1="364" y2="364"/><line style="stroke: #A80036; stroke-width: 1.5;" x1="437.5" x2="554.5" y1="372" y2="372"/><!--MD5=[f62eaa6c4d43571d0e4c76098fe1b59f]
class Cloneable--><rect fill="#FEFECE" filter="url(#f1j0zg1rsul86)" height="48" id="Cloneable" style="stroke: #A80036; stroke-width: 1.5;" width="89" x="655.5" y="332"/><ellipse cx="670.5" cy="348" fill="#B4A7E5" rx="11" ry="11" style="stroke: #A80036; stroke-width: 1.0;"/><path d="M666.9277,344.2651 L666.9277,342.1069 L674.3071,342.1069 L674.3071,344.2651 L671.8418,344.2651 L671.8418,352.3418 L674.3071,352.3418 L674.3071,354.5 L666.9277,354.5 L666.9277,352.3418 L669.3931,352.3418 L669.3931,344.2651 Z "/><text fill="#000000" font-family="sans-serif" font-size="12" font-style="italic" lengthAdjust="spacingAndGlyphs" textLength="57" x="684.5" y="352.5352">Cloneable</text><line style="stroke: #A80036; stroke-width: 1.5;" x1="656.5" x2="743.5" y1="364" y2="364"/><line style="stroke: #A80036; stroke-width: 1.5;" x1="656.5" x2="743.5" y1="372" y2="372"/><!--MD5=[30609b773d1acd1d8ef4d49cf63668f8]
reverse link Iterable to Collection--><path d="M181,76.02 C181,89.58 181,104.04 181,115.68 " fill="none" id="Iterable&lt;-Collection" style="stroke: #A80036; stroke-width: 1.0;"/><polygon fill="none" points="174,76,181,56,188,76,174,76" style="stroke: #A80036; stroke-width: 1.0;"/><!--MD5=[1822909749df1453bdd84de7a60a3406]
reverse link Collection to AbstractCollection--><path d="M144.67,178.75 C130.25,193.74 114.11,210.51 101.44,223.68 " fill="none" id="Collection&lt;-AbstractCollection" style="stroke: #A80036; stroke-width: 1.0; stroke-dasharray: 7.0,7.0;"/><polygon fill="none" points="139.96,173.56,158.87,164,150.04,183.27,139.96,173.56" style="stroke: #A80036; stroke-width: 1.0;"/><!--MD5=[0159284274f96a472eb2618ad803aaca]
reverse link Collection to List--><path d="M217.33,178.75 C231.75,193.74 247.89,210.51 260.56,223.68 " fill="none" id="Collection&lt;-List" style="stroke: #A80036; stroke-width: 1.0;"/><polygon fill="none" points="211.96,183.27,203.13,164,222.04,173.56,211.96,183.27" style="stroke: #A80036; stroke-width: 1.0;"/><!--MD5=[7a3a52e8f65ef1a8d8d29530ea5cd870]
reverse link AbstractCollection to AbstractList--><path d="M79,292.02 C79,305.58 79,320.04 79,331.68 " fill="none" id="AbstractCollection&lt;-AbstractList" style="stroke: #A80036; stroke-width: 1.0;"/><polygon fill="none" points="72,292,79,272,86,292,72,292" style="stroke: #A80036; stroke-width: 1.0;"/><!--MD5=[00308d07b6a5721fb0cf5861877e6652]
reverse link List to AbstractList--><path d="M233.63,274.65 C200,292.13 155.85,315.07 123.34,331.96 " fill="none" id="List&lt;-AbstractList" style="stroke: #A80036; stroke-width: 1.0; stroke-dasharray: 7.0,7.0;"/><polygon fill="none" points="230.6,268.34,251.57,265.33,237.05,280.76,230.6,268.34" style="stroke: #A80036; stroke-width: 1.0;"/><!--MD5=[40e4bb1af59cca28d4643aaff05088cc]
reverse link AbstractList to ArrayList--><path d="M153.12,385.88 C171.23,392.36 190.68,398.83 209,404 C292.48,427.54 392.07,445.89 449.28,455.53 " fill="none" id="AbstractList&lt;-ArrayList" style="stroke: #A80036; stroke-width: 1.0;"/><polygon fill="none" points="150.47,392.36,134.1,378.91,155.28,379.22,150.47,392.36" style="stroke: #A80036; stroke-width: 1.0;"/><!--MD5=[de70471c1aeb5b441f3202b5f0dab243]
reverse link List to ArrayList--><path d="M303.05,290.19 C321.1,324.01 350.24,371.46 386,404 C404.43,420.77 428.5,434.38 449.42,444.29 " fill="none" id="List&lt;-ArrayList" style="stroke: #A80036; stroke-width: 1.0; stroke-dasharray: 7.0,7.0;"/><polygon fill="none" points="296.65,293.06,293.74,272.07,309.11,286.66,296.65,293.06" style="stroke: #A80036; stroke-width: 1.0;"/><!--MD5=[b3461131813fa2d81b0c8f338f9aabbe]
reverse link RandomAccess to ArrayList--><path d="M496,400.02 C496,413.58 496,428.04 496,439.68 " fill="none" id="RandomAccess&lt;-ArrayList" style="stroke: #A80036; stroke-width: 1.0; stroke-dasharray: 7.0,7.0;"/><polygon fill="none" points="489,400,496,380,503,400,489,400" style="stroke: #A80036; stroke-width: 1.0;"/><!--MD5=[a331cb0ccba2c1e30feb8188a888e006]
reverse link Cloneable to ArrayList--><path d="M637.59,389.43 C606.23,405.73 568.96,425.09 540.53,439.86 " fill="none" id="Cloneable&lt;-ArrayList" style="stroke: #A80036; stroke-width: 1.0; stroke-dasharray: 7.0,7.0;"/><polygon fill="none" points="634.76,383.01,655.74,380,641.22,395.43,634.76,383.01" style="stroke: #A80036; stroke-width: 1.0;"/><!--MD5=[e1bb95529590ff4a4ada5b499bc912c6]
reverse link java.io.Serializable to ArrayList--><path d="M833.04,388.83 C820.68,394.46 807.6,399.84 795,404 C708.08,432.71 602.09,449.56 542.5,457.47 " fill="none" id="java.io.Serializable&lt;-ArrayList" style="stroke: #A80036; stroke-width: 1.0; stroke-dasharray: 7.0,7.0;"/><polygon fill="none" points="830.03,382.51,851.1,380.23,836.06,395.15,830.03,382.51" style="stroke: #A80036; stroke-width: 1.0;"/><!--MD5=[ed3ec539fcf4533129da81607cc692ca]
@startuml
skinparam nodesep 100

interface Iterable<E>

interface Collection<E> extends Iterable

abstract class AbstractCollection<E> implements Collection

interface List<E>

interface List<E> extends Collection

abstract class AbstractList<E> extends AbstractCollection implements List

class ArrayList<E> extends AbstractList implements List, RandomAccess, Cloneable, java.io.Serializable

@enduml

PlantUML version 1.2019.12(Sun Nov 03 18:24:54 CST 2019)
(APACHE source distribution)
Java Runtime: OpenJDK Runtime Environment
JVM: OpenJDK 64-Bit Server VM
Java Version: 11.0.6+10-LTS
Operating System: Mac OS X
Default Encoding: UTF-8
Language: en
Country: CN
--></g></svg>