<?xml version="1.0" encoding="UTF-8" standalone="no"?><svg xmlns="http://www.w3.org/2000/svg" xmlns:xlink="http://www.w3.org/1999/xlink" contentScriptType="application/ecmascript" contentStyleType="text/css" height="304px" preserveAspectRatio="none" style="width:283px;height:304px;" version="1.1" viewBox="0 0 283 304" width="283px" zoomAndPan="magnify"><defs><filter height="300%" id="ftw44w1tadlhs" width="300%" x="-1" y="-1"><feGaussianBlur result="blurOut" stdDeviation="2.0"/><feColorMatrix in="blurOut" result="blurOut2" type="matrix" values="0 0 0 0 0 0 0 0 0 0 0 0 0 0 0 0 0 0 .4 0"/><feOffset dx="4.0" dy="4.0" in="blurOut2" result="blurOut3"/><feBlend in="SourceGraphic" in2="blurOut3" mode="normal"/></filter></defs><g><text fill="#000000" font-family="sans-serif" font-size="18" font-weight="bold" lengthAdjust="spacingAndGlyphs" textLength="104" x="93" y="17.4023">FutureTask</text><!--MD5=[9473c99003db6b535952ab3e34a44ff8]
class Future--><rect fill="#FEFECE" filter="url(#ftw44w1tadlhs)" height="48" id="Future" style="stroke: #A80036; stroke-width: 1.5;" width="80" x="6" y="29.1992"/><ellipse cx="21" cy="45.1992" fill="#B4A7E5" rx="11" ry="11" style="stroke: #A80036; stroke-width: 1.0;"/><path d="M17.4277,41.4644 L17.4277,39.3062 L24.8071,39.3062 L24.8071,41.4644 L22.3418,41.4644 L22.3418,49.541 L24.8071,49.541 L24.8071,51.6992 L17.4277,51.6992 L17.4277,49.541 L19.8931,49.541 L19.8931,41.4644 Z "/><text fill="#000000" font-family="sans-serif" font-size="12" font-style="italic" lengthAdjust="spacingAndGlyphs" textLength="36" x="35" y="49.7344">Future</text><rect fill="#FFFFFF" height="16.1328" style="stroke: #000000; stroke-width: 1.0; stroke-dasharray: 2.0,2.0;" width="10" x="79" y="26.1992"/><text fill="#000000" font-family="sans-serif" font-size="12" font-style="italic" lengthAdjust="spacingAndGlyphs" textLength="8" x="80" y="38.8008">V</text><line style="stroke: #A80036; stroke-width: 1.5;" x1="7" x2="85" y1="61.1992" y2="61.1992"/><line style="stroke: #A80036; stroke-width: 1.5;" x1="7" x2="85" y1="69.1992" y2="69.1992"/><!--MD5=[040046a1ce00750bc2806bfdd98ffabb]
class RunnableFuture--><rect fill="#FEFECE" filter="url(#ftw44w1tadlhs)" height="48" id="RunnableFuture" style="stroke: #A80036; stroke-width: 1.5;" width="134" x="70" y="137.1992"/><ellipse cx="85" cy="153.1992" fill="#B4A7E5" rx="11" ry="11" style="stroke: #A80036; stroke-width: 1.0;"/><path d="M81.4277,149.4644 L81.4277,147.3062 L88.8071,147.3062 L88.8071,149.4644 L86.3418,149.4644 L86.3418,157.541 L88.8071,157.541 L88.8071,159.6992 L81.4277,159.6992 L81.4277,157.541 L83.8931,157.541 L83.8931,149.4644 Z "/><text fill="#000000" font-family="sans-serif" font-size="12" font-style="italic" lengthAdjust="spacingAndGlyphs" textLength="90" x="99" y="157.7344">RunnableFuture</text><rect fill="#FFFFFF" height="16.1328" style="stroke: #000000; stroke-width: 1.0; stroke-dasharray: 2.0,2.0;" width="10" x="197" y="134.1992"/><text fill="#000000" font-family="sans-serif" font-size="12" font-style="italic" lengthAdjust="spacingAndGlyphs" textLength="8" x="198" y="146.8008">V</text><line style="stroke: #A80036; stroke-width: 1.5;" x1="71" x2="203" y1="169.1992" y2="169.1992"/><line style="stroke: #A80036; stroke-width: 1.5;" x1="71" x2="203" y1="177.1992" y2="177.1992"/><!--MD5=[53ae8b34bebe44116eb8626f99f3fe78]
class Runnable--><rect fill="#FEFECE" filter="url(#ftw44w1tadlhs)" height="48" id="Runnable" style="stroke: #A80036; stroke-width: 1.5;" width="86" x="186" y="29.1992"/><ellipse cx="201" cy="45.1992" fill="#B4A7E5" rx="11" ry="11" style="stroke: #A80036; stroke-width: 1.0;"/><path d="M197.4277,41.4644 L197.4277,39.3062 L204.8071,39.3062 L204.8071,41.4644 L202.3418,41.4644 L202.3418,49.541 L204.8071,49.541 L204.8071,51.6992 L197.4277,51.6992 L197.4277,49.541 L199.8931,49.541 L199.8931,41.4644 Z "/><text fill="#000000" font-family="sans-serif" font-size="12" font-style="italic" lengthAdjust="spacingAndGlyphs" textLength="54" x="215" y="49.7344">Runnable</text><line style="stroke: #A80036; stroke-width: 1.5;" x1="187" x2="271" y1="61.1992" y2="61.1992"/><line style="stroke: #A80036; stroke-width: 1.5;" x1="187" x2="271" y1="69.1992" y2="69.1992"/><!--MD5=[da106da8826f5588c2674395e8a284e0]
class FutureTask--><rect fill="#FEFECE" filter="url(#ftw44w1tadlhs)" height="48" id="FutureTask" style="stroke: #A80036; stroke-width: 1.5;" width="108" x="83" y="245.1992"/><ellipse cx="98" cy="261.1992" fill="#ADD1B2" rx="11" ry="11" style="stroke: #A80036; stroke-width: 1.0;"/><path d="M100.4731,267.3423 Q99.8921,267.6411 99.2529,267.7905 Q98.6138,267.9399 97.9082,267.9399 Q95.4014,267.9399 94.0815,266.2881 Q92.7617,264.6362 92.7617,261.5151 Q92.7617,258.3857 94.0815,256.7339 Q95.4014,255.082 97.9082,255.082 Q98.6138,255.082 99.2612,255.2314 Q99.9087,255.3809 100.4731,255.6797 L100.4731,258.4023 Q99.8423,257.8213 99.2488,257.5515 Q98.6553,257.2817 98.0244,257.2817 Q96.6797,257.2817 95.9949,258.3484 Q95.3101,259.415 95.3101,261.5151 Q95.3101,263.6069 95.9949,264.6736 Q96.6797,265.7402 98.0244,265.7402 Q98.6553,265.7402 99.2488,265.4705 Q99.8423,265.2007 100.4731,264.6196 Z "/><text fill="#000000" font-family="sans-serif" font-size="12" lengthAdjust="spacingAndGlyphs" textLength="64" x="112" y="265.7344">FutureTask</text><rect fill="#FFFFFF" height="16.1328" style="stroke: #000000; stroke-width: 1.0; stroke-dasharray: 2.0,2.0;" width="10" x="184" y="242.1992"/><text fill="#000000" font-family="sans-serif" font-size="12" font-style="italic" lengthAdjust="spacingAndGlyphs" textLength="8" x="185" y="254.8008">V</text><line style="stroke: #A80036; stroke-width: 1.5;" x1="84" x2="190" y1="277.1992" y2="277.1992"/><line style="stroke: #A80036; stroke-width: 1.5;" x1="84" x2="190" y1="285.1992" y2="285.1992"/><!--MD5=[6516fa951603ff95bab074c90fcb65cc]
reverse link Runnable to RunnableFuture--><path d="M195.82,92.4292 C182.92,107.2992 168.55,123.8492 157.24,136.8792 " fill="none" id="Runnable&lt;-RunnableFuture" style="stroke: #A80036; stroke-width: 1.0;"/><polygon fill="none" points="190.64,87.7192,209.04,77.1992,201.21,96.8892,190.64,87.7192" style="stroke: #A80036; stroke-width: 1.0;"/><!--MD5=[4f0746924d19f466b187fb993ddb915d]
reverse link Future to RunnableFuture--><path d="M78.82,92.4292 C91.58,107.2992 105.8,123.8492 116.98,136.8792 " fill="none" id="Future&lt;-RunnableFuture" style="stroke: #A80036; stroke-width: 1.0;"/><polygon fill="none" points="73.46,96.9392,65.75,77.1992,84.08,87.8192,73.46,96.9392" style="stroke: #A80036; stroke-width: 1.0;"/><!--MD5=[67d3981c28f4937633c9862c7aa516ea]
reverse link RunnableFuture to FutureTask--><path d="M137,205.2192 C137,218.7792 137,233.2392 137,244.8792 " fill="none" id="RunnableFuture&lt;-FutureTask" style="stroke: #A80036; stroke-width: 1.0; stroke-dasharray: 7.0,7.0;"/><polygon fill="none" points="130,205.1992,137,185.1992,144,205.1992,130,205.1992" style="stroke: #A80036; stroke-width: 1.0;"/><!--MD5=[339106dd0c1fbf82e5640f83de8068c4]
@startuml
skinparam nodesep 100

title <b>FutureTask</b>

interface Future<V>

interface RunnableFuture<V> extends Runnable, Future

class FutureTask<V> implements RunnableFuture

@enduml

PlantUML version 1.2019.12(Sun Nov 03 18:24:54 CST 2019)
(APACHE source distribution)
Java Runtime: OpenJDK Runtime Environment
JVM: OpenJDK 64-Bit Server VM
Java Version: 11.0.6+10-LTS
Operating System: Mac OS X
Default Encoding: UTF-8
Language: en
Country: CN
--></g></svg>