<?xml version="1.0" encoding="UTF-8" standalone="no"?><svg xmlns="http://www.w3.org/2000/svg" xmlns:xlink="http://www.w3.org/1999/xlink" contentScriptType="application/ecmascript" contentStyleType="text/css" height="303px" preserveAspectRatio="none" style="width:776px;height:303px;" version="1.1" viewBox="0 0 776 303" width="776px" zoomAndPan="magnify"><defs><filter height="300%" id="f1r7xgw8tbz5z5" width="300%" x="-1" y="-1"><feGaussianBlur result="blurOut" stdDeviation="2.0"/><feColorMatrix in="blurOut" result="blurOut2" type="matrix" values="0 0 0 0 0 0 0 0 0 0 0 0 0 0 0 0 0 0 .4 0"/><feOffset dx="4.0" dy="4.0" in="blurOut2" result="blurOut3"/><feBlend in="SourceGraphic" in2="blurOut3" mode="normal"/></filter></defs><g><text fill="#000000" font-family="sans-serif" font-size="18" font-weight="bold" lengthAdjust="spacingAndGlyphs" textLength="241" x="271.5" y="16.708">ChannelHandler 继承体系</text><!--MD5=[0ca6d257d7c74f37a4e3cd5c7eb5eff6]
class ChannelInboundHandler--><rect fill="#FEFECE" filter="url(#f1r7xgw8tbz5z5)" height="48" id="ChannelInboundHandler" style="stroke: #A80036; stroke-width: 1.5;" width="183" x="6" y="136.9531"/><ellipse cx="21" cy="152.9531" fill="#B4A7E5" rx="11" ry="11" style="stroke: #A80036; stroke-width: 1.0;"/><path d="M16.9219,148.7188 L16.9219,146.5625 L24.3125,146.5625 L24.3125,148.7188 L21.8438,148.7188 L21.8438,156.7969 L24.3125,156.7969 L24.3125,158.9531 L16.9219,158.9531 L16.9219,156.7969 L19.3906,156.7969 L19.3906,148.7188 L16.9219,148.7188 Z "/><text fill="#000000" font-family="sans-serif" font-size="12" font-style="italic" lengthAdjust="spacingAndGlyphs" textLength="151" x="35" y="157.1074">ChannelInboundHandler</text><line style="stroke: #A80036; stroke-width: 1.5;" x1="7" x2="188" y1="168.9531" y2="168.9531"/><line style="stroke: #A80036; stroke-width: 1.5;" x1="7" x2="188" y1="176.9531" y2="176.9531"/><!--MD5=[991e8d5ae05e8be03fc323ff71afb7fa]
class ChannelHandler--><rect fill="#FEFECE" filter="url(#f1r7xgw8tbz5z5)" height="48" id="ChannelHandler" style="stroke: #A80036; stroke-width: 1.5;" width="132" x="314.5" y="28.9531"/><ellipse cx="329.5" cy="44.9531" fill="#B4A7E5" rx="11" ry="11" style="stroke: #A80036; stroke-width: 1.0;"/><path d="M325.4219,40.7188 L325.4219,38.5625 L332.8125,38.5625 L332.8125,40.7188 L330.3438,40.7188 L330.3438,48.7969 L332.8125,48.7969 L332.8125,50.9531 L325.4219,50.9531 L325.4219,48.7969 L327.8906,48.7969 L327.8906,40.7188 L325.4219,40.7188 Z "/><text fill="#000000" font-family="sans-serif" font-size="12" font-style="italic" lengthAdjust="spacingAndGlyphs" textLength="100" x="343.5" y="49.1074">ChannelHandler</text><line style="stroke: #A80036; stroke-width: 1.5;" x1="315.5" x2="445.5" y1="60.9531" y2="60.9531"/><line style="stroke: #A80036; stroke-width: 1.5;" x1="315.5" x2="445.5" y1="68.9531" y2="68.9531"/><!--MD5=[d8f0c314c45d639ee3048f3d6db2d16e]
class ChannelOutboundHandler--><rect fill="#FEFECE" filter="url(#f1r7xgw8tbz5z5)" height="48" id="ChannelOutboundHandler" style="stroke: #A80036; stroke-width: 1.5;" width="194" x="571.5" y="136.9531"/><ellipse cx="586.5" cy="152.9531" fill="#B4A7E5" rx="11" ry="11" style="stroke: #A80036; stroke-width: 1.0;"/><path d="M582.4219,148.7188 L582.4219,146.5625 L589.8125,146.5625 L589.8125,148.7188 L587.3438,148.7188 L587.3438,156.7969 L589.8125,156.7969 L589.8125,158.9531 L582.4219,158.9531 L582.4219,156.7969 L584.8906,156.7969 L584.8906,148.7188 L582.4219,148.7188 Z "/><text fill="#000000" font-family="sans-serif" font-size="12" font-style="italic" lengthAdjust="spacingAndGlyphs" textLength="162" x="600.5" y="157.1074">ChannelOutboundHandler</text><line style="stroke: #A80036; stroke-width: 1.5;" x1="572.5" x2="764.5" y1="168.9531" y2="168.9531"/><line style="stroke: #A80036; stroke-width: 1.5;" x1="572.5" x2="764.5" y1="176.9531" y2="176.9531"/><!--MD5=[e147228e8358f5df9b8ea3c10226bcec]
class ChannelHandlerAdapter--><rect fill="#FEFECE" filter="url(#f1r7xgw8tbz5z5)" height="48" id="ChannelHandlerAdapter" style="stroke: #A80036; stroke-width: 1.5;" width="182" x="289.5" y="136.9531"/><ellipse cx="304.5" cy="152.9531" fill="#A9DCDF" rx="11" ry="11" style="stroke: #A80036; stroke-width: 1.0;"/><path d="M304.6094,148.2969 L303.4531,153.375 L305.7813,153.375 L304.6094,148.2969 Z M303.125,146.0625 L306.1094,146.0625 L309.4688,158.4531 L307.0156,158.4531 L306.25,155.3906 L302.9688,155.3906 L302.2188,158.4531 L299.7813,158.4531 L303.125,146.0625 Z "/><text fill="#000000" font-family="sans-serif" font-size="12" font-style="italic" lengthAdjust="spacingAndGlyphs" textLength="150" x="318.5" y="157.1074">ChannelHandlerAdapter</text><line style="stroke: #A80036; stroke-width: 1.5;" x1="290.5" x2="470.5" y1="168.9531" y2="168.9531"/><line style="stroke: #A80036; stroke-width: 1.5;" x1="290.5" x2="470.5" y1="176.9531" y2="176.9531"/><!--MD5=[3d8445d7abde1a2a65c647be3801dbf9]
class ChannelInboundHandlerAdapter--><rect fill="#FEFECE" filter="url(#f1r7xgw8tbz5z5)" height="48" id="ChannelInboundHandlerAdapter" style="stroke: #A80036; stroke-width: 1.5;" width="233" x="97" y="244.9531"/><ellipse cx="112" cy="260.9531" fill="#ADD1B2" rx="11" ry="11" style="stroke: #A80036; stroke-width: 1.0;"/><path d="M114.9688,266.5938 Q114.3906,266.8906 113.75,267.0313 Q113.1094,267.1875 112.4063,267.1875 Q109.9063,267.1875 108.5781,265.5469 Q107.2656,263.8906 107.2656,260.7656 Q107.2656,257.6406 108.5781,255.9844 Q109.9063,254.3281 112.4063,254.3281 Q113.1094,254.3281 113.75,254.4844 Q114.4063,254.6406 114.9688,254.9375 L114.9688,257.6563 Q114.3438,257.0781 113.75,256.8125 Q113.1563,256.5313 112.5313,256.5313 Q111.1875,256.5313 110.5,257.6094 Q109.8125,258.6719 109.8125,260.7656 Q109.8125,262.8594 110.5,263.9375 Q111.1875,265 112.5313,265 Q113.1563,265 113.75,264.7344 Q114.3438,264.4531 114.9688,263.875 L114.9688,266.5938 Z "/><text fill="#000000" font-family="sans-serif" font-size="12" lengthAdjust="spacingAndGlyphs" textLength="201" x="126" y="265.1074">ChannelInboundHandlerAdapter</text><line style="stroke: #A80036; stroke-width: 1.5;" x1="98" x2="329" y1="276.9531" y2="276.9531"/><line style="stroke: #A80036; stroke-width: 1.5;" x1="98" x2="329" y1="284.9531" y2="284.9531"/><!--MD5=[23f2a36a0652e530fb98c8009b6d91d0]
class ChannelOutboundHandlerAdapter--><rect fill="#FEFECE" filter="url(#f1r7xgw8tbz5z5)" height="48" id="ChannelOutboundHandlerAdapter" style="stroke: #A80036; stroke-width: 1.5;" width="244" x="488.5" y="244.9531"/><ellipse cx="503.5" cy="260.9531" fill="#ADD1B2" rx="11" ry="11" style="stroke: #A80036; stroke-width: 1.0;"/><path d="M506.4688,266.5938 Q505.8906,266.8906 505.25,267.0313 Q504.6094,267.1875 503.9063,267.1875 Q501.4063,267.1875 500.0781,265.5469 Q498.7656,263.8906 498.7656,260.7656 Q498.7656,257.6406 500.0781,255.9844 Q501.4063,254.3281 503.9063,254.3281 Q504.6094,254.3281 505.25,254.4844 Q505.9063,254.6406 506.4688,254.9375 L506.4688,257.6563 Q505.8438,257.0781 505.25,256.8125 Q504.6563,256.5313 504.0313,256.5313 Q502.6875,256.5313 502,257.6094 Q501.3125,258.6719 501.3125,260.7656 Q501.3125,262.8594 502,263.9375 Q502.6875,265 504.0313,265 Q504.6563,265 505.25,264.7344 Q505.8438,264.4531 506.4688,263.875 L506.4688,266.5938 Z "/><text fill="#000000" font-family="sans-serif" font-size="12" lengthAdjust="spacingAndGlyphs" textLength="212" x="517.5" y="265.1074">ChannelOutboundHandlerAdapter</text><line style="stroke: #A80036; stroke-width: 1.5;" x1="489.5" x2="731.5" y1="276.9531" y2="276.9531"/><line style="stroke: #A80036; stroke-width: 1.5;" x1="489.5" x2="731.5" y1="284.9531" y2="284.9531"/><!--MD5=[7f366c73dd329643a47fadff98fde3dd]
reverse link ChannelHandler to ChannelInboundHandler--><path d="M298.502,84.2456 C254.5166,101.0316 201.1519,121.3969 160.4654,136.9239 " fill="none" id="ChannelHandler&lt;-ChannelInboundHandler" style="stroke: #A80036; stroke-width: 1.0;"/><polygon fill="none" points="296.1601,77.647,317.3415,77.056,301.1518,90.7269,296.1601,77.647" style="stroke: #A80036; stroke-width: 1.0;"/><!--MD5=[b5704996d9d56945a91532f65dfdd6d6]
reverse link ChannelHandler to ChannelOutboundHandler--><path d="M463.6458,84.1328 C508.4657,100.9402 562.924,121.3621 604.4221,136.9239 " fill="none" id="ChannelHandler&lt;-ChannelOutboundHandler" style="stroke: #A80036; stroke-width: 1.0;"/><polygon fill="none" points="461.0431,90.6328,444.7744,77.056,465.9588,77.5242,461.0431,90.6328" style="stroke: #A80036; stroke-width: 1.0;"/><!--MD5=[4af8bb779f22c9a1b20f3bb4c4ed5c2b]
reverse link ChannelHandler to ChannelHandlerAdapter--><path d="M380.5,97.2442 C380.5,110.7702 380.5,125.1366 380.5,136.7967 " fill="none" id="ChannelHandler&lt;-ChannelHandlerAdapter" style="stroke: #A80036; stroke-width: 1.0; stroke-dasharray: 7.0,7.0;"/><polygon fill="none" points="373.5001,97.1904,380.5,77.1904,387.5001,97.1904,373.5001,97.1904" style="stroke: #A80036; stroke-width: 1.0;"/><!--MD5=[dfbe3affce15bfb32e29ebe6fc65205e]
reverse link ChannelHandlerAdapter to ChannelInboundHandlerAdapter--><path d="M325.9425,196.2358 C301.3612,212.1327 272.9611,230.4992 250.853,244.7967 " fill="none" id="ChannelHandlerAdapter&lt;-ChannelInboundHandlerAdapter" style="stroke: #A80036; stroke-width: 1.0;"/><polygon fill="none" points="322.4265,190.1734,343.0219,185.1904,330.0291,201.9292,322.4265,190.1734" style="stroke: #A80036; stroke-width: 1.0;"/><!--MD5=[085312c2607fb1a6248d2f70b6ef6511]
reverse link ChannelInboundHandler to ChannelInboundHandlerAdapter--><path d="M138.4057,199.0378 C154.7541,214.2587 173.0923,231.3321 187.5542,244.7967 " fill="none" id="ChannelInboundHandler&lt;-ChannelInboundHandlerAdapter" style="stroke: #A80036; stroke-width: 1.0; stroke-dasharray: 7.0,7.0;"/><polygon fill="none" points="133.4006,203.9421,123.5327,185.1904,142.9405,193.6955,133.4006,203.9421" style="stroke: #A80036; stroke-width: 1.0;"/><!--MD5=[64089aa38107d26e4e92b12a3fee3b04]
reverse link ChannelHandlerAdapter to ChannelOutboundHandlerAdapter--><path d="M450.0432,193.6081 C485.2157,210.124 527.1496,229.8147 559.3267,244.9239 " fill="none" id="ChannelHandlerAdapter&lt;-ChannelOutboundHandlerAdapter" style="stroke: #A80036; stroke-width: 1.0;"/><polygon fill="none" points="446.9584,199.893,431.8302,185.056,452.909,187.2206,446.9584,199.893" style="stroke: #A80036; stroke-width: 1.0;"/><!--MD5=[20dcfc312d54ccf36b0271b776c100d2]
reverse link ChannelOutboundHandler to ChannelOutboundHandlerAdapter--><path d="M646.006,202.8385 C638.3737,217.0503 630.1075,232.4426 623.4729,244.7967 " fill="none" id="ChannelOutboundHandler&lt;-ChannelOutboundHandlerAdapter" style="stroke: #A80036; stroke-width: 1.0; stroke-dasharray: 7.0,7.0;"/><polygon fill="none" points="639.8541,199.4984,655.4837,185.1904,652.188,206.1222,639.8541,199.4984" style="stroke: #A80036; stroke-width: 1.0;"/><!--MD5=[aca585b95ed087196452950acc1d1cb6]
@startuml
skinparam nodesep 100

title <b>ChannelHandler 继承体系</b>

interface ChannelInboundHandler extends ChannelHandler
interface ChannelOutboundHandler extends ChannelHandler

abstract class ChannelHandlerAdapter implements ChannelHandler

class ChannelInboundHandlerAdapter extends ChannelHandlerAdapter implements ChannelInboundHandler
class ChannelOutboundHandlerAdapter extends ChannelHandlerAdapter implements ChannelOutboundHandler

@enduml

PlantUML version 1.2020.06(Sun Apr 05 12:38:32 UTC 2020)
(APACHE source distribution)
Java Runtime: OpenJDK Runtime Environment
JVM: OpenJDK 64-Bit Server VM
Java Version: 11.0.7+10-LTS
Operating System: Linux
Default Encoding: UTF-8
Language: en
Country: null
--></g></svg>