<?xml version="1.0" encoding="UTF-8" standalone="no"?><svg xmlns="http://www.w3.org/2000/svg" xmlns:xlink="http://www.w3.org/1999/xlink" contentScriptType="application/ecmascript" contentStyleType="text/css" height="607px" preserveAspectRatio="none" style="width:931px;height:607px;" version="1.1" viewBox="0 0 931 607" width="931px" zoomAndPan="magnify"><defs><filter height="300%" id="fdazryham2huc" width="300%" x="-1" y="-1"><feGaussianBlur result="blurOut" stdDeviation="2.0"/><feColorMatrix in="blurOut" result="blurOut2" type="matrix" values="0 0 0 0 0 0 0 0 0 0 0 0 0 0 0 0 0 0 .4 0"/><feOffset dx="4.0" dy="4.0" in="blurOut2" result="blurOut3"/><feBlend in="SourceGraphic" in2="blurOut3" mode="normal"/></filter></defs><g><!--MD5=[0d852700fdad35b7061d461d6907a324]
cluster java.io--><polygon fill="#FFFFFF" filter="url(#fdazryham2huc)" points="779,405,831,405,838,427.4883,909,427.4883,909,504,779,504,779,405" style="stroke: #000000; stroke-width: 1.5;"/><line style="stroke: #000000; stroke-width: 1.5;" x1="779" x2="838" y1="427.4883" y2="427.4883"/><text fill="#000000" font-family="sans-serif" font-size="14" font-weight="bold" lengthAdjust="spacingAndGlyphs" textLength="46" x="783" y="420.5352">java.io</text><!--MD5=[5a5af9b0547913863cbe0ddf55a9ab5e]
class java.io.Serializable--><rect fill="#FEFECE" filter="url(#fdazryham2huc)" height="48" id="java.io.Serializable" style="stroke: #A80036; stroke-width: 1.5;" width="98" x="795" y="440"/><ellipse cx="810" cy="456" fill="#B4A7E5" rx="11" ry="11" style="stroke: #A80036; stroke-width: 1.0;"/><path d="M806.4277,452.2651 L806.4277,450.1069 L813.8071,450.1069 L813.8071,452.2651 L811.3418,452.2651 L811.3418,460.3418 L813.8071,460.3418 L813.8071,462.5 L806.4277,462.5 L806.4277,460.3418 L808.8931,460.3418 L808.8931,452.2651 Z "/><text fill="#000000" font-family="sans-serif" font-size="12" font-style="italic" lengthAdjust="spacingAndGlyphs" textLength="66" x="824" y="460.5352">Serializable</text><line style="stroke: #A80036; stroke-width: 1.5;" x1="796" x2="892" y1="472" y2="472"/><line style="stroke: #A80036; stroke-width: 1.5;" x1="796" x2="892" y1="480" y2="480"/><!--MD5=[47de47a8b5f06cbc5e036fae0a9149b7]
class Iterable--><rect fill="#FEFECE" filter="url(#fdazryham2huc)" height="48" id="Iterable" style="stroke: #A80036; stroke-width: 1.5;" width="87" x="239.5" y="8"/><ellipse cx="254.5" cy="24" fill="#B4A7E5" rx="11" ry="11" style="stroke: #A80036; stroke-width: 1.0;"/><path d="M250.9277,20.2651 L250.9277,18.1069 L258.3071,18.1069 L258.3071,20.2651 L255.8418,20.2651 L255.8418,28.3418 L258.3071,28.3418 L258.3071,30.5 L250.9277,30.5 L250.9277,28.3418 L253.3931,28.3418 L253.3931,20.2651 Z "/><text fill="#000000" font-family="sans-serif" font-size="12" font-style="italic" lengthAdjust="spacingAndGlyphs" textLength="44" x="268.5" y="28.5352">Iterable</text><rect fill="#FFFFFF" height="16.1328" style="stroke: #000000; stroke-width: 1.0; stroke-dasharray: 2.0,2.0;" width="9" x="320.5" y="5"/><text fill="#000000" font-family="sans-serif" font-size="12" font-style="italic" lengthAdjust="spacingAndGlyphs" textLength="7" x="321.5" y="17.6016">E</text><line style="stroke: #A80036; stroke-width: 1.5;" x1="240.5" x2="325.5" y1="40" y2="40"/><line style="stroke: #A80036; stroke-width: 1.5;" x1="240.5" x2="325.5" y1="48" y2="48"/><!--MD5=[c160724f8e3bb89ca8141a12554ac2e3]
class Collection--><rect fill="#FEFECE" filter="url(#fdazryham2huc)" height="48" id="Collection" style="stroke: #A80036; stroke-width: 1.5;" width="98" x="234" y="116"/><ellipse cx="249" cy="132" fill="#B4A7E5" rx="11" ry="11" style="stroke: #A80036; stroke-width: 1.0;"/><path d="M245.4277,128.2651 L245.4277,126.1069 L252.8071,126.1069 L252.8071,128.2651 L250.3418,128.2651 L250.3418,136.3418 L252.8071,136.3418 L252.8071,138.5 L245.4277,138.5 L245.4277,136.3418 L247.8931,136.3418 L247.8931,128.2651 Z "/><text fill="#000000" font-family="sans-serif" font-size="12" font-style="italic" lengthAdjust="spacingAndGlyphs" textLength="55" x="263" y="136.5352">Collection</text><rect fill="#FFFFFF" height="16.1328" style="stroke: #000000; stroke-width: 1.0; stroke-dasharray: 2.0,2.0;" width="9" x="326" y="113"/><text fill="#000000" font-family="sans-serif" font-size="12" font-style="italic" lengthAdjust="spacingAndGlyphs" textLength="7" x="327" y="125.6016">E</text><line style="stroke: #A80036; stroke-width: 1.5;" x1="235" x2="331" y1="148" y2="148"/><line style="stroke: #A80036; stroke-width: 1.5;" x1="235" x2="331" y1="156" y2="156"/><!--MD5=[8e34b16d8d8f96f4a11290cd523ed859]
class AbstractCollection--><rect fill="#FEFECE" filter="url(#fdazryham2huc)" height="48" id="AbstractCollection" style="stroke: #A80036; stroke-width: 1.5;" width="146" x="6" y="224"/><ellipse cx="21" cy="240" fill="#A9DCDF" rx="11" ry="11" style="stroke: #A80036; stroke-width: 1.0;"/><path d="M21.1133,235.5981 L19.9595,240.6699 L22.2754,240.6699 Z M19.6191,233.3569 L22.6157,233.3569 L25.9609,245.75 L23.5122,245.75 L22.7485,242.687 L19.4697,242.687 L18.7227,245.75 L16.2739,245.75 Z "/><text fill="#000000" font-family="sans-serif" font-size="12" font-style="italic" lengthAdjust="spacingAndGlyphs" textLength="103" x="35" y="244.5352">AbstractCollection</text><rect fill="#FFFFFF" height="16.1328" style="stroke: #000000; stroke-width: 1.0; stroke-dasharray: 2.0,2.0;" width="9" x="146" y="221"/><text fill="#000000" font-family="sans-serif" font-size="12" font-style="italic" lengthAdjust="spacingAndGlyphs" textLength="7" x="147" y="233.6016">E</text><line style="stroke: #A80036; stroke-width: 1.5;" x1="7" x2="151" y1="256" y2="256"/><line style="stroke: #A80036; stroke-width: 1.5;" x1="7" x2="151" y1="264" y2="264"/><!--MD5=[3d4177ac58b4411586d067f34e84928f]
class List--><rect fill="#FEFECE" filter="url(#fdazryham2huc)" height="48" id="List" style="stroke: #A80036; stroke-width: 1.5;" width="62" x="252" y="224"/><ellipse cx="267" cy="240" fill="#B4A7E5" rx="11" ry="11" style="stroke: #A80036; stroke-width: 1.0;"/><path d="M263.4277,236.2651 L263.4277,234.1069 L270.8071,234.1069 L270.8071,236.2651 L268.3418,236.2651 L268.3418,244.3418 L270.8071,244.3418 L270.8071,246.5 L263.4277,246.5 L263.4277,244.3418 L265.8931,244.3418 L265.8931,236.2651 Z "/><text fill="#000000" font-family="sans-serif" font-size="12" font-style="italic" lengthAdjust="spacingAndGlyphs" textLength="19" x="281" y="244.5352">List</text><rect fill="#FFFFFF" height="16.1328" style="stroke: #000000; stroke-width: 1.0; stroke-dasharray: 2.0,2.0;" width="9" x="308" y="221"/><text fill="#000000" font-family="sans-serif" font-size="12" font-style="italic" lengthAdjust="spacingAndGlyphs" textLength="7" x="309" y="233.6016">E</text><line style="stroke: #A80036; stroke-width: 1.5;" x1="253" x2="313" y1="256" y2="256"/><line style="stroke: #A80036; stroke-width: 1.5;" x1="253" x2="313" y1="264" y2="264"/><!--MD5=[15b0de36700cf8bf422172734e699e19]
class Queue--><rect fill="#FEFECE" filter="url(#fdazryham2huc)" height="48" id="Queue" style="stroke: #A80036; stroke-width: 1.5;" width="80" x="414" y="224"/><ellipse cx="429" cy="240" fill="#B4A7E5" rx="11" ry="11" style="stroke: #A80036; stroke-width: 1.0;"/><path d="M425.4277,236.2651 L425.4277,234.1069 L432.8071,234.1069 L432.8071,236.2651 L430.3418,236.2651 L430.3418,244.3418 L432.8071,244.3418 L432.8071,246.5 L425.4277,246.5 L425.4277,244.3418 L427.8931,244.3418 L427.8931,236.2651 Z "/><text fill="#000000" font-family="sans-serif" font-size="12" font-style="italic" lengthAdjust="spacingAndGlyphs" textLength="37" x="443" y="244.5352">Queue</text><rect fill="#FFFFFF" height="16.1328" style="stroke: #000000; stroke-width: 1.0; stroke-dasharray: 2.0,2.0;" width="9" x="488" y="221"/><text fill="#000000" font-family="sans-serif" font-size="12" font-style="italic" lengthAdjust="spacingAndGlyphs" textLength="7" x="489" y="233.6016">E</text><line style="stroke: #A80036; stroke-width: 1.5;" x1="415" x2="493" y1="256" y2="256"/><line style="stroke: #A80036; stroke-width: 1.5;" x1="415" x2="493" y1="264" y2="264"/><!--MD5=[efca02d9d8d28b5361c3ca96ec018e12]
class Deque--><rect fill="#FEFECE" filter="url(#fdazryham2huc)" height="48" id="Deque" style="stroke: #A80036; stroke-width: 1.5;" width="81" x="413.5" y="332"/><ellipse cx="428.5" cy="348" fill="#B4A7E5" rx="11" ry="11" style="stroke: #A80036; stroke-width: 1.0;"/><path d="M424.9277,344.2651 L424.9277,342.1069 L432.3071,342.1069 L432.3071,344.2651 L429.8418,344.2651 L429.8418,352.3418 L432.3071,352.3418 L432.3071,354.5 L424.9277,354.5 L424.9277,352.3418 L427.3931,352.3418 L427.3931,344.2651 Z "/><text fill="#000000" font-family="sans-serif" font-size="12" font-style="italic" lengthAdjust="spacingAndGlyphs" textLength="38" x="442.5" y="352.5352">Deque</text><rect fill="#FFFFFF" height="16.1328" style="stroke: #000000; stroke-width: 1.0; stroke-dasharray: 2.0,2.0;" width="9" x="488.5" y="329"/><text fill="#000000" font-family="sans-serif" font-size="12" font-style="italic" lengthAdjust="spacingAndGlyphs" textLength="7" x="489.5" y="341.6016">E</text><line style="stroke: #A80036; stroke-width: 1.5;" x1="414.5" x2="493.5" y1="364" y2="364"/><line style="stroke: #A80036; stroke-width: 1.5;" x1="414.5" x2="493.5" y1="372" y2="372"/><!--MD5=[b4fa10df80476353258f72a232547d63]
class AbstractList--><rect fill="#FEFECE" filter="url(#fdazryham2huc)" height="48" id="AbstractList" style="stroke: #A80036; stroke-width: 1.5;" width="110" x="163" y="332"/><ellipse cx="178" cy="348" fill="#A9DCDF" rx="11" ry="11" style="stroke: #A80036; stroke-width: 1.0;"/><path d="M178.1133,343.5981 L176.9595,348.6699 L179.2754,348.6699 Z M176.6191,341.3569 L179.6157,341.3569 L182.9609,353.75 L180.5122,353.75 L179.7485,350.687 L176.4697,350.687 L175.7227,353.75 L173.2739,353.75 Z "/><text fill="#000000" font-family="sans-serif" font-size="12" font-style="italic" lengthAdjust="spacingAndGlyphs" textLength="67" x="192" y="352.5352">AbstractList</text><rect fill="#FFFFFF" height="16.1328" style="stroke: #000000; stroke-width: 1.0; stroke-dasharray: 2.0,2.0;" width="9" x="267" y="329"/><text fill="#000000" font-family="sans-serif" font-size="12" font-style="italic" lengthAdjust="spacingAndGlyphs" textLength="7" x="268" y="341.6016">E</text><line style="stroke: #A80036; stroke-width: 1.5;" x1="164" x2="272" y1="364" y2="364"/><line style="stroke: #A80036; stroke-width: 1.5;" x1="164" x2="272" y1="372" y2="372"/><!--MD5=[4bd4fbe69b6712a56cf15023143057aa]
class AbstractSequentialList--><rect fill="#FEFECE" filter="url(#fdazryham2huc)" height="48" id="AbstractSequentialList" style="stroke: #A80036; stroke-width: 1.5;" width="169" x="133.5" y="440"/><ellipse cx="148.5" cy="456" fill="#A9DCDF" rx="11" ry="11" style="stroke: #A80036; stroke-width: 1.0;"/><path d="M148.6133,451.5981 L147.4595,456.6699 L149.7754,456.6699 Z M147.1191,449.3569 L150.1157,449.3569 L153.4609,461.75 L151.0122,461.75 L150.2485,458.687 L146.9697,458.687 L146.2227,461.75 L143.7739,461.75 Z "/><text fill="#000000" font-family="sans-serif" font-size="12" font-style="italic" lengthAdjust="spacingAndGlyphs" textLength="126" x="162.5" y="460.5352">AbstractSequentialList</text><rect fill="#FFFFFF" height="16.1328" style="stroke: #000000; stroke-width: 1.0; stroke-dasharray: 2.0,2.0;" width="9" x="296.5" y="437"/><text fill="#000000" font-family="sans-serif" font-size="12" font-style="italic" lengthAdjust="spacingAndGlyphs" textLength="7" x="297.5" y="449.6016">E</text><line style="stroke: #A80036; stroke-width: 1.5;" x1="134.5" x2="301.5" y1="472" y2="472"/><line style="stroke: #A80036; stroke-width: 1.5;" x1="134.5" x2="301.5" y1="480" y2="480"/><!--MD5=[a046d640d88ed63f622f54ae7bf961fb]
class LinkedList--><rect fill="#FEFECE" filter="url(#fdazryham2huc)" height="48" id="LinkedList" style="stroke: #A80036; stroke-width: 1.5;" width="100" x="502" y="548"/><ellipse cx="517" cy="564" fill="#ADD1B2" rx="11" ry="11" style="stroke: #A80036; stroke-width: 1.0;"/><path d="M519.4731,570.1431 Q518.8921,570.4419 518.2529,570.5913 Q517.6138,570.7407 516.9082,570.7407 Q514.4014,570.7407 513.0815,569.0889 Q511.7617,567.437 511.7617,564.3159 Q511.7617,561.1865 513.0815,559.5347 Q514.4014,557.8828 516.9082,557.8828 Q517.6138,557.8828 518.2612,558.0322 Q518.9087,558.1816 519.4731,558.4805 L519.4731,561.2031 Q518.8423,560.6221 518.2488,560.3523 Q517.6553,560.0825 517.0244,560.0825 Q515.6797,560.0825 514.9949,561.1492 Q514.3101,562.2158 514.3101,564.3159 Q514.3101,566.4077 514.9949,567.4744 Q515.6797,568.541 517.0244,568.541 Q517.6553,568.541 518.2488,568.2712 Q518.8423,568.0015 519.4731,567.4204 Z "/><text fill="#000000" font-family="sans-serif" font-size="12" lengthAdjust="spacingAndGlyphs" textLength="57" x="531" y="568.5352">LinkedList</text><rect fill="#FFFFFF" height="16.1328" style="stroke: #000000; stroke-width: 1.0; stroke-dasharray: 2.0,2.0;" width="9" x="596" y="545"/><text fill="#000000" font-family="sans-serif" font-size="12" font-style="italic" lengthAdjust="spacingAndGlyphs" textLength="7" x="597" y="557.6016">E</text><line style="stroke: #A80036; stroke-width: 1.5;" x1="503" x2="601" y1="580" y2="580"/><line style="stroke: #A80036; stroke-width: 1.5;" x1="503" x2="601" y1="588" y2="588"/><!--MD5=[f62eaa6c4d43571d0e4c76098fe1b59f]
class Cloneable--><rect fill="#FEFECE" filter="url(#fdazryham2huc)" height="48" id="Cloneable" style="stroke: #A80036; stroke-width: 1.5;" width="89" x="605.5" y="440"/><ellipse cx="620.5" cy="456" fill="#B4A7E5" rx="11" ry="11" style="stroke: #A80036; stroke-width: 1.0;"/><path d="M616.9277,452.2651 L616.9277,450.1069 L624.3071,450.1069 L624.3071,452.2651 L621.8418,452.2651 L621.8418,460.3418 L624.3071,460.3418 L624.3071,462.5 L616.9277,462.5 L616.9277,460.3418 L619.3931,460.3418 L619.3931,452.2651 Z "/><text fill="#000000" font-family="sans-serif" font-size="12" font-style="italic" lengthAdjust="spacingAndGlyphs" textLength="57" x="634.5" y="460.5352">Cloneable</text><line style="stroke: #A80036; stroke-width: 1.5;" x1="606.5" x2="693.5" y1="472" y2="472"/><line style="stroke: #A80036; stroke-width: 1.5;" x1="606.5" x2="693.5" y1="480" y2="480"/><!--MD5=[30609b773d1acd1d8ef4d49cf63668f8]
reverse link Iterable to Collection--><path d="M283,76.02 C283,89.58 283,104.04 283,115.68 " fill="none" id="Iterable&lt;-Collection" style="stroke: #A80036; stroke-width: 1.0;"/><polygon fill="none" points="276,76,283,56,290,76,276,76" style="stroke: #A80036; stroke-width: 1.0;"/><!--MD5=[1822909749df1453bdd84de7a60a3406]
reverse link Collection to AbstractCollection--><path d="M220.59,173.43 C189.23,189.73 151.96,209.09 123.53,223.86 " fill="none" id="Collection&lt;-AbstractCollection" style="stroke: #A80036; stroke-width: 1.0; stroke-dasharray: 7.0,7.0;"/><polygon fill="none" points="217.76,167.01,238.74,164,224.22,179.43,217.76,167.01" style="stroke: #A80036; stroke-width: 1.0;"/><!--MD5=[0159284274f96a472eb2618ad803aaca]
reverse link Collection to List--><path d="M283,184.02 C283,197.58 283,212.04 283,223.68 " fill="none" id="Collection&lt;-List" style="stroke: #A80036; stroke-width: 1.0;"/><polygon fill="none" points="276,184,283,164,290,184,276,184" style="stroke: #A80036; stroke-width: 1.0;"/><!--MD5=[ed6173059207d719d56c0a76f1c566ad]
reverse link Collection to Queue--><path d="M337.18,174.58 C363.07,190.63 393.4,209.44 416.67,223.86 " fill="none" id="Collection&lt;-Queue" style="stroke: #A80036; stroke-width: 1.0;"/><polygon fill="none" points="333.42,180.49,320.1,164,340.79,168.59,333.42,180.49" style="stroke: #A80036; stroke-width: 1.0;"/><!--MD5=[486bf48800eb60e7ccf4203e83dc9376]
reverse link Queue to Deque--><path d="M454,292.02 C454,305.58 454,320.04 454,331.68 " fill="none" id="Queue&lt;-Deque" style="stroke: #A80036; stroke-width: 1.0;"/><polygon fill="none" points="447,292,454,272,461,292,447,292" style="stroke: #A80036; stroke-width: 1.0;"/><!--MD5=[7a3a52e8f65ef1a8d8d29530ea5cd870]
reverse link AbstractCollection to AbstractList--><path d="M125.12,284.17 C145.6,299.79 169.16,317.75 187.42,331.68 " fill="none" id="AbstractCollection&lt;-AbstractList" style="stroke: #A80036; stroke-width: 1.0;"/><polygon fill="none" points="120.82,289.69,109.16,272,129.31,278.56,120.82,289.69" style="stroke: #A80036; stroke-width: 1.0;"/><!--MD5=[00308d07b6a5721fb0cf5861877e6652]
reverse link List to AbstractList--><path d="M258.39,289.13 C249.58,303.5 239.95,319.21 232.3,331.68 " fill="none" id="List&lt;-AbstractList" style="stroke: #A80036; stroke-width: 1.0; stroke-dasharray: 7.0,7.0;"/><polygon fill="none" points="252.47,285.39,268.9,272,264.41,292.71,252.47,285.39" style="stroke: #A80036; stroke-width: 1.0;"/><!--MD5=[856a319f4d801013c8fadb7cc0132d69]
reverse link AbstractList to AbstractSequentialList--><path d="M218,400.02 C218,413.58 218,428.04 218,439.68 " fill="none" id="AbstractList&lt;-AbstractSequentialList" style="stroke: #A80036; stroke-width: 1.0;"/><polygon fill="none" points="211,400,218,380,225,400,211,400" style="stroke: #A80036; stroke-width: 1.0;"/><!--MD5=[d9f24560202aee28c6b2a8e3212c1fc6]
reverse link AbstractSequentialList to LinkedList--><path d="M309.92,494.17 C371.88,513.84 451.25,539.03 501.88,555.09 " fill="none" id="AbstractSequentialList&lt;-LinkedList" style="stroke: #A80036; stroke-width: 1.0;"/><polygon fill="none" points="307.42,500.72,290.47,488,311.65,487.38,307.42,500.72" style="stroke: #A80036; stroke-width: 1.0;"/><!--MD5=[a6435fef378a2b5f17b4598cb1e2a358]
reverse link Deque to LinkedList--><path d="M473.02,398.53 C493.38,442.99 524.96,511.96 541.34,547.72 " fill="none" id="Deque&lt;-LinkedList" style="stroke: #A80036; stroke-width: 1.0; stroke-dasharray: 7.0,7.0;"/><polygon fill="none" points="466.64,401.41,464.67,380.31,479.37,395.58,466.64,401.41" style="stroke: #A80036; stroke-width: 1.0;"/><!--MD5=[020a3dc3afa4fbf49d40fae1233d0b91]
reverse link Cloneable to LinkedList--><path d="M615.1,502.75 C601.24,517.74 585.73,534.51 573.56,547.68 " fill="none" id="Cloneable&lt;-LinkedList" style="stroke: #A80036; stroke-width: 1.0; stroke-dasharray: 7.0,7.0;"/><polygon fill="none" points="610.02,497.93,628.74,488,620.3,507.44,610.02,497.93" style="stroke: #A80036; stroke-width: 1.0;"/><!--MD5=[c212c81a0c58fd485b709484279e7bf5]
reverse link java.io.Serializable to LinkedList--><path d="M780.42,496.86 C768.77,502.22 756.62,507.49 745,512 C697.47,530.43 641.62,546.97 602.27,557.82 " fill="none" id="java.io.Serializable&lt;-LinkedList" style="stroke: #A80036; stroke-width: 1.0; stroke-dasharray: 7.0,7.0;"/><polygon fill="none" points="777.7,490.4,798.77,488.18,783.69,503.06,777.7,490.4" style="stroke: #A80036; stroke-width: 1.0;"/><!--MD5=[f07f87f261b80408ab93894388c837ec]
@startuml
skinparam nodesep 100

interface Iterable<E>

interface Collection<E> extends Iterable

abstract class AbstractCollection<E> implements Collection


interface List<E> extends Collection

interface Queue<E> extends Collection

interface Deque<E> extends Queue

abstract class AbstractList<E> extends AbstractCollection implements List

abstract class AbstractSequentialList<E> extends AbstractList

class LinkedList<E> extends AbstractSequentialList implements Deque, Cloneable, java.io.Serializable

@enduml

PlantUML version 1.2019.12(Sun Nov 03 18:24:54 CST 2019)
(APACHE source distribution)
Java Runtime: OpenJDK Runtime Environment
JVM: OpenJDK 64-Bit Server VM
Java Version: 11.0.6+10-LTS
Operating System: Mac OS X
Default Encoding: UTF-8
Language: en
Country: CN
--></g></svg>