<?xml version="1.0" encoding="UTF-8" standalone="no"?><svg xmlns="http://www.w3.org/2000/svg" xmlns:xlink="http://www.w3.org/1999/xlink" contentScriptType="application/ecmascript" contentStyleType="text/css" height="542px" preserveAspectRatio="none" style="width:519px;height:542px;" version="1.1" viewBox="0 0 519 542" width="519px" zoomAndPan="magnify"><defs><filter height="300%" id="f1r0fx6h2pnclv" width="300%" x="-1" y="-1"><feGaussianBlur result="blurOut" stdDeviation="2.0"/><feColorMatrix in="blurOut" result="blurOut2" type="matrix" values="0 0 0 0 0 0 0 0 0 0 0 0 0 0 0 0 0 0 .4 0"/><feOffset dx="4.0" dy="4.0" in="blurOut2" result="blurOut3"/><feBlend in="SourceGraphic" in2="blurOut3" mode="normal"/></filter></defs><g><text fill="#000000" font-family="Hiragino Sans GB" font-size="18" font-weight="bold" lengthAdjust="spacingAndGlyphs" textLength="90" x="218" y="24.84">迭代器模式</text><!--class Iterator--><rect fill="#FEFECE" filter="url(#f1r0fx6h2pnclv)" height="114" id="Iterator" style="stroke: #A80036; stroke-width: 1.5;" width="149" x="312" y="164"/><ellipse cx="357.25" cy="180" fill="#A9DCDF" rx="11" ry="11" style="stroke: #A80036; stroke-width: 1.0;"/><path d="M357.3633,175.5981 L356.2095,180.6699 L358.5254,180.6699 Z M355.8691,173.3569 L358.8657,173.3569 L362.2109,185.75 L359.7622,185.75 L358.9985,182.687 L355.7197,182.687 L354.9727,185.75 L352.5239,185.75 Z "/><text fill="#000000" font-family="Hiragino Sans GB" font-size="12" font-style="italic" lengthAdjust="spacingAndGlyphs" textLength="50" x="377.75" y="187.56">Iterator</text><line style="stroke: #A80036; stroke-width: 1.5;" x1="313" x2="460" y1="196" y2="196"/><line style="stroke: #A80036; stroke-width: 1.5;" x1="313" x2="460" y1="204" y2="204"/><ellipse cx="323" cy="217.75" fill="#84BE84" rx="3" ry="3" style="stroke: #038048; stroke-width: 1.0;"/><text fill="#000000" font-family="Hiragino Sans GB" font-size="11" font-style="italic" lengthAdjust="spacingAndGlyphs" textLength="79" x="332" y="223.18">first() :Object</text><ellipse cx="323" cy="234.25" fill="#84BE84" rx="3" ry="3" style="stroke: #038048; stroke-width: 1.0;"/><text fill="#000000" font-family="Hiragino Sans GB" font-size="11" font-style="italic" lengthAdjust="spacingAndGlyphs" textLength="80" x="332" y="239.68">next() :Object</text><ellipse cx="323" cy="250.75" fill="#84BE84" rx="3" ry="3" style="stroke: #038048; stroke-width: 1.0;"/><text fill="#000000" font-family="Hiragino Sans GB" font-size="11" font-style="italic" lengthAdjust="spacingAndGlyphs" textLength="101" x="332" y="256.18">isDone() :boolean</text><ellipse cx="323" cy="267.25" fill="#84BE84" rx="3" ry="3" style="stroke: #038048; stroke-width: 1.0;"/><text fill="#000000" font-family="Hiragino Sans GB" font-size="11" font-style="italic" lengthAdjust="spacingAndGlyphs" textLength="123" x="332" y="272.68">currentItem() :Object</text><path d="M265.5,35 L265.5,103.5 A0,0 0 0 0 265.5,103.5 L382.5,103.5 L386.5,163.97 L390.5,103.5 L507.5,103.5 A0,0 0 0 0 507.5,103.5 L507.5,45 L497.5,35 L265.5,35 A0,0 0 0 0 265.5,35 " fill="#FBFB77" filter="url(#f1r0fx6h2pnclv)" style="stroke: #A80036; stroke-width: 1.0;"/><path d="M497.5,35 L497.5,45 L507.5,45 L497.5,35 " fill="#FBFB77" style="stroke: #A80036; stroke-width: 1.0;"/><text fill="#000000" font-family="Hiragino Sans GB" font-size="13" lengthAdjust="spacingAndGlyphs" textLength="221" x="271.5" y="57.94">迭代抽象类，用于定义得到开始对象、</text><text fill="#000000" font-family="Hiragino Sans GB" font-size="13" lengthAdjust="spacingAndGlyphs" textLength="208" x="271.5" y="77.44">得到下一个对象、判断是否到结尾、</text><text fill="#000000" font-family="Hiragino Sans GB" font-size="13" lengthAdjust="spacingAndGlyphs" textLength="195" x="271.5" y="96.94">当前对象等抽象方法，统一接口。</text><!--class ConcreteIterator--><rect fill="#FEFECE" filter="url(#f1r0fx6h2pnclv)" height="48" id="ConcreteIterator" style="stroke: #A80036; stroke-width: 1.5;" width="143" x="275" y="346"/><ellipse cx="290" cy="362" fill="#ADD1B2" rx="11" ry="11" style="stroke: #A80036; stroke-width: 1.0;"/><path d="M292.4731,368.1431 Q291.8921,368.4419 291.2529,368.5913 Q290.6138,368.7407 289.9082,368.7407 Q287.4014,368.7407 286.0815,367.0889 Q284.7617,365.437 284.7617,362.3159 Q284.7617,359.1865 286.0815,357.5347 Q287.4014,355.8828 289.9082,355.8828 Q290.6138,355.8828 291.2612,356.0322 Q291.9087,356.1816 292.4731,356.4805 L292.4731,359.2031 Q291.8423,358.6221 291.2488,358.3523 Q290.6553,358.0825 290.0244,358.0825 Q288.6797,358.0825 287.9949,359.1492 Q287.3101,360.2158 287.3101,362.3159 Q287.3101,364.4077 287.9949,365.4744 Q288.6797,366.541 290.0244,366.541 Q290.6553,366.541 291.2488,366.2712 Q291.8423,366.0015 292.4731,365.4204 Z "/><text fill="#000000" font-family="Hiragino Sans GB" font-size="12" lengthAdjust="spacingAndGlyphs" textLength="111" x="304" y="369.56">ConcreteIterator</text><line style="stroke: #A80036; stroke-width: 1.5;" x1="276" x2="417" y1="378" y2="378"/><line style="stroke: #A80036; stroke-width: 1.5;" x1="276" x2="417" y1="386" y2="386"/><path d="M257.5,462 L257.5,530.5 A0,0 0 0 0 257.5,530.5 L465.5,530.5 A0,0 0 0 0 465.5,530.5 L465.5,472 L455.5,462 L361.43,462 L349.29,394.13 L353.43,462 L257.5,462 A0,0 0 0 0 257.5,462 " fill="#FBFB77" filter="url(#f1r0fx6h2pnclv)" style="stroke: #A80036; stroke-width: 1.0;"/><path d="M455.5,462 L455.5,472 L465.5,472 L455.5,462 " fill="#FBFB77" style="stroke: #A80036; stroke-width: 1.0;"/><text fill="#000000" font-family="Hiragino Sans GB" font-size="13" lengthAdjust="spacingAndGlyphs" textLength="187" x="263.5" y="484.94">具体迭代器类，继承 Iterator，</text><text fill="#000000" font-family="Hiragino Sans GB" font-size="13" lengthAdjust="spacingAndGlyphs" textLength="182" x="263.5" y="504.44">实现开始、下一个、是否结尾、</text><text fill="#000000" font-family="Hiragino Sans GB" font-size="13" lengthAdjust="spacingAndGlyphs" textLength="104" x="263.5" y="523.94">当前对象等方法。</text><!--class Aggregate--><rect fill="#FEFECE" filter="url(#f1r0fx6h2pnclv)" height="64.5" id="Aggregate" style="stroke: #A80036; stroke-width: 1.5;" width="167" x="6" y="189"/><ellipse cx="50.75" cy="205" fill="#A9DCDF" rx="11" ry="11" style="stroke: #A80036; stroke-width: 1.0;"/><path d="M50.8633,200.5981 L49.7095,205.6699 L52.0254,205.6699 Z M49.3691,198.3569 L52.3657,198.3569 L55.7109,210.75 L53.2622,210.75 L52.4985,207.687 L49.2197,207.687 L48.4727,210.75 L46.0239,210.75 Z "/><text fill="#000000" font-family="Hiragino Sans GB" font-size="12" font-style="italic" lengthAdjust="spacingAndGlyphs" textLength="69" x="71.25" y="212.56">Aggregate</text><line style="stroke: #A80036; stroke-width: 1.5;" x1="7" x2="172" y1="221" y2="221"/><line style="stroke: #A80036; stroke-width: 1.5;" x1="7" x2="172" y1="229" y2="229"/><ellipse cx="17" cy="242.75" fill="#84BE84" rx="3" ry="3" style="stroke: #038048; stroke-width: 1.0;"/><text fill="#000000" font-family="Hiragino Sans GB" font-size="11" font-style="italic" lengthAdjust="spacingAndGlyphs" textLength="141" x="26" y="248.18">createIterator() :Iterator</text><path d="M46.5,55 L46.5,84.5 A0,0 0 0 0 46.5,84.5 L85.5,84.5 L89.5,188.78 L93.5,84.5 L132.5,84.5 A0,0 0 0 0 132.5,84.5 L132.5,65 L122.5,55 L46.5,55 A0,0 0 0 0 46.5,55 " fill="#FBFB77" filter="url(#f1r0fx6h2pnclv)" style="stroke: #A80036; stroke-width: 1.0;"/><path d="M122.5,55 L122.5,65 L132.5,65 L122.5,55 " fill="#FBFB77" style="stroke: #A80036; stroke-width: 1.0;"/><text fill="#000000" font-family="Hiragino Sans GB" font-size="13" lengthAdjust="spacingAndGlyphs" textLength="65" x="52.5" y="77.94">聚集抽象类</text><!--class ConcreteAggregate--><rect fill="#FEFECE" filter="url(#f1r0fx6h2pnclv)" height="64.5" id="ConcreteAggregate" style="stroke: #A80036; stroke-width: 1.5;" width="167" x="59" y="338"/><ellipse cx="76.25" cy="354" fill="#ADD1B2" rx="11" ry="11" style="stroke: #A80036; stroke-width: 1.0;"/><path d="M78.7231,360.1431 Q78.1421,360.4419 77.5029,360.5913 Q76.8638,360.7407 76.1582,360.7407 Q73.6514,360.7407 72.3315,359.0889 Q71.0117,357.437 71.0117,354.3159 Q71.0117,351.1865 72.3315,349.5347 Q73.6514,347.8828 76.1582,347.8828 Q76.8638,347.8828 77.5112,348.0322 Q78.1587,348.1816 78.7231,348.4805 L78.7231,351.2031 Q78.0923,350.6221 77.4988,350.3523 Q76.9053,350.0825 76.2744,350.0825 Q74.9297,350.0825 74.2449,351.1492 Q73.5601,352.2158 73.5601,354.3159 Q73.5601,356.4077 74.2449,357.4744 Q74.9297,358.541 76.2744,358.541 Q76.9053,358.541 77.4988,358.2712 Q78.0923,358.0015 78.7231,357.4204 Z "/><text fill="#000000" font-family="Hiragino Sans GB" font-size="12" lengthAdjust="spacingAndGlyphs" textLength="130" x="90.75" y="361.56">ConcreteAggregate</text><line style="stroke: #A80036; stroke-width: 1.5;" x1="60" x2="225" y1="370" y2="370"/><line style="stroke: #A80036; stroke-width: 1.5;" x1="60" x2="225" y1="378" y2="378"/><ellipse cx="70" cy="391.75" fill="#84BE84" rx="3" ry="3" style="stroke: #038048; stroke-width: 1.0;"/><text fill="#000000" font-family="Hiragino Sans GB" font-size="11" lengthAdjust="spacingAndGlyphs" textLength="141" x="79" y="397.18">createIterator() :Iterator</text><path d="M6.5,482 L6.5,511.5 A0,0 0 0 0 6.5,511.5 L222.5,511.5 A0,0 0 0 0 222.5,511.5 L222.5,492 L212.5,482 L121.56,482 L135.51,402.1 L113.56,482 L6.5,482 A0,0 0 0 0 6.5,482 " fill="#FBFB77" filter="url(#f1r0fx6h2pnclv)" style="stroke: #A80036; stroke-width: 1.0;"/><path d="M212.5,482 L212.5,492 L222.5,492 L212.5,482 " fill="#FBFB77" style="stroke: #A80036; stroke-width: 1.0;"/><text fill="#000000" font-family="Hiragino Sans GB" font-size="13" lengthAdjust="spacingAndGlyphs" textLength="195" x="12.5" y="504.94">具体聚集类，继承 Aggregate。</text><!--class Client--><rect fill="#FEFECE" filter="url(#f1r0fx6h2pnclv)" height="48" id="Client" style="stroke: #A80036; stroke-width: 1.5;" width="69" x="208" y="197"/><ellipse cx="223" cy="213" fill="#ADD1B2" rx="11" ry="11" style="stroke: #A80036; stroke-width: 1.0;"/><path d="M225.4731,219.1431 Q224.8921,219.4419 224.2529,219.5913 Q223.6138,219.7407 222.9082,219.7407 Q220.4014,219.7407 219.0815,218.0889 Q217.7617,216.437 217.7617,213.3159 Q217.7617,210.1865 219.0815,208.5347 Q220.4014,206.8828 222.9082,206.8828 Q223.6138,206.8828 224.2612,207.0322 Q224.9087,207.1816 225.4731,207.4805 L225.4731,210.2031 Q224.8423,209.6221 224.2488,209.3523 Q223.6553,209.0825 223.0244,209.0825 Q221.6797,209.0825 220.9949,210.1492 Q220.3101,211.2158 220.3101,213.3159 Q220.3101,215.4077 220.9949,216.4744 Q221.6797,217.541 223.0244,217.541 Q223.6553,217.541 224.2488,217.2712 Q224.8423,217.0015 225.4731,216.4204 Z "/><text fill="#000000" font-family="Hiragino Sans GB" font-size="12" lengthAdjust="spacingAndGlyphs" textLength="37" x="237" y="220.56">Client</text><line style="stroke: #A80036; stroke-width: 1.5;" x1="209" x2="276" y1="229" y2="229"/><line style="stroke: #A80036; stroke-width: 1.5;" x1="209" x2="276" y1="237" y2="237"/><!--link Aggregate to Client--><path d="M178.32,221 C188.16,221 198,221 207.84,221 " fill="none" id="Aggregate-Client" style="stroke: #A80036; stroke-width: 1.0;"/><polygon fill="#A80036" points="173.17,221,182.17,225,178.17,221,182.17,217,173.17,221" style="stroke: #A80036; stroke-width: 1.0;"/><!--link Client to Iterator--><path d="M277.09,221 C286.92,221 296.75,221 306.57,221 " fill="none" id="Client-Iterator" style="stroke: #A80036; stroke-width: 1.0;"/><polygon fill="#A80036" points="311.71,221,302.71,217,306.71,221,302.71,225,311.71,221" style="stroke: #A80036; stroke-width: 1.0;"/><!--link Aggregate to ConcreteAggregate--><path d="M107.56,272.09 C115.42,293.9 124.39,318.78 131.28,337.87 " fill="none" id="Aggregate-ConcreteAggregate" style="stroke: #A80036; stroke-width: 1.0;"/><polygon fill="none" points="100.94,274.36,100.74,253.17,114.11,269.62,100.94,274.36" style="stroke: #A80036; stroke-width: 1.0;"/><!--link Iterator to ConcreteIterator--><path d="M365.89,297.73 C361.11,315.31 356.37,332.71 352.78,345.92 " fill="none" id="Iterator-ConcreteIterator" style="stroke: #A80036; stroke-width: 1.0;"/><polygon fill="none" points="359.14,295.87,371.15,278.41,372.65,299.55,359.14,295.87" style="stroke: #A80036; stroke-width: 1.0;"/><!--link ConcreteAggregate to ConcreteIterator--><path d="M231.47,393.61 C245.84,394.47 260.21,393.91 274.59,391.91 " fill="none" id="ConcreteAggregate-ConcreteIterator" style="stroke: #A80036; stroke-width: 1.0;"/><polygon fill="#A80036" points="226.17,393.23,234.848,397.8876,231.1562,393.6015,235.4423,389.9097,226.17,393.23" style="stroke: #A80036; stroke-width: 1.0;"/><!--link ConcreteIterator to ConcreteAggregate--><path d="M269.29,347.42 C254.92,345.77 240.54,345.56 226.17,346.77 " fill="none" id="ConcreteIterator-ConcreteAggregate" style="stroke: #A80036; stroke-width: 1.0; stroke-dasharray: 7.0,7.0;"/><polygon fill="#A80036" points="274.59,348.09,266.1628,342.9927,269.6295,347.4628,265.1593,350.9295,274.59,348.09" style="stroke: #A80036; stroke-width: 1.0;"/><!--
@startuml
skinparam defaultFontName Hiragino Sans GB

title <b>迭代器模式</b>

abstract class Iterator {
+ {abstract} first() :Object
+ {abstract} next() :Object
+ {abstract} isDone() :boolean
+ {abstract} currentItem() :Object
}
note top: 迭代抽象类，用于定义得到开始对象、\n得到下一个对象、判断是否到结尾、\n当前对象等抽象方法，统一接口。

class ConcreteIterator {
}
note bottom: 具体迭代器类，继承 Iterator，\n实现开始、下一个、是否结尾、\n当前对象等方法。

abstract class Aggregate {
+ {abstract} createIterator() :Iterator
}
note top: 聚集抽象类

class ConcreteAggregate {
+ createIterator() :Iterator
}
note bottom: 具体聚集类，继承 Aggregate。

class Client {
}

Client -left-> Aggregate
Client -right-> Iterator

Aggregate <|- - ConcreteAggregate
Iterator <|- - ConcreteIterator

ConcreteIterator -left-> ConcreteAggregate
ConcreteIterator <.. ConcreteAggregate

@enduml

PlantUML version 1.2019.06(Sat May 25 01:10:25 CST 2019)
(APACHE source distribution)
Java Runtime: OpenJDK Runtime Environment
JVM: OpenJDK 64-Bit Server VM
Java Version: 1.8.0_212-b04
Operating System: Mac OS X
OS Version: 10.15.1
Default Encoding: UTF-8
Language: en
Country: CN
--></g></svg>